<svg xmlns="http://www.w3.org/2000/svg" xmlns:xlink="http://www.w3.org/1999/xlink" viewBox="0 0 1285.6 406.03"><defs><style>.cls-1{isolation:isolate;}.cls-2{fill:url(#linear-gradient);}.cls-188,.cls-3{opacity:0.2;}.cls-140,.cls-145,.cls-3{mix-blend-mode:multiply;}.cls-3{fill:url(#Degradado_sin_nombre_93);}.cls-4{fill:url(#Degradado_sin_nombre_101);}.cls-5{fill:url(#Degradado_sin_nombre_101-2);}.cls-6{fill:url(#Degradado_sin_nombre_101-3);}.cls-7{fill:url(#Degradado_sin_nombre_101-4);}.cls-8{fill:url(#Degradado_sin_nombre_101-5);}.cls-9{fill:url(#Degradado_sin_nombre_101-6);}.cls-10{fill:url(#Degradado_sin_nombre_101-7);}.cls-11{fill:url(#Degradado_sin_nombre_101-8);}.cls-12{fill:url(#Degradado_sin_nombre_101-9);}.cls-13{fill:url(#Degradado_sin_nombre_101-10);}.cls-14{fill:url(#Degradado_sin_nombre_101-11);}.cls-15{fill:url(#Degradado_sin_nombre_101-12);}.cls-16{fill:url(#Degradado_sin_nombre_101-13);}.cls-17{fill:url(#Degradado_sin_nombre_101-14);}.cls-18{fill:url(#Degradado_sin_nombre_101-15);}.cls-19{fill:url(#Degradado_sin_nombre_101-16);}.cls-20{fill:url(#Degradado_sin_nombre_101-17);}.cls-21{fill:url(#Degradado_sin_nombre_101-18);}.cls-22{fill:url(#Degradado_sin_nombre_101-19);}.cls-23{fill:url(#Degradado_sin_nombre_101-20);}.cls-24{fill:url(#Degradado_sin_nombre_101-21);}.cls-25{fill:url(#Degradado_sin_nombre_101-22);}.cls-26{fill:url(#Degradado_sin_nombre_101-23);}.cls-27{fill:url(#Degradado_sin_nombre_101-24);}.cls-28{fill:url(#Degradado_sin_nombre_101-25);}.cls-29{fill:url(#Degradado_sin_nombre_101-26);}.cls-30{fill:url(#Degradado_sin_nombre_101-27);}.cls-31{fill:url(#Degradado_sin_nombre_101-28);}.cls-32{fill:url(#Degradado_sin_nombre_101-29);}.cls-138,.cls-139,.cls-149,.cls-184,.cls-185,.cls-186,.cls-187,.cls-188,.cls-189,.cls-33{fill:none;stroke-miterlimit:10;}.cls-33{stroke:#fca409;stroke-linecap:round;stroke-width:0.5px;}.cls-34{fill:url(#Degradado_sin_nombre_22);}.cls-35{fill:url(#Degradado_sin_nombre_26);}.cls-36{fill:#bcbcbc;}.cls-37{fill:url(#Degradado_sin_nombre_50);}.cls-38{fill:#717171;}.cls-39{fill:url(#Degradado_sin_nombre_22-2);}.cls-40{fill:url(#Degradado_sin_nombre_2);}.cls-41{fill:url(#Degradado_sin_nombre_4);}.cls-42{fill:url(#Degradado_sin_nombre_5);}.cls-43{fill:url(#Degradado_sin_nombre_13);}.cls-44{fill:url(#Degradado_sin_nombre_13-2);}.cls-45{fill:url(#Degradado_sin_nombre_13-3);}.cls-46{fill:url(#Degradado_sin_nombre_13-4);}.cls-47{fill:url(#Degradado_sin_nombre_41);}.cls-48{fill:url(#Degradado_sin_nombre_41-2);}.cls-49{fill:url(#Degradado_sin_nombre_41-3);}.cls-50{fill:url(#Degradado_sin_nombre_41-4);}.cls-51{fill:url(#Degradado_sin_nombre_2-2);}.cls-52{fill:url(#Degradado_sin_nombre_50-2);}.cls-53{fill:url(#Degradado_sin_nombre_50-3);}.cls-54{fill:url(#Degradado_sin_nombre_4-2);}.cls-55{fill:url(#Degradado_sin_nombre_5-2);}.cls-56{fill:url(#Degradado_sin_nombre_50-4);}.cls-57{fill:url(#Degradado_sin_nombre_51);}.cls-58{fill:url(#Degradado_sin_nombre_54);}.cls-59{fill:url(#Degradado_sin_nombre_54-2);}.cls-60{fill:url(#Degradado_sin_nombre_54-3);}.cls-61{fill:url(#Degradado_sin_nombre_54-4);}.cls-62{fill:url(#Degradado_sin_nombre_54-5);}.cls-63{fill:url(#Degradado_sin_nombre_54-6);}.cls-64{fill:url(#Degradado_sin_nombre_54-7);}.cls-65{fill:url(#Degradado_sin_nombre_54-8);}.cls-66{fill:url(#Degradado_sin_nombre_54-9);}.cls-67{fill:url(#Degradado_sin_nombre_54-10);}.cls-68{fill:url(#Degradado_sin_nombre_54-11);}.cls-69{fill:url(#Degradado_sin_nombre_54-12);}.cls-70{fill:url(#Degradado_sin_nombre_54-13);}.cls-71{fill:url(#Degradado_sin_nombre_54-14);}.cls-72{fill:url(#Degradado_sin_nombre_54-15);}.cls-73{fill:url(#Degradado_sin_nombre_54-16);}.cls-74{fill:url(#Degradado_sin_nombre_54-17);}.cls-75{fill:url(#Degradado_sin_nombre_54-18);}.cls-76{fill:url(#Degradado_sin_nombre_54-19);}.cls-77{fill:url(#Degradado_sin_nombre_54-20);}.cls-78{fill:url(#Degradado_sin_nombre_54-21);}.cls-79{fill:url(#Degradado_sin_nombre_54-22);}.cls-80{fill:url(#Degradado_sin_nombre_54-23);}.cls-81{fill:url(#Degradado_sin_nombre_54-24);}.cls-82{fill:url(#Degradado_sin_nombre_54-25);}.cls-83{fill:url(#Degradado_sin_nombre_54-26);}.cls-84{fill:url(#Degradado_sin_nombre_54-27);}.cls-85{fill:url(#Degradado_sin_nombre_54-28);}.cls-86{fill:url(#Degradado_sin_nombre_54-29);}.cls-87{fill:url(#Degradado_sin_nombre_54-30);}.cls-88{fill:url(#Degradado_sin_nombre_54-31);}.cls-89{fill:url(#Degradado_sin_nombre_54-32);}.cls-90{fill:url(#Degradado_sin_nombre_54-33);}.cls-91{fill:url(#Degradado_sin_nombre_54-34);}.cls-92{fill:url(#Degradado_sin_nombre_54-35);}.cls-93{fill:url(#Degradado_sin_nombre_54-36);}.cls-94{fill:url(#Degradado_sin_nombre_54-37);}.cls-95{fill:url(#Degradado_sin_nombre_6);}.cls-96{fill:url(#Degradado_sin_nombre_6-2);}.cls-97{fill:url(#Degradado_sin_nombre_6-3);}.cls-98{fill:url(#Degradado_sin_nombre_6-4);}.cls-99{fill:url(#Degradado_sin_nombre_6-5);}.cls-100{fill:url(#Degradado_sin_nombre_6-6);}.cls-101{fill:url(#Degradado_sin_nombre_6-7);}.cls-102{fill:url(#Degradado_sin_nombre_6-8);}.cls-103{fill:url(#Degradado_sin_nombre_47);}.cls-104{fill:url(#Degradado_sin_nombre_4-3);}.cls-105{fill:url(#Degradado_sin_nombre_5-3);}.cls-106{fill:url(#Degradado_sin_nombre_6-9);}.cls-107{fill:url(#Degradado_sin_nombre_6-10);}.cls-108{fill:url(#Degradado_sin_nombre_6-11);}.cls-109{fill:url(#Degradado_sin_nombre_6-12);}.cls-110{fill:url(#Degradado_sin_nombre_41-5);}.cls-111{fill:url(#Degradado_sin_nombre_41-6);}.cls-112{fill:url(#Degradado_sin_nombre_41-7);}.cls-113{fill:url(#Degradado_sin_nombre_41-8);}.cls-114{fill:url(#Degradado_sin_nombre_61);}.cls-115{fill:url(#Degradado_sin_nombre_4-4);}.cls-116{fill:url(#Degradado_sin_nombre_5-4);}.cls-117{fill:url(#Degradado_sin_nombre_61-2);}.cls-118{fill:url(#Degradado_sin_nombre_6-13);}.cls-119{fill:url(#Degradado_sin_nombre_6-14);}.cls-120{fill:url(#Degradado_sin_nombre_6-15);}.cls-121{fill:url(#Degradado_sin_nombre_6-16);}.cls-122{fill:url(#Degradado_sin_nombre_89);}.cls-123{fill:url(#Degradado_sin_nombre_12);}.cls-124{fill:url(#Degradado_sin_nombre_11);}.cls-125{fill:#fff;}.cls-126{fill:url(#Degradado_sin_nombre_89-2);}.cls-127{fill:url(#Degradado_sin_nombre_10);}.cls-128{fill:url(#Degradado_sin_nombre_9);}.cls-129{fill:url(#Degradado_sin_nombre_89-3);}.cls-130{fill:url(#Degradado_sin_nombre_8);}.cls-131{fill:url(#Degradado_sin_nombre_7);}.cls-132{fill:url(#Degradado_sin_nombre_89-4);}.cls-133{fill:url(#Degradado_sin_nombre_8-2);}.cls-134{fill:url(#Degradado_sin_nombre_7-2);}.cls-135{fill:url(#Degradado_sin_nombre_89-5);}.cls-136{fill:url(#Degradado_sin_nombre_10-2);}.cls-137{fill:url(#Degradado_sin_nombre_9-2);}.cls-138,.cls-149{stroke-width:0.26px;}.cls-138{stroke:url(#Degradado_sin_nombre_3);}.cls-139{stroke-width:0.51px;stroke:url(#Degradado_sin_nombre_3-2);}.cls-140{opacity:0.25;fill:url(#Degradado_sin_nombre_64);}.cls-141{fill:url(#Degradado_sin_nombre_19);}.cls-142{fill:url(#Degradado_sin_nombre_64-2);}.cls-143{fill:url(#Degradado_sin_nombre_23);}.cls-144{fill:url(#Degradado_sin_nombre_21);}.cls-145,.cls-187{opacity:0.4;}.cls-145{fill:url(#Degradado_sin_nombre_64-3);}.cls-146{fill:url(#Degradado_sin_nombre_28);}.cls-147{fill:url(#Degradado_sin_nombre_20);}.cls-148{fill:url(#Degradado_sin_nombre_19-2);}.cls-149{stroke:#3fdcda;}.cls-150{fill:url(#Degradado_sin_nombre_70);}.cls-151{fill:url(#Degradado_sin_nombre_71);}.cls-152{fill:url(#Degradado_sin_nombre_3-3);}.cls-153{fill:url(#Degradado_sin_nombre_19-3);}.cls-154{fill:url(#Degradado_sin_nombre_18);}.cls-155{fill:url(#Degradado_sin_nombre_17);}.cls-156{fill:#e1e1e1;}.cls-157{fill:url(#Degradado_sin_nombre_15);}.cls-158{fill:url(#Degradado_sin_nombre_15-2);}.cls-159{fill:url(#Degradado_sin_nombre_59);}.cls-160{fill:url(#Degradado_sin_nombre_16);}.cls-161{fill:url(#Degradado_sin_nombre_59-2);}.cls-162{fill:url(#Degradado_sin_nombre_16-2);}.cls-163{fill:url(#Degradado_sin_nombre_59-3);}.cls-164{fill:url(#Degradado_sin_nombre_59-4);}.cls-165{fill:url(#Degradado_sin_nombre_59-5);}.cls-166{fill:url(#Degradado_sin_nombre_16-3);}.cls-167{fill:url(#Degradado_sin_nombre_59-6);}.cls-168{fill:url(#Degradado_sin_nombre_15-3);}.cls-169{fill:url(#Degradado_sin_nombre_15-4);}.cls-170{fill:url(#Degradado_sin_nombre_15-5);}.cls-171{fill:url(#Degradado_sin_nombre_85);}.cls-172{fill:url(#Degradado_sin_nombre_85-2);}.cls-173{fill:#fbc39d;}.cls-174{fill:url(#Degradado_sin_nombre_14);}.cls-175{fill:url(#Degradado_sin_nombre_14-2);}.cls-176{fill:url(#Degradado_sin_nombre_53);}.cls-177{fill:url(#Degradado_sin_nombre_88);}.cls-178{fill:url(#Degradado_sin_nombre_14-3);}.cls-179{fill:url(#Degradado_sin_nombre_3-4);}.cls-180{fill:url(#Degradado_sin_nombre_3-5);}.cls-181{fill:url(#Degradado_sin_nombre_79);}.cls-182{fill:url(#Degradado_sin_nombre_72);}.cls-183{fill:url(#Degradado_sin_nombre_59-7);}.cls-184,.cls-185,.cls-186,.cls-187,.cls-188,.cls-189{stroke:#fff;stroke-width:0.19px;}.cls-185{opacity:0.8;}.cls-186{opacity:0.6;}.cls-189{opacity:0.05;}.cls-190{fill:url(#Degradado_sin_nombre_59-8);}.cls-191{fill:url(#Degradado_sin_nombre_79-2);}.cls-192{fill:url(#Degradado_sin_nombre_72-2);}.cls-193{fill:url(#Degradado_sin_nombre_59-9);}.cls-194{fill:url(#Degradado_sin_nombre_59-10);}.cls-195{fill:url(#Degradado_sin_nombre_79-3);}.cls-196{fill:url(#Degradado_sin_nombre_72-3);}.cls-197{fill:url(#Degradado_sin_nombre_59-11);}.cls-198{fill:url(#Degradado_sin_nombre_59-12);}.cls-199{fill:url(#Degradado_sin_nombre_79-4);}.cls-200{fill:url(#Degradado_sin_nombre_72-4);}.cls-201{fill:url(#Degradado_sin_nombre_59-13);}.cls-202{fill:url(#Degradado_sin_nombre_59-14);}.cls-203{fill:url(#Degradado_sin_nombre_79-5);}.cls-204{fill:url(#Degradado_sin_nombre_72-5);}.cls-205{fill:url(#Degradado_sin_nombre_59-15);}.cls-206{fill:url(#Degradado_sin_nombre_59-16);}</style><linearGradient id="linear-gradient" x1="642.8" y1="-98.98" x2="642.8" y2="348.53" gradientUnits="userSpaceOnUse"><stop offset="0.11" stop-color="#563886"/><stop offset="0.26" stop-color="#4a3178"/><stop offset="0.74" stop-color="#271e4f"/><stop offset="0.98" stop-color="#1a163f"/></linearGradient><linearGradient id="Degradado_sin_nombre_93" x1="671.58" y1="271.57" x2="918.75" y2="271.57" gradientUnits="userSpaceOnUse"><stop offset="0" stop-color="#372c91"/><stop offset="1" stop-color="#282083"/></linearGradient><linearGradient id="Degradado_sin_nombre_101" x1="694.77" y1="286.65" x2="777.16" y2="143.94" gradientUnits="userSpaceOnUse"><stop offset="0" stop-color="#4a35ab" stop-opacity="0"/><stop offset="0.53" stop-color="#4a35ab"/><stop offset="1" stop-color="#4a35ab" stop-opacity="0"/></linearGradient><linearGradient id="Degradado_sin_nombre_101-2" x1="704.12" y1="292.87" x2="786.51" y2="150.16" xlink:href="#Degradado_sin_nombre_101"/><linearGradient id="Degradado_sin_nombre_101-3" x1="713.47" y1="299.09" x2="795.86" y2="156.39" xlink:href="#Degradado_sin_nombre_101"/><linearGradient id="Degradado_sin_nombre_101-4" x1="722.81" y1="305.32" x2="805.21" y2="162.61" xlink:href="#Degradado_sin_nombre_101"/><linearGradient id="Degradado_sin_nombre_101-5" x1="732.16" y1="311.54" x2="814.56" y2="168.83" xlink:href="#Degradado_sin_nombre_101"/><linearGradient id="Degradado_sin_nombre_101-6" x1="741.51" y1="317.77" x2="823.91" y2="175.06" xlink:href="#Degradado_sin_nombre_101"/><linearGradient id="Degradado_sin_nombre_101-7" x1="750.86" y1="323.99" x2="833.25" y2="181.28" xlink:href="#Degradado_sin_nombre_101"/><linearGradient id="Degradado_sin_nombre_101-8" x1="760.21" y1="330.21" x2="842.6" y2="187.51" xlink:href="#Degradado_sin_nombre_101"/><linearGradient id="Degradado_sin_nombre_101-9" x1="769.56" y1="336.44" x2="851.95" y2="193.73" xlink:href="#Degradado_sin_nombre_101"/><linearGradient id="Degradado_sin_nombre_101-10" x1="778.91" y1="342.66" x2="861.3" y2="199.95" xlink:href="#Degradado_sin_nombre_101"/><linearGradient id="Degradado_sin_nombre_101-11" x1="788.26" y1="348.89" x2="870.65" y2="206.18" xlink:href="#Degradado_sin_nombre_101"/><linearGradient id="Degradado_sin_nombre_101-12" x1="797.61" y1="355.11" x2="880" y2="212.4" xlink:href="#Degradado_sin_nombre_101"/><linearGradient id="Degradado_sin_nombre_101-13" x1="806.96" y1="361.33" x2="889.35" y2="218.63" xlink:href="#Degradado_sin_nombre_101"/><linearGradient id="Degradado_sin_nombre_101-14" x1="816.3" y1="367.56" x2="898.7" y2="224.85" xlink:href="#Degradado_sin_nombre_101"/><linearGradient id="Degradado_sin_nombre_101-15" x1="692.87" y1="234.46" x2="771.06" y2="369.89" xlink:href="#Degradado_sin_nombre_101"/><linearGradient id="Degradado_sin_nombre_101-16" x1="702.22" y1="228.28" x2="780.41" y2="363.71" xlink:href="#Degradado_sin_nombre_101"/><linearGradient id="Degradado_sin_nombre_101-17" x1="711.57" y1="222.1" x2="789.76" y2="357.53" xlink:href="#Degradado_sin_nombre_101"/><linearGradient id="Degradado_sin_nombre_101-18" x1="720.92" y1="215.92" x2="799.11" y2="351.35" xlink:href="#Degradado_sin_nombre_101"/><linearGradient id="Degradado_sin_nombre_101-19" x1="730.26" y1="209.74" x2="808.45" y2="345.17" xlink:href="#Degradado_sin_nombre_101"/><linearGradient id="Degradado_sin_nombre_101-20" x1="739.61" y1="203.56" x2="817.8" y2="338.99" xlink:href="#Degradado_sin_nombre_101"/><linearGradient id="Degradado_sin_nombre_101-21" x1="748.96" y1="197.37" x2="827.15" y2="332.8" xlink:href="#Degradado_sin_nombre_101"/><linearGradient id="Degradado_sin_nombre_101-22" x1="758.31" y1="191.19" x2="836.5" y2="326.62" xlink:href="#Degradado_sin_nombre_101"/><linearGradient id="Degradado_sin_nombre_101-23" x1="767.66" y1="185.01" x2="845.85" y2="320.44" xlink:href="#Degradado_sin_nombre_101"/><linearGradient id="Degradado_sin_nombre_101-24" x1="777.01" y1="178.83" x2="855.2" y2="314.26" xlink:href="#Degradado_sin_nombre_101"/><linearGradient id="Degradado_sin_nombre_101-25" x1="786.36" y1="172.65" x2="864.55" y2="308.08" xlink:href="#Degradado_sin_nombre_101"/><linearGradient id="Degradado_sin_nombre_101-26" x1="795.71" y1="166.47" x2="873.9" y2="301.9" xlink:href="#Degradado_sin_nombre_101"/><linearGradient id="Degradado_sin_nombre_101-27" x1="805.06" y1="160.29" x2="883.25" y2="295.72" xlink:href="#Degradado_sin_nombre_101"/><linearGradient id="Degradado_sin_nombre_101-28" x1="814.4" y1="154.11" x2="892.6" y2="289.54" xlink:href="#Degradado_sin_nombre_101"/><linearGradient id="Degradado_sin_nombre_101-29" x1="823.75" y1="147.92" x2="901.94" y2="283.35" xlink:href="#Degradado_sin_nombre_101"/><linearGradient id="Degradado_sin_nombre_22" x1="760.35" y1="247.77" x2="788.21" y2="247.77" gradientUnits="userSpaceOnUse"><stop offset="0" stop-color="#9628da"/><stop offset="0.49" stop-color="#46e0ff"/><stop offset="1" stop-color="#9628da"/></linearGradient><linearGradient id="Degradado_sin_nombre_26" x1="764.73" y1="235.48" x2="780.06" y2="262.03" gradientUnits="userSpaceOnUse"><stop offset="0" stop-color="#9628da"/><stop offset="0.51" stop-color="#46e0ff"/><stop offset="1" stop-color="#9628da"/></linearGradient><linearGradient id="Degradado_sin_nombre_50" x1="774.9" y1="261.44" x2="788.21" y2="261.44" gradientUnits="userSpaceOnUse"><stop offset="0" stop-color="#9628da"/><stop offset="1" stop-color="#46e0ff"/></linearGradient><linearGradient id="Degradado_sin_nombre_22-2" x1="733.37" y1="256.98" x2="797.07" y2="146.66" xlink:href="#Degradado_sin_nombre_22"/><linearGradient id="Degradado_sin_nombre_2" x1="728.6" y1="235.67" x2="801.82" y2="235.67" gradientUnits="userSpaceOnUse"><stop offset="0" stop-color="#46e0ff"/><stop offset="1" stop-color="#9628da"/></linearGradient><linearGradient id="Degradado_sin_nombre_4" x1="728.6" y1="201.5" x2="801.82" y2="201.5" gradientUnits="userSpaceOnUse"><stop offset="0" stop-color="#1a64a7"/><stop offset="1" stop-color="#640ca1"/></linearGradient><linearGradient id="Degradado_sin_nombre_5" x1="731.08" y1="200.67" x2="799.69" y2="200.67" gradientUnits="userSpaceOnUse"><stop offset="0" stop-color="#342da1"/><stop offset="1" stop-color="#1a165a"/></linearGradient><linearGradient id="Degradado_sin_nombre_13" x1="735.26" y1="182.83" x2="795.16" y2="182.83" gradientUnits="userSpaceOnUse"><stop offset="0" stop-color="#fde2e3"/><stop offset="1" stop-color="#e74679"/></linearGradient><linearGradient id="Degradado_sin_nombre_13-2" x1="735.26" y1="222.71" x2="795.16" y2="222.71" xlink:href="#Degradado_sin_nombre_13"/><linearGradient id="Degradado_sin_nombre_13-3" x1="735.26" y1="211.05" x2="761.88" y2="211.05" xlink:href="#Degradado_sin_nombre_13"/><linearGradient id="Degradado_sin_nombre_13-4" x1="768.54" y1="188.9" x2="795.16" y2="188.9" xlink:href="#Degradado_sin_nombre_13"/><linearGradient id="Degradado_sin_nombre_41" x1="744.78" y1="224.52" x2="748.92" y2="228.66" gradientUnits="userSpaceOnUse"><stop offset="0" stop-color="#fb79c4"/><stop offset="0.17" stop-color="#ec70c8"/><stop offset="0.5" stop-color="#c358d3"/><stop offset="0.96" stop-color="#8233e5"/><stop offset="1" stop-color="#7c2fe7"/></linearGradient><linearGradient id="Degradado_sin_nombre_41-2" x1="758.28" y1="215.55" x2="762.42" y2="219.7" xlink:href="#Degradado_sin_nombre_41"/><linearGradient id="Degradado_sin_nombre_41-3" x1="771.71" y1="206.58" x2="775.85" y2="210.72" xlink:href="#Degradado_sin_nombre_41"/><linearGradient id="Degradado_sin_nombre_41-4" x1="785.14" y1="197.64" x2="789.28" y2="201.78" xlink:href="#Degradado_sin_nombre_41"/><linearGradient id="Degradado_sin_nombre_2-2" x1="793" y1="252.28" x2="886.18" y2="252.28" xlink:href="#Degradado_sin_nombre_2"/><linearGradient id="Degradado_sin_nombre_50-2" x1="793" y1="270.98" x2="832.93" y2="270.98" xlink:href="#Degradado_sin_nombre_50"/><linearGradient id="Degradado_sin_nombre_50-3" x1="832.93" y1="266.54" x2="886.18" y2="266.54" xlink:href="#Degradado_sin_nombre_50"/><linearGradient id="Degradado_sin_nombre_4-2" x1="794.12" y1="214.6" x2="847.37" y2="214.6" xlink:href="#Degradado_sin_nombre_4"/><linearGradient id="Degradado_sin_nombre_5-2" x1="796.28" y1="214.6" x2="845.2" y2="214.6" xlink:href="#Degradado_sin_nombre_5"/><linearGradient id="Degradado_sin_nombre_50-4" x1="793.56" y1="257.46" x2="793.56" y2="206.43" xlink:href="#Degradado_sin_nombre_50"/><linearGradient id="Degradado_sin_nombre_51" x1="793" y1="189.08" x2="847.37" y2="189.08" gradientUnits="userSpaceOnUse"><stop offset="0" stop-color="#ba5fff"/><stop offset="1" stop-color="#46e0ff"/></linearGradient><linearGradient id="Degradado_sin_nombre_54" x1="844.68" y1="230.28" x2="850.22" y2="230.28" gradientUnits="userSpaceOnUse"><stop offset="0" stop-color="#342da1"/><stop offset="1" stop-color="#322c9e"/></linearGradient><linearGradient id="Degradado_sin_nombre_54-2" x1="838.99" y1="234.06" x2="844.54" y2="234.06" xlink:href="#Degradado_sin_nombre_54"/><linearGradient id="Degradado_sin_nombre_54-3" x1="833.31" y1="237.84" x2="838.85" y2="237.84" xlink:href="#Degradado_sin_nombre_54"/><linearGradient id="Degradado_sin_nombre_54-4" x1="827.63" y1="241.61" x2="833.17" y2="241.61" xlink:href="#Degradado_sin_nombre_54"/><linearGradient id="Degradado_sin_nombre_54-5" x1="821.95" y1="245.39" x2="827.49" y2="245.39" xlink:href="#Degradado_sin_nombre_54"/><linearGradient id="Degradado_sin_nombre_54-6" x1="816.27" y1="249.17" x2="821.81" y2="249.17" xlink:href="#Degradado_sin_nombre_54"/><linearGradient id="Degradado_sin_nombre_54-7" x1="810.58" y1="252.95" x2="816.12" y2="252.95" xlink:href="#Degradado_sin_nombre_54"/><linearGradient id="Degradado_sin_nombre_54-8" x1="804.9" y1="256.73" x2="810.44" y2="256.73" xlink:href="#Degradado_sin_nombre_54"/><linearGradient id="Degradado_sin_nombre_54-9" x1="846.97" y1="232.45" x2="854.43" y2="232.45" xlink:href="#Degradado_sin_nombre_54"/><linearGradient id="Degradado_sin_nombre_54-10" x1="841.29" y1="236.23" x2="848.75" y2="236.23" xlink:href="#Degradado_sin_nombre_54"/><linearGradient id="Degradado_sin_nombre_54-11" x1="835.61" y1="240.01" x2="843.07" y2="240.01" xlink:href="#Degradado_sin_nombre_54"/><linearGradient id="Degradado_sin_nombre_54-12" x1="829.92" y1="243.79" x2="837.38" y2="243.79" xlink:href="#Degradado_sin_nombre_54"/><linearGradient id="Degradado_sin_nombre_54-13" x1="824.24" y1="247.57" x2="831.7" y2="247.57" xlink:href="#Degradado_sin_nombre_54"/><linearGradient id="Degradado_sin_nombre_54-14" x1="818.56" y1="251.34" x2="826.02" y2="251.34" xlink:href="#Degradado_sin_nombre_54"/><linearGradient id="Degradado_sin_nombre_54-15" x1="812.88" y1="255.12" x2="820.34" y2="255.12" xlink:href="#Degradado_sin_nombre_54"/><linearGradient id="Degradado_sin_nombre_54-16" x1="807.2" y1="258.9" x2="814.65" y2="258.9" xlink:href="#Degradado_sin_nombre_54"/><linearGradient id="Degradado_sin_nombre_54-17" x1="851.71" y1="235.62" x2="859.17" y2="235.62" xlink:href="#Degradado_sin_nombre_54"/><linearGradient id="Degradado_sin_nombre_54-18" x1="846.03" y1="239.4" x2="853.49" y2="239.4" xlink:href="#Degradado_sin_nombre_54"/><linearGradient id="Degradado_sin_nombre_54-19" x1="840.35" y1="243.18" x2="847.81" y2="243.18" xlink:href="#Degradado_sin_nombre_54"/><linearGradient id="Degradado_sin_nombre_54-20" x1="834.67" y1="246.95" x2="842.13" y2="246.95" xlink:href="#Degradado_sin_nombre_54"/><linearGradient id="Degradado_sin_nombre_54-21" x1="828.99" y1="250.73" x2="836.44" y2="250.73" xlink:href="#Degradado_sin_nombre_54"/><linearGradient id="Degradado_sin_nombre_54-22" x1="823.3" y1="254.51" x2="830.76" y2="254.51" xlink:href="#Degradado_sin_nombre_54"/><linearGradient id="Degradado_sin_nombre_54-23" x1="817.62" y1="258.29" x2="825.08" y2="258.29" xlink:href="#Degradado_sin_nombre_54"/><linearGradient id="Degradado_sin_nombre_54-24" x1="811.94" y1="262.07" x2="819.4" y2="262.07" xlink:href="#Degradado_sin_nombre_54"/><linearGradient id="Degradado_sin_nombre_54-25" x1="856.46" y1="238.79" x2="863.92" y2="238.79" xlink:href="#Degradado_sin_nombre_54"/><linearGradient id="Degradado_sin_nombre_54-26" x1="850.77" y1="242.56" x2="858.23" y2="242.56" xlink:href="#Degradado_sin_nombre_54"/><linearGradient id="Degradado_sin_nombre_54-27" x1="845.09" y1="246.34" x2="852.55" y2="246.34" xlink:href="#Degradado_sin_nombre_54"/><linearGradient id="Degradado_sin_nombre_54-28" x1="839.41" y1="250.12" x2="846.87" y2="250.12" xlink:href="#Degradado_sin_nombre_54"/><linearGradient id="Degradado_sin_nombre_54-29" x1="833.73" y1="253.9" x2="841.19" y2="253.9" xlink:href="#Degradado_sin_nombre_54"/><linearGradient id="Degradado_sin_nombre_54-30" x1="828.05" y1="257.68" x2="835.5" y2="257.68" xlink:href="#Degradado_sin_nombre_54"/><linearGradient id="Degradado_sin_nombre_54-31" x1="822.36" y1="261.46" x2="829.82" y2="261.46" xlink:href="#Degradado_sin_nombre_54"/><linearGradient id="Degradado_sin_nombre_54-32" x1="816.68" y1="265.24" x2="824.14" y2="265.24" xlink:href="#Degradado_sin_nombre_54"/><linearGradient id="Degradado_sin_nombre_54-33" x1="861.2" y1="241.95" x2="868.66" y2="241.95" xlink:href="#Degradado_sin_nombre_54"/><linearGradient id="Degradado_sin_nombre_54-34" x1="832.79" y1="253.29" x2="862.98" y2="253.29" xlink:href="#Degradado_sin_nombre_54"/><linearGradient id="Degradado_sin_nombre_54-35" x1="843.07" y1="259.58" x2="867.59" y2="259.58" xlink:href="#Degradado_sin_nombre_54"/><linearGradient id="Degradado_sin_nombre_54-36" x1="827.11" y1="264.62" x2="834.57" y2="264.62" xlink:href="#Degradado_sin_nombre_54"/><linearGradient id="Degradado_sin_nombre_54-37" x1="821.42" y1="268.4" x2="828.88" y2="268.4" xlink:href="#Degradado_sin_nombre_54"/><linearGradient id="Degradado_sin_nombre_6" x1="798.36" y1="200.53" x2="843.11" y2="200.53" gradientUnits="userSpaceOnUse"><stop offset="0" stop-color="#ea70ff"/><stop offset="1" stop-color="#e74679"/></linearGradient><linearGradient id="Degradado_sin_nombre_6-2" x1="798.36" y1="230.32" x2="843.11" y2="230.32" xlink:href="#Degradado_sin_nombre_6"/><linearGradient id="Degradado_sin_nombre_6-3" x1="798.36" y1="221.61" x2="818.25" y2="221.61" xlink:href="#Degradado_sin_nombre_6"/><linearGradient id="Degradado_sin_nombre_6-4" x1="823.22" y1="205.06" x2="843.11" y2="205.06" xlink:href="#Degradado_sin_nombre_6"/><linearGradient id="Degradado_sin_nombre_6-5" x1="804.8" y1="233.21" x2="809.25" y2="233.21" xlink:href="#Degradado_sin_nombre_6"/><linearGradient id="Degradado_sin_nombre_6-6" x1="814.88" y1="226.52" x2="819.33" y2="226.52" xlink:href="#Degradado_sin_nombre_6"/><linearGradient id="Degradado_sin_nombre_6-7" x1="824.91" y1="219.81" x2="829.36" y2="219.81" xlink:href="#Degradado_sin_nombre_6"/><linearGradient id="Degradado_sin_nombre_6-8" x1="834.95" y1="213.13" x2="839.39" y2="213.13" xlink:href="#Degradado_sin_nombre_6"/><linearGradient id="Degradado_sin_nombre_47" x1="710.2" y1="306.91" x2="746.64" y2="243.79" gradientUnits="userSpaceOnUse"><stop offset="0" stop-color="#9628da"/><stop offset="0.54" stop-color="#46e0ff"/><stop offset="1" stop-color="#9628da"/></linearGradient><linearGradient id="Degradado_sin_nombre_4-3" x1="729.29" y1="310.11" x2="729.29" y2="241.58" xlink:href="#Degradado_sin_nombre_4"/><linearGradient id="Degradado_sin_nombre_5-3" x1="717.01" y1="275.62" x2="741.89" y2="275.62" xlink:href="#Degradado_sin_nombre_5"/><linearGradient id="Degradado_sin_nombre_6-9" x1="718.69" y1="258.18" x2="741.06" y2="258.18" xlink:href="#Degradado_sin_nombre_6"/><linearGradient id="Degradado_sin_nombre_6-10" x1="718.69" y1="291.69" x2="741.06" y2="291.69" xlink:href="#Degradado_sin_nombre_6"/><linearGradient id="Degradado_sin_nombre_6-11" x1="718.69" y1="270.48" x2="728.68" y2="270.48" xlink:href="#Degradado_sin_nombre_6"/><linearGradient id="Degradado_sin_nombre_6-12" x1="731.08" y1="262.45" x2="741.06" y2="262.45" xlink:href="#Degradado_sin_nombre_6"/><linearGradient id="Degradado_sin_nombre_41-5" x1="723.12" y1="279.55" x2="727.64" y2="279.55" xlink:href="#Degradado_sin_nombre_41"/><linearGradient id="Degradado_sin_nombre_41-6" x1="733.35" y1="272.76" x2="737.87" y2="272.76" xlink:href="#Degradado_sin_nombre_41"/><linearGradient id="Degradado_sin_nombre_41-7" x1="723.12" y1="288.22" x2="727.64" y2="288.22" xlink:href="#Degradado_sin_nombre_41"/><linearGradient id="Degradado_sin_nombre_41-8" x1="733.35" y1="281.43" x2="737.87" y2="281.43" xlink:href="#Degradado_sin_nombre_41"/><linearGradient id="Degradado_sin_nombre_61" x1="745.97" y1="299.79" x2="768.72" y2="260.39" gradientUnits="userSpaceOnUse"><stop offset="0" stop-color="#9628da"/><stop offset="0.81" stop-color="#46e0ff"/><stop offset="1" stop-color="#9628da"/></linearGradient><linearGradient id="Degradado_sin_nombre_4-4" x1="751.96" y1="281.21" x2="766.4" y2="281.21" xlink:href="#Degradado_sin_nombre_4"/><linearGradient id="Degradado_sin_nombre_5-4" x1="752.75" y1="280.22" x2="765.61" y2="280.22" xlink:href="#Degradado_sin_nombre_5"/><linearGradient id="Degradado_sin_nombre_61-2" x1="759.52" y1="297.52" x2="760.71" y2="297.52" xlink:href="#Degradado_sin_nombre_61"/><linearGradient id="Degradado_sin_nombre_6-13" x1="753.21" y1="267.05" x2="765.21" y2="267.05" xlink:href="#Degradado_sin_nombre_6"/><linearGradient id="Degradado_sin_nombre_6-14" x1="753.21" y1="273.18" x2="765.21" y2="273.18" xlink:href="#Degradado_sin_nombre_6"/><linearGradient id="Degradado_sin_nombre_6-15" x1="753.21" y1="283.49" x2="765.21" y2="283.49" xlink:href="#Degradado_sin_nombre_6"/><linearGradient id="Degradado_sin_nombre_6-16" x1="757.96" y1="291.5" x2="762.26" y2="291.5" xlink:href="#Degradado_sin_nombre_6"/><linearGradient id="Degradado_sin_nombre_89" x1="2756.96" y1="192.45" x2="2791.33" y2="132.92" gradientTransform="matrix(-1, 0, 0, 1, 3599.42, 0)" gradientUnits="userSpaceOnUse"><stop offset="0" stop-color="#fff" stop-opacity="0"/><stop offset="0.22" stop-color="#fff" stop-opacity="0.01"/><stop offset="0.35" stop-color="#fff" stop-opacity="0.04"/><stop offset="0.47" stop-color="#fff" stop-opacity="0.1"/><stop offset="0.57" stop-color="#fff" stop-opacity="0.18"/><stop offset="0.66" stop-color="#fff" stop-opacity="0.29"/><stop offset="0.75" stop-color="#fff" stop-opacity="0.42"/><stop offset="0.83" stop-color="#fff" stop-opacity="0.57"/><stop offset="0.91" stop-color="#fff" stop-opacity="0.75"/><stop offset="0.98" stop-color="#fff" stop-opacity="0.94"/><stop offset="1" stop-color="#fff"/></linearGradient><linearGradient id="Degradado_sin_nombre_12" x1="810.51" y1="130.97" x2="837.58" y2="130.97" gradientUnits="userSpaceOnUse"><stop offset="0" stop-color="#cf6319"/><stop offset="1" stop-color="#df5817"/></linearGradient><linearGradient id="Degradado_sin_nombre_11" x1="813.17" y1="132.23" x2="839.79" y2="132.23" gradientUnits="userSpaceOnUse"><stop offset="0" stop-color="#df8031"/><stop offset="1" stop-color="#e16923"/></linearGradient><linearGradient id="Degradado_sin_nombre_89-2" x1="2651.58" y1="217.12" x2="2685.96" y2="157.58" gradientTransform="matrix(-1, 0, 0, 1, 3404.15, 0)" xlink:href="#Degradado_sin_nombre_89"/><linearGradient id="Degradado_sin_nombre_10" x1="720.62" y1="150.69" x2="747.68" y2="150.69" gradientUnits="userSpaceOnUse"><stop offset="0" stop-color="#d130f6"/><stop offset="1" stop-color="#572399"/></linearGradient><linearGradient id="Degradado_sin_nombre_9" x1="723.28" y1="151.95" x2="749.9" y2="151.95" gradientUnits="userSpaceOnUse"><stop offset="0" stop-color="#e97fff"/><stop offset="1" stop-color="#7347a2"/></linearGradient><linearGradient id="Degradado_sin_nombre_89-3" x1="2685.38" y1="273.08" x2="2719.76" y2="213.54" gradientTransform="matrix(-1, 0, 0, 1, 3404.15, 0)" xlink:href="#Degradado_sin_nombre_89"/><linearGradient id="Degradado_sin_nombre_8" x1="686.5" y1="210.61" x2="713.56" y2="210.61" gradientUnits="userSpaceOnUse"><stop offset="0" stop-color="#ec9c2e"/><stop offset="1" stop-color="#d25a18"/></linearGradient><linearGradient id="Degradado_sin_nombre_7" x1="689.16" y1="211.87" x2="715.78" y2="211.87" gradientUnits="userSpaceOnUse"><stop offset="0" stop-color="#fad943"/><stop offset="1" stop-color="#fc8130"/></linearGradient><linearGradient id="Degradado_sin_nombre_89-4" x1="882.19" y1="269.19" x2="916.56" y2="209.65" gradientTransform="matrix(1, 0, 0, 1, 0, 0)" xlink:href="#Degradado_sin_nombre_89"/><linearGradient id="Degradado_sin_nombre_8-2" x1="887.07" y1="201.19" x2="914.13" y2="201.19" xlink:href="#Degradado_sin_nombre_8"/><linearGradient id="Degradado_sin_nombre_7-2" x1="884.85" y1="202.45" x2="911.48" y2="202.45" xlink:href="#Degradado_sin_nombre_7"/><linearGradient id="Degradado_sin_nombre_89-5" x1="855.57" y1="220.04" x2="889.94" y2="160.5" gradientTransform="matrix(1, 0, 0, 1, 0, 0)" xlink:href="#Degradado_sin_nombre_89"/><linearGradient id="Degradado_sin_nombre_10-2" x1="860.45" y1="153.92" x2="887.51" y2="153.92" xlink:href="#Degradado_sin_nombre_10"/><linearGradient id="Degradado_sin_nombre_9-2" x1="858.23" y1="155.18" x2="884.85" y2="155.18" xlink:href="#Degradado_sin_nombre_9"/><linearGradient id="Degradado_sin_nombre_3" x1="348.19" y1="275.69" x2="599.8" y2="275.69" gradientUnits="userSpaceOnUse"><stop offset="0" stop-color="#4941d7"/><stop offset="1" stop-color="#3fdcda"/></linearGradient><linearGradient id="Degradado_sin_nombre_3-2" x1="361.16" y1="275.69" x2="586.83" y2="275.69" xlink:href="#Degradado_sin_nombre_3"/><linearGradient id="Degradado_sin_nombre_64" x1="449.97" y1="259.8" x2="496.01" y2="339.53" gradientUnits="userSpaceOnUse"><stop offset="0" stop-color="#4941d7"/><stop offset="1" stop-color="#241e55"/></linearGradient><linearGradient id="Degradado_sin_nombre_19" x1="365.68" y1="271.02" x2="580.3" y2="271.02" gradientUnits="userSpaceOnUse"><stop offset="0" stop-color="#373391"/><stop offset="1" stop-color="#23205f"/></linearGradient><linearGradient id="Degradado_sin_nombre_64-2" x1="449.97" y1="231.15" x2="496.01" y2="310.88" xlink:href="#Degradado_sin_nombre_64"/><linearGradient id="Degradado_sin_nombre_23" x1="365.68" y1="312.09" x2="451.53" y2="312.09" gradientUnits="userSpaceOnUse"><stop offset="0" stop-color="#4a43d1"/><stop offset="1" stop-color="#23205f"/></linearGradient><linearGradient id="Degradado_sin_nombre_21" x1="451.53" y1="298.98" x2="580.3" y2="298.98" gradientUnits="userSpaceOnUse"><stop offset="0" stop-color="#292579"/><stop offset="1" stop-color="#4a43d1"/></linearGradient><linearGradient id="Degradado_sin_nombre_64-3" x1="487.44" y1="262.08" x2="554.91" y2="262.08" xlink:href="#Degradado_sin_nombre_64"/><linearGradient id="Degradado_sin_nombre_28" x1="481.4" y1="247.07" x2="512.69" y2="301.25" gradientUnits="userSpaceOnUse"><stop offset="0" stop-color="#3fdcda"/><stop offset="0.06" stop-color="#3fdcda" stop-opacity="0.82"/><stop offset="0.13" stop-color="#3fdcda" stop-opacity="0.63"/><stop offset="0.21" stop-color="#3fdcda" stop-opacity="0.46"/><stop offset="0.29" stop-color="#3fdcda" stop-opacity="0.32"/><stop offset="0.38" stop-color="#3fdcda" stop-opacity="0.2"/><stop offset="0.48" stop-color="#3fdcda" stop-opacity="0.11"/><stop offset="0.6" stop-color="#3fdcda" stop-opacity="0.05"/><stop offset="0.74" stop-color="#3fdcda" stop-opacity="0.01"/><stop offset="1" stop-color="#3fdcda" stop-opacity="0"/></linearGradient><linearGradient id="Degradado_sin_nombre_20" x1="405.69" y1="298.22" x2="506.08" y2="124.34" gradientUnits="userSpaceOnUse"><stop offset="0" stop-color="#4a43d1"/><stop offset="1" stop-color="#3c32d4"/></linearGradient><linearGradient id="Degradado_sin_nombre_19-2" x1="400.95" y1="212.58" x2="515.22" y2="212.58" xlink:href="#Degradado_sin_nombre_19"/><linearGradient id="Degradado_sin_nombre_70" x1="2748.51" y1="282.86" x2="2750.76" y2="286.75" gradientTransform="translate(2029.55 -2001.24) rotate(119.92)" gradientUnits="userSpaceOnUse"><stop offset="0" stop-color="#3fdcda"/><stop offset="0.01" stop-color="#3fdcda" stop-opacity="0.9"/><stop offset="0.03" stop-color="#3fdcda" stop-opacity="0.71"/><stop offset="0.06" stop-color="#3fdcda" stop-opacity="0.54"/><stop offset="0.09" stop-color="#3fdcda" stop-opacity="0.39"/><stop offset="0.12" stop-color="#3fdcda" stop-opacity="0.27"/><stop offset="0.16" stop-color="#3fdcda" stop-opacity="0.17"/><stop offset="0.2" stop-color="#3fdcda" stop-opacity="0.09"/><stop offset="0.25" stop-color="#3fdcda" stop-opacity="0.04"/><stop offset="0.33" stop-color="#3fdcda" stop-opacity="0.01"/><stop offset="0.53" stop-color="#3fdcda" stop-opacity="0"/></linearGradient><linearGradient id="Degradado_sin_nombre_71" x1="2642.94" y1="224.95" x2="2645.18" y2="228.84" gradientTransform="translate(2029.55 -2001.24) rotate(119.92)" gradientUnits="userSpaceOnUse"><stop offset="0.47" stop-color="#3fdcda" stop-opacity="0"/><stop offset="0.67" stop-color="#3fdcda" stop-opacity="0.01"/><stop offset="0.75" stop-color="#3fdcda" stop-opacity="0.04"/><stop offset="0.8" stop-color="#3fdcda" stop-opacity="0.09"/><stop offset="0.84" stop-color="#3fdcda" stop-opacity="0.17"/><stop offset="0.88" stop-color="#3fdcda" stop-opacity="0.27"/><stop offset="0.91" stop-color="#3fdcda" stop-opacity="0.39"/><stop offset="0.94" stop-color="#3fdcda" stop-opacity="0.54"/><stop offset="0.97" stop-color="#3fdcda" stop-opacity="0.71"/><stop offset="0.99" stop-color="#3fdcda" stop-opacity="0.9"/><stop offset="1" stop-color="#3fdcda"/></linearGradient><linearGradient id="Degradado_sin_nombre_3-3" x1="413.37" y1="208.72" x2="511.3" y2="208.72" xlink:href="#Degradado_sin_nombre_3"/><linearGradient id="Degradado_sin_nombre_19-3" x1="425.79" y1="207.12" x2="500.32" y2="207.12" xlink:href="#Degradado_sin_nombre_19"/><linearGradient id="Degradado_sin_nombre_18" x1="425.28" y1="269.33" x2="425.28" y2="189.8" gradientUnits="userSpaceOnUse"><stop offset="0" stop-color="#3f33ed"/><stop offset="1" stop-color="#6f68ff"/></linearGradient><linearGradient id="Degradado_sin_nombre_17" x1="424.77" y1="167.36" x2="500.32" y2="167.36" gradientUnits="userSpaceOnUse"><stop offset="0" stop-color="#625aff"/><stop offset="1" stop-color="#6698ff"/></linearGradient><linearGradient id="Degradado_sin_nombre_15" x1="480.44" y1="185.12" x2="502.8" y2="185.12" gradientUnits="userSpaceOnUse"><stop offset="0" stop-color="#9a04ff"/><stop offset="1" stop-color="#ed2c88"/></linearGradient><linearGradient id="Degradado_sin_nombre_15-2" x1="480.34" y1="202.57" x2="480.34" y2="181.19" xlink:href="#Degradado_sin_nombre_15"/><linearGradient id="Degradado_sin_nombre_59" x1="440.49" y1="194.92" x2="475.47" y2="194.92" gradientUnits="userSpaceOnUse"><stop offset="0" stop-color="#fb7439"/><stop offset="1" stop-color="#fdde98"/></linearGradient><linearGradient id="Degradado_sin_nombre_16" x1="440.7" y1="219.26" x2="475.47" y2="219.26" gradientUnits="userSpaceOnUse"><stop offset="0" stop-color="#fdb92a"/><stop offset="1" stop-color="#fb7439"/></linearGradient><linearGradient id="Degradado_sin_nombre_59-2" x1="440.59" y1="254.16" x2="440.59" y2="205.47" xlink:href="#Degradado_sin_nombre_59"/><linearGradient id="Degradado_sin_nombre_16-2" x1="444.53" y1="177.19" x2="506.63" y2="177.19" xlink:href="#Degradado_sin_nombre_16"/><linearGradient id="Degradado_sin_nombre_59-3" x1="444.42" y1="203.75" x2="444.42" y2="188.45" xlink:href="#Degradado_sin_nombre_59"/><linearGradient id="Degradado_sin_nombre_59-4" x1="444.32" y1="169.54" x2="506.63" y2="169.54" xlink:href="#Degradado_sin_nombre_59"/><linearGradient id="Degradado_sin_nombre_59-5" x1="440.49" y1="238.16" x2="502.8" y2="238.16" xlink:href="#Degradado_sin_nombre_59"/><linearGradient id="Degradado_sin_nombre_16-3" x1="440.7" y1="241.26" x2="502.8" y2="241.26" xlink:href="#Degradado_sin_nombre_16"/><linearGradient id="Degradado_sin_nombre_59-6" x1="440.59" y1="263.26" x2="440.59" y2="257.06" xlink:href="#Degradado_sin_nombre_59"/><linearGradient id="Degradado_sin_nombre_15-3" x1="480.44" y1="210.91" x2="502.8" y2="210.91" xlink:href="#Degradado_sin_nombre_15"/><linearGradient id="Degradado_sin_nombre_15-4" x1="480.34" y1="229.89" x2="480.34" y2="205.47" xlink:href="#Degradado_sin_nombre_15"/><linearGradient id="Degradado_sin_nombre_15-5" x1="480.23" y1="198.71" x2="502.8" y2="198.71" xlink:href="#Degradado_sin_nombre_15"/><linearGradient id="Degradado_sin_nombre_85" x1="485.89" y1="250.41" x2="494.17" y2="250.41" gradientUnits="userSpaceOnUse"><stop offset="0" stop-color="#c3531b"/><stop offset="0.1" stop-color="#a14622"/><stop offset="0.23" stop-color="#7a382b"/><stop offset="0.37" stop-color="#592b32"/><stop offset="0.52" stop-color="#3f2237"/><stop offset="0.67" stop-color="#2d1b3b"/><stop offset="0.82" stop-color="#22173d"/><stop offset="1" stop-color="#1f163e"/></linearGradient><linearGradient id="Degradado_sin_nombre_85-2" x1="493.23" y1="245.64" x2="501.52" y2="245.64" xlink:href="#Degradado_sin_nombre_85"/><linearGradient id="Degradado_sin_nombre_14" x1="498.59" y1="190.29" x2="501.87" y2="190.29" gradientUnits="userSpaceOnUse"><stop offset="0" stop-color="#463eda"/><stop offset="1" stop-color="#271d2c"/></linearGradient><linearGradient id="Degradado_sin_nombre_14-2" x1="489.15" y1="230.83" x2="502.22" y2="230.83" xlink:href="#Degradado_sin_nombre_14"/><linearGradient id="Degradado_sin_nombre_53" x1="487.95" y1="201.42" x2="501.76" y2="201.42" gradientUnits="userSpaceOnUse"><stop offset="0" stop-color="#fb7896"/><stop offset="1" stop-color="#ab2553"/></linearGradient><linearGradient id="Degradado_sin_nombre_88" x1="489.66" y1="179.52" x2="500.85" y2="179.52" gradientUnits="userSpaceOnUse"><stop offset="0" stop-color="#fc8130"/><stop offset="0.09" stop-color="#dc722c"/><stop offset="0.27" stop-color="#a55724"/><stop offset="0.44" stop-color="#77401d"/><stop offset="0.6" stop-color="#532f18"/><stop offset="0.75" stop-color="#392215"/><stop offset="0.89" stop-color="#291b13"/><stop offset="1" stop-color="#241812"/></linearGradient><linearGradient id="Degradado_sin_nombre_14-3" x1="484.08" y1="196.05" x2="491.93" y2="196.05" xlink:href="#Degradado_sin_nombre_14"/><linearGradient id="Degradado_sin_nombre_3-4" x1="405.21" y1="241.4" x2="410.3" y2="241.4" xlink:href="#Degradado_sin_nombre_3"/><linearGradient id="Degradado_sin_nombre_3-5" x1="513.49" y1="188.81" x2="513.49" y2="178.92" xlink:href="#Degradado_sin_nombre_3"/><linearGradient id="Degradado_sin_nombre_79" x1="3330.7" y1="164.21" x2="3356.81" y2="164.21" gradientTransform="matrix(-1, 0, 0, 1, 3900.76, 0)" gradientUnits="userSpaceOnUse"><stop offset="0" stop-color="#fff" stop-opacity="0"/><stop offset="0.37" stop-color="#fff" stop-opacity="0.01"/><stop offset="0.51" stop-color="#fff" stop-opacity="0.03"/><stop offset="0.6" stop-color="#fff" stop-opacity="0.08"/><stop offset="0.68" stop-color="#fff" stop-opacity="0.15"/><stop offset="0.75" stop-color="#fff" stop-opacity="0.23"/><stop offset="0.8" stop-color="#fff" stop-opacity="0.34"/><stop offset="0.86" stop-color="#fff" stop-opacity="0.47"/><stop offset="0.91" stop-color="#fff" stop-opacity="0.61"/><stop offset="0.95" stop-color="#fff" stop-opacity="0.78"/><stop offset="0.99" stop-color="#fff" stop-opacity="0.96"/><stop offset="1" stop-color="#fff"/></linearGradient><linearGradient id="Degradado_sin_nombre_72" x1="3356.81" y1="151.61" x2="3373.92" y2="151.61" gradientTransform="matrix(-1, 0, 0, 1, 3900.76, 0)" gradientUnits="userSpaceOnUse"><stop offset="0" stop-color="#4941d7"/><stop offset="1" stop-color="#ab36da"/></linearGradient><linearGradient id="Degradado_sin_nombre_59-7" x1="3356.24" y1="166.99" x2="3356.24" y2="145.86" gradientTransform="matrix(-1, 0, 0, 1, 3900.76, 0)" xlink:href="#Degradado_sin_nombre_59"/><linearGradient id="Degradado_sin_nombre_59-8" x1="3355.68" y1="141.05" x2="3373.92" y2="141.05" gradientTransform="matrix(-1, 0, 0, 1, 3900.76, 0)" xlink:href="#Degradado_sin_nombre_59"/><linearGradient id="Degradado_sin_nombre_79-2" x1="3330.7" y1="192.66" x2="3356.81" y2="192.66" xlink:href="#Degradado_sin_nombre_79"/><linearGradient id="Degradado_sin_nombre_72-2" x1="3356.81" y1="180.06" x2="3373.92" y2="180.06" xlink:href="#Degradado_sin_nombre_72"/><linearGradient id="Degradado_sin_nombre_59-9" x1="3356.24" y1="195.44" x2="3356.24" y2="174.31" gradientTransform="matrix(-1, 0, 0, 1, 3900.76, 0)" xlink:href="#Degradado_sin_nombre_59"/><linearGradient id="Degradado_sin_nombre_59-10" x1="3355.68" y1="169.5" x2="3373.92" y2="169.5" gradientTransform="matrix(-1, 0, 0, 1, 3900.76, 0)" xlink:href="#Degradado_sin_nombre_59"/><linearGradient id="Degradado_sin_nombre_79-3" x1="3301.75" y1="181.7" x2="3327.86" y2="181.7" xlink:href="#Degradado_sin_nombre_79"/><linearGradient id="Degradado_sin_nombre_72-3" x1="3327.86" y1="169.11" x2="3344.97" y2="169.11" xlink:href="#Degradado_sin_nombre_72"/><linearGradient id="Degradado_sin_nombre_59-11" x1="3327.29" y1="184.49" x2="3327.29" y2="163.36" gradientTransform="matrix(-1, 0, 0, 1, 3900.76, 0)" xlink:href="#Degradado_sin_nombre_59"/><linearGradient id="Degradado_sin_nombre_59-12" x1="3326.73" y1="158.55" x2="3344.97" y2="158.55" gradientTransform="matrix(-1, 0, 0, 1, 3900.76, 0)" xlink:href="#Degradado_sin_nombre_59"/><linearGradient id="Degradado_sin_nombre_79-4" x1="3301.75" y1="210.15" x2="3327.86" y2="210.15" xlink:href="#Degradado_sin_nombre_79"/><linearGradient id="Degradado_sin_nombre_72-4" x1="3327.86" y1="197.56" x2="3344.97" y2="197.56" xlink:href="#Degradado_sin_nombre_72"/><linearGradient id="Degradado_sin_nombre_59-13" x1="3327.29" y1="212.93" x2="3327.29" y2="191.81" gradientTransform="matrix(-1, 0, 0, 1, 3900.76, 0)" xlink:href="#Degradado_sin_nombre_59"/><linearGradient id="Degradado_sin_nombre_59-14" x1="3326.73" y1="187" x2="3344.97" y2="187" gradientTransform="matrix(-1, 0, 0, 1, 3900.76, 0)" xlink:href="#Degradado_sin_nombre_59"/><linearGradient id="Degradado_sin_nombre_79-5" x1="3330.7" y1="219.9" x2="3356.81" y2="219.9" xlink:href="#Degradado_sin_nombre_79"/><linearGradient id="Degradado_sin_nombre_72-5" x1="3356.81" y1="207.3" x2="3373.92" y2="207.3" xlink:href="#Degradado_sin_nombre_72"/><linearGradient id="Degradado_sin_nombre_59-15" x1="3356.24" y1="222.68" x2="3356.24" y2="201.55" gradientTransform="matrix(-1, 0, 0, 1, 3900.76, 0)" xlink:href="#Degradado_sin_nombre_59"/><linearGradient id="Degradado_sin_nombre_59-16" x1="3355.68" y1="196.74" x2="3373.92" y2="196.74" gradientTransform="matrix(-1, 0, 0, 1, 3900.76, 0)" xlink:href="#Degradado_sin_nombre_59"/></defs><title>bannnn</title><g class="cls-1"><g id="Layer_2" data-name="Layer 2"><g id="BACKGROUND"><rect class="cls-2" width="1285.6" height="406.03"/></g><g id="OBJECTS"><polygon class="cls-3" points="671.58 271.57 795.16 189.3 918.75 271.57 795.16 353.85 671.58 271.57"/><polygon class="cls-4" points="659.55 266.31 659.47 266.15 812.38 164.27 812.46 164.44 659.55 266.31"/><polygon class="cls-5" points="668.9 272.54 668.82 272.37 821.73 170.49 821.81 170.66 668.9 272.54"/><polygon class="cls-6" points="678.25 278.76 678.16 278.6 831.08 176.72 831.16 176.88 678.25 278.76"/><polygon class="cls-7" points="687.6 284.99 687.51 284.82 840.42 182.94 840.51 183.11 687.6 284.99"/><polygon class="cls-8" points="696.95 291.21 696.86 291.04 849.77 189.17 849.86 189.33 696.95 291.21"/><polygon class="cls-9" points="706.29 297.43 706.21 297.27 859.12 195.39 859.21 195.56 706.29 297.43"/><polygon class="cls-10" points="715.64 303.66 715.56 303.49 868.47 201.61 868.55 201.78 715.64 303.66"/><polygon class="cls-11" points="724.99 309.88 724.91 309.71 877.82 207.84 877.9 208 724.99 309.88"/><polygon class="cls-12" points="734.34 316.11 734.26 315.94 887.17 214.06 887.25 214.23 734.34 316.11"/><polygon class="cls-13" points="743.69 322.33 743.61 322.16 896.52 220.29 896.6 220.45 743.69 322.33"/><polygon class="cls-14" points="753.04 328.55 752.96 328.39 905.87 226.51 905.95 226.68 753.04 328.55"/><polygon class="cls-15" points="762.39 334.78 762.3 334.61 915.22 232.73 915.3 232.9 762.39 334.78"/><polygon class="cls-16" points="771.74 341 771.65 340.83 924.57 238.96 924.65 239.13 771.74 341"/><polygon class="cls-17" points="781.09 347.23 781 347.06 933.91 245.18 934 245.35 781.09 347.23"/><polygon class="cls-18" points="804.38 350.66 659.47 253.87 659.55 253.7 804.46 350.49 804.38 350.66"/><polygon class="cls-19" points="813.73 344.48 668.82 247.69 668.9 247.52 813.81 344.31 813.73 344.48"/><polygon class="cls-20" points="823.07 338.29 678.16 241.5 678.25 241.34 823.16 338.13 823.07 338.29"/><polygon class="cls-21" points="832.42 332.11 687.51 235.32 687.6 235.16 832.51 331.95 832.42 332.11"/><polygon class="cls-22" points="841.77 325.93 696.86 229.14 696.95 228.97 841.86 325.76 841.77 325.93"/><polygon class="cls-23" points="851.12 319.75 706.21 222.96 706.29 222.79 851.2 319.58 851.12 319.75"/><polygon class="cls-24" points="860.47 313.57 715.56 216.78 715.64 216.61 860.55 313.4 860.47 313.57"/><polygon class="cls-25" points="869.82 307.39 724.91 210.6 724.99 210.43 869.9 307.22 869.82 307.39"/><polygon class="cls-26" points="879.17 301.21 734.26 204.41 734.34 204.25 879.25 301.04 879.17 301.21"/><polygon class="cls-27" points="888.52 295.02 743.61 198.23 743.69 198.07 888.6 294.86 888.52 295.02"/><polygon class="cls-28" points="897.87 288.84 752.96 192.05 753.04 191.89 897.95 288.68 897.87 288.84"/><polygon class="cls-29" points="907.22 282.66 762.3 185.87 762.39 185.7 907.3 282.5 907.22 282.66"/><polygon class="cls-30" points="916.56 276.48 771.65 179.69 771.74 179.52 916.65 276.31 916.56 276.48"/><polygon class="cls-31" points="925.91 270.3 781 173.51 781.09 173.34 926 270.13 925.91 270.3"/><polygon class="cls-32" points="935.26 264.12 790.35 167.33 790.44 167.16 935.35 263.95 935.26 264.12"/><polyline class="cls-33" points="759.5 299.13 777.93 311.97 828.04 278.36"/><polyline class="cls-33" points="751.54 302.88 743.61 308.17 731.96 300.08"/><line class="cls-33" x1="781.89" y1="262.07" x2="816.94" y2="285.76"/><line class="cls-33" x1="742.89" y1="289.98" x2="783.76" y2="263.33"/><line class="cls-33" x1="765.61" y1="295.02" x2="798.33" y2="273.18"/><path class="cls-34" d="M788.21,257.88,779,251.75a9.82,9.82,0,0,1-4.11-8.2l-1.24-14.71-13.31,8.81V251.6a9.82,9.82,0,0,0,4.11,8.2l10.45,6.89Z"/><path class="cls-35" d="M788.21,256.19,779,250.06a9.82,9.82,0,0,1-4.11-8.2V229.6l-13.31,8.81v12.26a9.82,9.82,0,0,0,4.11,8.2L774.9,265Z"/><polygon class="cls-36" points="761.59 238.42 760.35 237.66 773.66 228.79 774.9 229.6 761.59 238.42"/><polygon class="cls-37" points="774.9 266.69 774.9 265 788.21 256.19 788.21 257.88 774.9 266.69"/><path class="cls-38" d="M738.59,252.57l-10,1.66-1.4-.95v10.11a1.55,1.55,0,0,0,.56,1.22h0l.06,0,.09.06,1.53,1,.55-.63-.12-.88L799.3,218a2.68,2.68,0,0,0,1.12-2.24v-3.24Z"/><path class="cls-39" d="M797.83,148.09l-69.25,46.1a3.27,3.27,0,0,0-1.37,2.73v56.35h0l1.4.95,10-1.66,61.84-40v-62.7a2.31,2.31,0,0,0-.06-.54l.31.14.22-.42-1.31-.88A1.52,1.52,0,0,0,797.83,148.09Z"/><path class="cls-40" d="M728.6,254.23l73.22-48.74v11.23A2.68,2.68,0,0,1,800.7,219l-70.13,46.69a1.32,1.32,0,0,1-2-1.31Z"/><path class="cls-41" d="M730,195.15,799.22,149c1.15-.77,2.6.19,2.6,1.73v54.71L728.6,254.23V197.88A3.27,3.27,0,0,1,730,195.15Z"/><polygon class="cls-42" points="731.09 197.02 799.69 151.44 799.69 204.32 731.09 249.9 731.09 197.02"/><polygon class="cls-43" points="735.26 198.34 795.16 158.46 795.16 167.32 735.26 207.21 735.26 198.34"/><polygon class="cls-44" points="735.26 240.44 795.16 200.56 795.16 204.99 735.26 244.87 735.26 240.44"/><polygon class="cls-45" points="735.26 211.63 761.88 193.91 761.88 210.71 735.26 228.19 735.26 211.63"/><polygon class="cls-46" points="768.54 189.47 795.16 171.76 795.16 188.55 768.54 206.03 768.54 189.47"/><path class="cls-47" d="M749,228.08c-1.12,2.17-3,3.27-4.21,2.44s-1.27-3.26-.16-5.43,3-3.27,4.21-2.44S750.15,225.91,749,228.08Z"/><path class="cls-48" d="M762.53,219.12c-1.12,2.17-3,3.27-4.21,2.44s-1.27-3.26-.16-5.43,3-3.27,4.21-2.44S763.65,216.94,762.53,219.12Z"/><path class="cls-49" d="M776,210.14c-1.12,2.17-3,3.27-4.21,2.44s-1.27-3.26-.16-5.43,3-3.27,4.21-2.44S777.08,208,776,210.14Z"/><path class="cls-50" d="M789.39,201.2c-1.12,2.17-3,3.27-4.21,2.44s-1.27-3.26-.16-5.43,3-3.27,4.21-2.44S790.51,199,789.39,201.2Z"/><polygon class="cls-51" points="793 256.72 832.93 283.3 886.18 247.85 846.25 221.27 793 256.72"/><polygon class="cls-52" points="793 256.72 793 258.65 832.93 285.23 832.93 283.3 793 256.72"/><polygon class="cls-53" points="832.93 283.3 886.18 247.85 886.18 249.78 832.93 285.23 832.93 283.3"/><polygon class="cls-54" points="794.12 257.46 794.12 207.18 847.37 171.73 847.37 222.01 794.12 257.46"/><polygon class="cls-55" points="796.28 253.98 796.28 207.78 845.2 175.22 845.2 221.41 796.28 253.98"/><polygon class="cls-56" points="794.12 257.46 793 256.72 793 206.43 794.12 207.18 794.12 257.46"/><polygon class="cls-57" points="793 206.43 846.25 170.98 847.37 171.73 794.12 207.18 793 206.43"/><polygon class="cls-58" points="846 232.12 850.22 229.31 848.9 228.43 844.68 231.24 846 232.12"/><polygon class="cls-59" points="840.31 235.9 844.53 233.09 843.22 232.21 839 235.02 840.31 235.9"/><polygon class="cls-60" points="834.63 239.68 838.85 236.87 837.53 235.99 833.31 238.8 834.63 239.68"/><polygon class="cls-61" points="828.95 243.46 833.17 240.65 831.85 239.77 827.63 242.58 828.95 243.46"/><polygon class="cls-62" points="823.27 247.24 827.49 244.43 826.17 243.55 821.95 246.35 823.27 247.24"/><polygon class="cls-63" points="817.58 251.01 821.81 248.21 820.49 247.33 816.27 250.13 817.58 251.01"/><polygon class="cls-64" points="811.9 254.79 816.12 251.99 814.8 251.1 810.58 253.91 811.9 254.79"/><polygon class="cls-65" points="806.22 258.57 810.44 255.76 809.12 254.88 804.9 257.69 806.22 258.57"/><polygon class="cls-66" points="850.21 234.94 854.43 232.13 851.19 229.97 846.97 232.77 850.21 234.94"/><polygon class="cls-67" points="844.53 238.71 848.75 235.91 845.51 233.75 841.29 236.55 844.53 238.71"/><polygon class="cls-68" points="838.85 242.49 843.07 239.69 839.83 237.52 835.61 240.33 838.85 242.49"/><polygon class="cls-69" points="833.16 246.27 837.38 243.46 834.15 241.3 829.92 244.11 833.16 246.27"/><polygon class="cls-70" points="827.48 250.05 831.7 247.24 828.46 245.08 824.24 247.89 827.48 250.05"/><polygon class="cls-71" points="821.8 253.83 826.02 251.02 822.78 248.86 818.56 251.67 821.8 253.83"/><polygon class="cls-72" points="816.12 257.61 820.34 254.8 817.1 252.64 812.88 255.44 816.12 257.61"/><polygon class="cls-73" points="810.43 261.39 814.65 258.58 811.42 256.42 807.2 259.22 810.43 261.39"/><polygon class="cls-74" points="854.95 238.1 859.17 235.3 855.94 233.13 851.71 235.94 854.95 238.1"/><polygon class="cls-75" points="849.27 241.88 853.49 239.07 850.25 236.91 846.03 239.72 849.27 241.88"/><polygon class="cls-76" points="843.59 245.66 847.81 242.85 844.57 240.69 840.35 243.5 843.59 245.66"/><polygon class="cls-77" points="837.9 249.44 842.13 246.63 838.89 244.47 834.67 247.28 837.9 249.44"/><polygon class="cls-78" points="832.22 253.22 836.44 250.41 833.21 248.25 828.99 251.06 832.22 253.22"/><polygon class="cls-79" points="826.54 257 830.76 254.19 827.52 252.03 823.3 254.83 826.54 257"/><polygon class="cls-80" points="820.86 260.77 825.08 257.97 821.84 255.81 817.62 258.61 820.86 260.77"/><polygon class="cls-81" points="815.18 264.55 819.4 261.75 816.16 259.58 811.94 262.39 815.18 264.55"/><polygon class="cls-82" points="859.7 241.27 863.92 238.46 860.68 236.3 856.46 239.11 859.7 241.27"/><polygon class="cls-83" points="854.01 245.05 858.23 242.24 855 240.08 850.77 242.89 854.01 245.05"/><polygon class="cls-84" points="848.33 248.83 852.55 246.02 849.31 243.86 845.09 246.67 848.33 248.83"/><polygon class="cls-85" points="842.65 252.61 846.87 249.8 843.63 247.64 839.41 250.44 842.65 252.61"/><polygon class="cls-86" points="836.97 256.38 841.19 253.58 837.95 251.41 833.73 254.22 836.97 256.38"/><polygon class="cls-87" points="831.28 260.16 835.5 257.36 832.27 255.19 828.04 258 831.28 260.16"/><polygon class="cls-88" points="825.6 263.94 829.82 261.13 826.59 258.97 822.36 261.78 825.6 263.94"/><polygon class="cls-89" points="819.92 267.72 824.14 264.91 820.9 262.75 816.68 265.56 819.92 267.72"/><polygon class="cls-90" points="864.44 244.44 868.66 241.63 865.42 239.47 861.2 242.28 864.44 244.44"/><polygon class="cls-91" points="836.03 263.33 862.98 245.41 859.74 243.25 832.79 261.17 836.03 263.33"/><polygon class="cls-92" points="850.62 267.75 867.59 256.46 860.03 251.42 843.07 262.71 850.62 267.75"/><polygon class="cls-93" points="830.34 267.11 834.57 264.3 831.33 262.14 827.11 264.95 830.34 267.11"/><polygon class="cls-94" points="824.66 270.89 828.88 268.08 825.64 265.92 821.42 268.73 824.66 270.89"/><polygon class="cls-95" points="798.36 212.11 843.11 182.33 843.11 188.94 798.36 218.73 798.36 212.11"/><polygon class="cls-96" points="798.36 243.56 843.11 213.77 843.11 217.08 798.36 246.87 798.36 243.56"/><polygon class="cls-97" points="798.36 222.04 818.25 208.8 818.25 221.35 798.36 234.41 798.36 222.04"/><polygon class="cls-98" points="823.22 205.49 843.11 192.25 843.11 204.8 823.22 217.86 823.22 205.49"/><path class="cls-99" d="M808.65,234.33c-.84,1.62-2.24,2.44-3.14,1.83s-1-2.43-.12-4.06,2.24-2.44,3.14-1.83S809.49,232.7,808.65,234.33Z"/><path class="cls-100" d="M818.73,227.63c-.84,1.62-2.24,2.44-3.14,1.83s-1-2.43-.12-4.06,2.24-2.44,3.14-1.83S819.57,226,818.73,227.63Z"/><path class="cls-101" d="M828.77,220.93c-.84,1.62-2.24,2.44-3.14,1.83s-1-2.43-.12-4.06,2.24-2.44,3.14-1.83S829.6,219.3,828.77,220.93Z"/><path class="cls-102" d="M838.8,214.25c-.84,1.62-2.24,2.44-3.14,1.83s-1-2.43-.12-4.06,2.24-2.44,3.14-1.83S839.64,212.63,838.8,214.25Z"/><path class="cls-103" d="M740.24,241l-25.45,17a2.9,2.9,0,0,0-1.21,2.42v47.47a1.54,1.54,0,0,0,.63,1.28l1.21.82,26.43-17a4.08,4.08,0,0,0,1.68-3.49l-1-40.46v-6.46a2.05,2.05,0,0,0-.06-.48l.28.12.2-.37L741.8,241A1.35,1.35,0,0,0,740.24,241Z"/><path class="cls-104" d="M716,258.77l25.45-17a1.55,1.55,0,0,1,2.3,1.53v46.47a3.62,3.62,0,0,1-1.51,3l-25.64,17.08a1.21,1.21,0,0,1-1.81-1.2V261.19A2.9,2.9,0,0,1,716,258.77Z"/><polygon class="cls-105" points="717.01 260.43 741.89 243.94 741.89 290.81 717.01 307.29 717.01 260.43"/><polygon class="cls-106" points="718.69 263.97 741.06 249.08 741.06 252.39 718.69 267.28 718.69 263.97"/><polygon class="cls-107" points="718.69 297.56 741.06 282.67 741.06 285.82 718.69 300.72 718.69 297.56"/><polygon class="cls-108" points="718.69 268.94 728.68 262.45 728.68 272.11 718.69 278.51 718.69 268.94"/><polygon class="cls-109" points="731.08 260.91 741.06 254.43 741.06 264.09 731.08 270.48 731.08 260.91"/><path class="cls-110" d="M727,280.68c-.85,1.65-2.28,2.48-3.19,1.85s-1-2.47-.12-4.12,2.28-2.48,3.19-1.85S727.88,279,727,280.68Z"/><path class="cls-111" d="M737.27,273.89c-.85,1.65-2.28,2.48-3.19,1.85s-1-2.47-.12-4.12,2.28-2.48,3.19-1.85S738.11,272.24,737.27,273.89Z"/><path class="cls-112" d="M727,289.36c-.85,1.65-2.28,2.48-3.19,1.85s-1-2.47-.12-4.12,2.28-2.48,3.19-1.85S727.88,287.71,727,289.36Z"/><path class="cls-113" d="M737.27,282.56c-.85,1.65-2.28,2.48-3.19,1.85s-1-2.47-.12-4.12,2.28-2.48,3.19-1.85S738.11,280.91,737.27,282.56Z"/><path class="cls-114" d="M765.84,258.85l-1.1-.75h0a1,1,0,0,0-1.12,0l-11.52,7.68a3,3,0,0,0-1.24,2.48V301.7a1.29,1.29,0,0,0,.69,1.18h0l1,.7.33-.59-.47-1.8,10-6.67a3.85,3.85,0,0,0,1.61-3.22v-31h1.09Z"/><path class="cls-115" d="M752,302.45V269a3,3,0,0,1,1.24-2.48l11.52-7.68A1.13,1.13,0,0,1,766.4,260v33a3.85,3.85,0,0,1-1.61,3.22l-11.15,7.43A1.13,1.13,0,0,1,752,302.45Z"/><polygon class="cls-116" points="752.75 300.58 752.75 268.42 765.61 259.85 765.61 292.02 752.75 300.58"/><path class="cls-117" d="M760.55,297.82c-.22.43-.6.65-.84.49s-.25-.65,0-1.09.6-.65.84-.49S760.77,297.39,760.55,297.82Z"/><polygon class="cls-118" points="753.21 270.16 765.21 262.17 765.21 263.94 753.21 271.93 753.21 270.16"/><polygon class="cls-119" points="753.21 272.82 765.21 264.96 765.21 273.59 753.21 281.4 753.21 272.82"/><polygon class="cls-120" points="753.21 283.13 765.21 275.27 765.21 283.9 753.21 291.71 753.21 283.13"/><path class="cls-121" d="M761.68,292.57c-.81,1.57-2.17,2.36-3,1.76s-.92-2.35-.11-3.92,2.17-2.36,3-1.76S762.49,291,761.68,292.57Z"/><path class="cls-122" d="M816.86,129.08l13.82-9.2a3.78,3.78,0,0,1,4.23,0l2.68,1.79h0a5.07,5.07,0,0,1,2.22,4.34v57.85a15.11,15.11,0,0,1-6.32,12.63l-13.29,8.85a4.1,4.1,0,0,1-4.69,0h0l-2.63-1.77h0a5.52,5.52,0,0,1-2.33-4.66v-57.1A15.16,15.16,0,0,1,816.86,129.08Z"/><path class="cls-123" d="M837.58,110.06l-2.68-1.79a3.78,3.78,0,0,0-4.23,0l-13.82,9.2a15.16,15.16,0,0,0-6.34,12.67v17.67a5.52,5.52,0,0,0,2.33,4.66h0l2.64,1.77s.41-1.09.4-1.13a5.1,5.1,0,0,0-.4-.43,4.31,4.31,0,0,0,1.42-.61l13.29-8.85a15.11,15.11,0,0,0,6.32-12.63V112.22a5.72,5.72,0,0,0-.19-1.45l.75.21Z"/><path class="cls-124" d="M819.51,119.3l13.82-9.2c2.87-1.91,6.46.48,6.46,4.3v18.42a15.11,15.11,0,0,1-6.32,12.63l-13.29,8.85c-3.11,2.07-7-.52-7-4.67V132A15.16,15.16,0,0,1,819.51,119.3Z"/><path class="cls-125" d="M821,147.09a7.92,7.92,0,0,1-1.52.81V145l.5-.21a3.2,3.2,0,0,0,.58-.31,2.69,2.69,0,0,0,1-1.25,5.84,5.84,0,0,0,.31-2.13V128.21l2.93-2V138.8a11.67,11.67,0,0,1-1,4.91A8,8,0,0,1,821,147.09Z"/><path class="cls-125" d="M833.49,130.19a7.39,7.39,0,0,1-.51,2.64,9.33,9.33,0,0,1-1.47,2.54,9.93,9.93,0,0,1-2.26,2.06,10.44,10.44,0,0,1-1.81,1,4.73,4.73,0,0,1-1.52.33v-3.35a5.75,5.75,0,0,0,1.74-.29,6.68,6.68,0,0,0,1.66-.79,3.12,3.12,0,0,0,1-.92,1.81,1.81,0,0,0,.3-.95.61.61,0,0,0-.12-.42.65.65,0,0,0-.39-.17,9.23,9.23,0,0,0-1.44.06,3.48,3.48,0,0,1-1.59-.14,1.49,1.49,0,0,1-.78-.81,4.1,4.1,0,0,1-.25-1.61,7.09,7.09,0,0,1,1.09-3.72,9.69,9.69,0,0,1,3-3.06,7.38,7.38,0,0,1,3.42-1.28l-.89,3.5a5.36,5.36,0,0,0-2.62.85,2.66,2.66,0,0,0-.83.81,1.58,1.58,0,0,0-.26.81.47.47,0,0,0,.33.51,6.74,6.74,0,0,0,1.78,0,2.35,2.35,0,0,1,1.94.45A2.83,2.83,0,0,1,833.49,130.19Z"/><path class="cls-126" d="M727,153.75l13.82-9.2a3.78,3.78,0,0,1,4.23,0l2.68,1.79h0a5.07,5.07,0,0,1,2.22,4.34v57.85a15.11,15.11,0,0,1-6.32,12.63L730.28,230a4.1,4.1,0,0,1-4.69,0h0L723,228.19h0a5.52,5.52,0,0,1-2.33-4.66v-57.1A15.16,15.16,0,0,1,727,153.75Z"/><path class="cls-127" d="M747.68,129.78,745,128a3.78,3.78,0,0,0-4.23,0L727,137.23a15.16,15.16,0,0,0-6.34,12.67v17.67a5.52,5.52,0,0,0,2.33,4.66h0l2.64,1.77s.41-1.09.4-1.13a5.07,5.07,0,0,0-.4-.43,4.31,4.31,0,0,0,1.42-.61L740.31,163a15.11,15.11,0,0,0,6.32-12.63V131.94a5.72,5.72,0,0,0-.19-1.45l.75.21Z"/><path class="cls-128" d="M729.62,139l13.82-9.2c2.87-1.91,6.46.48,6.46,4.3v18.42a15.11,15.11,0,0,1-6.32,12.63L730.28,174c-3.11,2.07-7-.52-7-4.67V151.69A15.16,15.16,0,0,1,729.62,139Z"/><path class="cls-125" d="M732.34,153.3a6.42,6.42,0,0,1-.77,3.1,6.54,6.54,0,0,1-2.18,2.36l-.59.39v3.32l-2.1,1.4v-10l2.69-1.79q1.47-1,2.21-.64T732.34,153.3Zm-3.54,3.65.38-.25a2.26,2.26,0,0,0,.75-.84,2.38,2.38,0,0,0,.28-1.13q0-1-.87-.43l-.54.36Z"/><path class="cls-125" d="M739.7,155.23l-2.11,1.4v-4.08l-2.44,1.62v4.08l-2.11,1.4v-10l2.11-1.4V152l2.44-1.62v-3.71l2.11-1.4Z"/><path class="cls-125" d="M746.47,143.91a6.42,6.42,0,0,1-.77,3.1,6.54,6.54,0,0,1-2.18,2.36l-.59.39v3.32l-2.1,1.4v-10l2.69-1.79q1.47-1,2.21-.64T746.47,143.91Zm-3.54,3.65.38-.25a2.26,2.26,0,0,0,.75-.84,2.38,2.38,0,0,0,.28-1.13q0-1-.87-.43l-.54.36Z"/><path class="cls-129" d="M693.16,209.71l13.82-9.2a3.78,3.78,0,0,1,4.23,0l2.68,1.79h0a5.07,5.07,0,0,1,2.22,4.34v57.85a15.11,15.11,0,0,1-6.32,12.63l-13.29,8.85a4.1,4.1,0,0,1-4.69,0h0l-2.63-1.77h0a5.52,5.52,0,0,1-2.33-4.66v-57.1A15.16,15.16,0,0,1,693.16,209.71Z"/><path class="cls-130" d="M713.56,189.7l-2.68-1.79a3.78,3.78,0,0,0-4.23,0l-13.82,9.2a15.16,15.16,0,0,0-6.34,12.67V227.5a5.52,5.52,0,0,0,2.33,4.66h0l2.64,1.77s.41-1.09.4-1.13a5.11,5.11,0,0,0-.4-.43,4.31,4.31,0,0,0,1.42-.61l13.29-8.85a15.11,15.11,0,0,0,6.32-12.63V191.86a5.72,5.72,0,0,0-.19-1.45l.75.21Z"/><path class="cls-131" d="M695.5,198.94l13.82-9.2c2.87-1.91,6.46.48,6.46,4.3v18.42a15.11,15.11,0,0,1-6.32,12.63l-13.29,8.85c-3.11,2.07-7-.52-7-4.67V211.61A15.16,15.16,0,0,1,695.5,198.94Z"/><path class="cls-125" d="M693.87,216.44a3.31,3.31,0,0,1-.4,1.6,3.37,3.37,0,0,1-1.12,1.22l-.3.2v1.71l-1.08.72v-5.15l1.39-.92q.76-.5,1.14-.33T693.87,216.44ZM692,218.32l.2-.13a1.16,1.16,0,0,0,.39-.43,1.23,1.23,0,0,0,.14-.58q0-.52-.45-.22l-.28.19Z"/><path class="cls-125" d="M695.91,215.35l.69-2.37,1.17-.78-1.32,4v2l-1.09.72v-2L694,214.68l1.18-.78Z"/><path class="cls-125" d="M699.94,215.92l-1.08.72v-4l-1,.65v-1.14l3-2v1.14l-1,.65Z"/><path class="cls-125" d="M704.89,212.62l-1.09.72v-2.1l-1.26.84v2.1l-1.09.72v-5.15l1.09-.72v1.91l1.26-.84v-1.91l1.09-.72Z"/><path class="cls-125" d="M709.48,207a5.15,5.15,0,0,1-.5,2.31,4.14,4.14,0,0,1-1.45,1.64q-.94.63-1.44.28t-.5-1.65a5.11,5.11,0,0,1,.5-2.3,4.16,4.16,0,0,1,1.45-1.64q1-.64,1.45-.29T709.48,207Zm-2.76,1.83q0,1.49.81,1a1.62,1.62,0,0,0,.61-.77,3.43,3.43,0,0,0,.2-1.26,1.68,1.68,0,0,0-.2-1q-.2-.23-.6,0A2.29,2.29,0,0,0,706.72,208.83Z"/><path class="cls-125" d="M714,206.58l-1.42.94-1.46-2.66,0,0q.05.82.05,1.27v2.32l-1,.64V204l1.41-.94,1.46,2.61h0q0-.75,0-1.23v-2.33l1-.64Z"/><path class="cls-132" d="M907.79,205.82,894,196.62a3.78,3.78,0,0,0-4.23,0l-2.68,1.79h0a5.07,5.07,0,0,0-2.22,4.34v57.85a15.11,15.11,0,0,0,6.32,12.63L904.47,282a4.1,4.1,0,0,0,4.69,0h0l2.63-1.77h0a5.52,5.52,0,0,0,2.33-4.66v-57.1A15.16,15.16,0,0,0,907.79,205.82Z"/><path class="cls-133" d="M887.07,180.28l2.68-1.79a3.78,3.78,0,0,1,4.23,0l13.82,9.2a15.16,15.16,0,0,1,6.34,12.67v17.67a5.52,5.52,0,0,1-2.33,4.66h0l-2.63,1.77s-.41-1.09-.4-1.13a5.1,5.1,0,0,1,.4-.43,4.31,4.31,0,0,1-1.42-.61l-13.29-8.85a15.11,15.11,0,0,1-6.32-12.63V182.44a5.72,5.72,0,0,1,.19-1.45l-.75.21Z"/><path class="cls-134" d="M905.14,189.52l-13.82-9.2c-2.87-1.91-6.46.48-6.46,4.3V203a15.11,15.11,0,0,0,6.32,12.63l13.29,8.85c3.11,2.07,7-.52,7-4.67V202.19A15.16,15.16,0,0,0,905.14,189.52Z"/><path class="cls-125" d="M891.26,194a.81.81,0,0,0-1.33.28,6.3,6.3,0,0,0-.48,2.89q0,4.25,1.94,5.54a3,3,0,0,0,1.14.48,5.72,5.72,0,0,0,1.11.08v3.36a4.1,4.1,0,0,1-2.5-.85,8.36,8.36,0,0,1-3.07-4,16.82,16.82,0,0,1-1.07-6.3,10.78,10.78,0,0,1,.52-3.68A2.45,2.45,0,0,1,889,190.2a2.76,2.76,0,0,1,2.28.59,10.47,10.47,0,0,1,2.74,2.86l-.73,2.65q-.49-.71-1-1.3A4.94,4.94,0,0,0,891.26,194Z"/><path class="cls-125" d="M901.13,207.81a4.64,4.64,0,0,1-.42,2.16,1.46,1.46,0,0,1-1.2.85,3,3,0,0,1-1.84-.64,9.4,9.4,0,0,1-1.48-1.19,11.26,11.26,0,0,1-1.24-1.55v-3.55a15.42,15.42,0,0,0,1.42,1.86,7.52,7.52,0,0,0,1.35,1.23q.53.35.78.21t.25-.63a1.84,1.84,0,0,0-.1-.6,3.8,3.8,0,0,0-.32-.67q-.22-.38-1.17-1.73a15.55,15.55,0,0,1-1.3-2.13,8.58,8.58,0,0,1-.64-1.84,9.3,9.3,0,0,1-.21-2q0-2,.89-2.58t2.44.49a11.37,11.37,0,0,1,2.8,2.92L900.4,201a9.34,9.34,0,0,0-2.14-2.37q-.47-.31-.68-.18a.58.58,0,0,0-.21.53,2.11,2.11,0,0,0,.27,1,26.39,26.39,0,0,0,1.46,2.22,12.08,12.08,0,0,1,1.59,2.9A8.38,8.38,0,0,1,901.13,207.81Z"/><path class="cls-125" d="M908.27,212.57a4.64,4.64,0,0,1-.42,2.16,1.46,1.46,0,0,1-1.2.85,3,3,0,0,1-1.84-.64,9.41,9.41,0,0,1-1.48-1.19,11.25,11.25,0,0,1-1.24-1.55v-3.55a15.4,15.4,0,0,0,1.42,1.86,7.52,7.52,0,0,0,1.35,1.23q.53.35.78.21t.25-.63a1.84,1.84,0,0,0-.1-.6,3.81,3.81,0,0,0-.32-.67q-.22-.38-1.17-1.73a15.53,15.53,0,0,1-1.3-2.13,8.58,8.58,0,0,1-.64-1.84,9.3,9.3,0,0,1-.21-2q0-2,.89-2.58t2.44.49a11.37,11.37,0,0,1,2.8,2.92l-.73,2.59a9.34,9.34,0,0,0-2.14-2.37q-.47-.31-.68-.18a.58.58,0,0,0-.21.53,2.11,2.11,0,0,0,.27,1,26.41,26.41,0,0,0,1.46,2.22,12.08,12.08,0,0,1,1.59,2.9A8.38,8.38,0,0,1,908.27,212.57Z"/><path class="cls-135" d="M881.17,156.67l-13.82-9.2a3.78,3.78,0,0,0-4.23,0l-2.68,1.79h0a5.07,5.07,0,0,0-2.22,4.34v57.85A15.11,15.11,0,0,0,864.55,224l13.29,8.85a4.1,4.1,0,0,0,4.69,0h0l2.63-1.77h0a5.52,5.52,0,0,0,2.33-4.66v-57.1A15.16,15.16,0,0,0,881.17,156.67Z"/><path class="cls-136" d="M860.45,133l2.68-1.79a3.78,3.78,0,0,1,4.23,0l13.82,9.2a15.16,15.16,0,0,1,6.34,12.67v17.67a5.52,5.52,0,0,1-2.33,4.66h0l-2.64,1.77s-.41-1.09-.4-1.13a5.1,5.1,0,0,1,.4-.43,4.32,4.32,0,0,1-1.42-.61l-13.29-8.85a15.11,15.11,0,0,1-6.32-12.63V135.17a5.72,5.72,0,0,1,.19-1.45l-.75.21Z"/><path class="cls-137" d="M878.51,142.25l-13.82-9.2c-2.87-1.91-6.46.48-6.46,4.3v18.42a15.11,15.11,0,0,0,6.32,12.63l13.29,8.85c3.11,2.07,7-.52,7-4.67V154.92A15.16,15.16,0,0,0,878.51,142.25Z"/><path class="cls-125" d="M865.19,155.68l-1.57-1v-3.84l-1.82-1.21v3.84l-1.57-1V143l1.57,1v3.49l1.82,1.21v-3.49l1.57,1Z"/><path class="cls-125" d="M869,158.2l-1.56-1v-7.34l-1.41-.94V146.8l4.38,2.91v2.08l-1.41-.94Z"/><path class="cls-125" d="M873.75,161.36l-1.18-7.57,0,0q.08,1.79.08,2.75v4.09l-1.39-.92v-9.42l2.08,1.38,1.21,7.49,0,0,1.18-5.9,2.09,1.38v9.42l-1.44-1V159q0-.32,0-.71t.05-1.89l0,0-1.17,6Z"/><path class="cls-125" d="M879.06,164.89v-9.42l1.56,1v7.37l2.23,1.48v2.06Z"/><polygon class="cls-138" points="448.88 352.38 348.43 291.03 499.11 198.99 599.56 260.35 448.88 352.38"/><polygon class="cls-139" points="451.52 344.31 361.65 289.41 496.46 207.07 586.34 261.96 451.52 344.31"/><polygon class="cls-140" points="451.53 365.21 365.68 312.78 494.45 234.12 580.3 286.56 451.53 365.21"/><polygon class="cls-141" points="451.53 336.56 365.68 284.12 494.45 205.47 580.3 257.91 451.53 336.56"/><polygon class="cls-142" points="451.53 336.56 365.68 284.12 494.45 205.47 580.3 257.91 451.53 336.56"/><polygon class="cls-143" points="451.53 336.56 451.53 340.06 365.68 287.62 365.68 284.12 451.53 336.56"/><polygon class="cls-144" points="451.53 340.06 580.3 261.4 580.3 257.91 451.53 336.56 451.53 340.06"/><path class="cls-145" d="M554.91,273.42c-3.07-6-14.51-14.45-29.29-21.15-18.73-8.49-35.71-10.92-37.94-5.42s11.15,16.83,29.87,25.32c9.83,4.46,19.17,7.24,26.16,8.08Z"/><polygon class="cls-146" points="451.53 336.56 413.37 289.68 511.3 229.81 580.3 257.91 451.53 336.56"/><path class="cls-147" d="M514.14,129.09l-2-1.22h0a1.67,1.67,0,0,0-1.78,0L401.18,194.58a5.12,5.12,0,0,0-2.39,4.38v94.15a1.77,1.77,0,0,0,1,1.62h0l2.13,1.31.25-.86-.34-.85,108.84-66.48a5.14,5.14,0,0,0,2.4-4.4v-94a2.06,2.06,0,0,0,0-.25h.77Z"/><path class="cls-148" d="M400.95,294.44V200.29a5.12,5.12,0,0,1,2.39-4.38l109.22-66.71a1.77,1.77,0,0,1,2.66,1.62v94a5.14,5.14,0,0,1-2.4,4.4L403.47,296A1.68,1.68,0,0,1,400.95,294.44Z"/><path class="cls-149" d="M404,297V202.84a5.12,5.12,0,0,1,2.39-4.38l109.22-66.71a1.77,1.77,0,0,1,2.66,1.62v94a5.14,5.14,0,0,1-2.4,4.4L406.48,298.52A1.68,1.68,0,0,1,404,297Z"/><path class="cls-149" d="M407.31,299.13V205a5.12,5.12,0,0,1,2.39-4.38l109.22-66.71a1.77,1.77,0,0,1,2.66,1.62v94a5.14,5.14,0,0,1-2.4,4.4L409.83,300.67A1.68,1.68,0,0,1,407.31,299.13Z"/><path class="cls-149" d="M410.66,301.28V207.13a5.12,5.12,0,0,1,2.39-4.38L522.28,136a1.77,1.77,0,0,1,2.66,1.62v94a5.14,5.14,0,0,1-2.4,4.4L413.18,302.82A1.68,1.68,0,0,1,410.66,301.28Z"/><polygon class="cls-150" points="413.37 192.62 413.37 284.65 409.03 287 408.88 195.35 413.37 192.62"/><polygon class="cls-151" points="516.23 129.86 516.23 222.17 511.89 224.52 511.74 132.59 516.23 129.86"/><polygon class="cls-152" points="413.37 284.65 413.37 192.62 511.3 132.79 511.3 224.82 413.37 284.65"/><polygon class="cls-153" points="425.79 190.43 500.32 144.91 500.32 223.81 425.79 269.33 425.79 190.43"/><polygon class="cls-154" points="425.79 269.33 424.77 268.7 424.77 189.8 425.79 190.43 425.79 269.33"/><polygon class="cls-155" points="425.79 190.43 500.32 144.91 499.3 144.28 424.77 189.8 425.79 190.43"/><polygon class="cls-156" points="480.24 181.19 502.59 167.54 502.8 167.67 480.44 181.32 480.24 181.19"/><polygon class="cls-157" points="502.8 167.67 480.44 181.32 480.44 202.57 502.8 188.91 502.8 167.67"/><polygon class="cls-158" points="480.44 181.32 480.24 181.19 480.24 202.44 480.44 202.57 480.44 181.32"/><path class="cls-125" d="M483,185.95a1.1,1.1,0,0,1-.17.59,1.42,1.42,0,0,1-.48.47,1,1,0,0,1-.5.18v-.35a1,1,0,0,0,.26,0,1.13,1.13,0,0,0,.26-.12.76.76,0,0,0,.26-.24.53.53,0,0,0,.08-.28.18.18,0,0,0-.08-.17.61.61,0,0,0-.31,0,.42.42,0,0,1-.35-.08.45.45,0,0,1-.1-.33A1,1,0,0,1,482,185a1.27,1.27,0,0,1,.43-.43,1.07,1.07,0,0,1,.51-.17l-.09.36a.93.93,0,0,0-.43.13.62.62,0,0,0-.22.21.49.49,0,0,0-.07.25.26.26,0,0,0,0,.13.15.15,0,0,0,.1.06,1,1,0,0,0,.24,0,.72.72,0,0,1,.29,0,.24.24,0,0,1,.13.12A.57.57,0,0,1,483,185.95Z"/><path class="cls-125" d="M483.32,186.35v-2.29l.29-.18v2.29Z"/><path class="cls-125" d="M485.55,183.83a2.09,2.09,0,0,1-.25,1,2,2,0,0,1-.71.73l-.5.31V183.6l.55-.34q.43-.26.67-.11T485.55,183.83Zm-.31.2q0-.82-.6-.45l-.25.16v1.66l.21-.13A1.35,1.35,0,0,0,485.24,184Z"/><path class="cls-125" d="M486.94,184.13l-1,.62v-2.29l1-.62v.32l-.72.44v.62l.68-.41v.31l-.68.41v.72l.72-.44Z"/><path class="cls-125" d="M487.33,181.61l.53-.33a.86.86,0,0,1,.53-.19c.11,0,.16.14.16.33a.94.94,0,0,1-.08.38.84.84,0,0,1-.23.31v0c.13,0,.22,0,.28,0a.41.41,0,0,1,.09.31,1.11,1.11,0,0,1-.17.59,1.38,1.38,0,0,1-.47.46l-.65.4Zm.29.77.28-.17a.84.84,0,0,0,.27-.24.53.53,0,0,0,.09-.3c0-.11,0-.17-.09-.18a.5.5,0,0,0-.29.11l-.25.16Zm0,.3v.73l.31-.19a.84.84,0,0,0,.28-.26.63.63,0,0,0,.09-.34c0-.12,0-.19-.1-.21a.41.41,0,0,0-.29.09Z"/><path class="cls-125" d="M490.1,182.2l-.18-.53-.68.42-.18.74-.31.19.67-2.71.32-.2.67,1.89Zm-.26-.8-.17-.52-.05-.17,0-.17c0,.14-.05.3-.1.48l-.16.7Z"/><path class="cls-125" d="M490.94,180.77v.91l-.29.18v-2.29l.51-.31c.23-.14.4-.19.51-.15s.17.18.17.4a1.24,1.24,0,0,1-.35.82l.51.7-.33.2-.43-.65Zm0-.31.2-.12a.86.86,0,0,0,.3-.28.66.66,0,0,0,.09-.34c0-.13,0-.2-.1-.22a.45.45,0,0,0-.3.1l-.19.12Z"/><polygon class="cls-159" points="440.49 205.47 475.27 184.23 475.48 184.36 440.7 205.6 440.49 205.47"/><polygon class="cls-160" points="440.7 205.6 475.48 184.36 475.48 232.91 440.7 254.16 440.7 205.6"/><polygon class="cls-161" points="440.7 205.6 440.49 205.47 440.49 254.03 440.7 254.16 440.7 205.6"/><polygon class="cls-162" points="444.53 188.57 506.63 150.64 506.63 165.81 444.53 203.75 444.53 188.57"/><polygon class="cls-163" points="444.53 203.75 444.32 203.62 444.32 188.44 444.53 188.57 444.53 203.75"/><polygon class="cls-164" points="444.32 188.44 506.42 150.51 506.63 150.64 444.53 188.57 444.32 188.44"/><path class="cls-125" d="M449.55,191.44l-.52.32-1.28-1.87h0V190c0,.27,0,.53,0,.76v1.73l-.39.24v-3.34l.52-.32,1.28,1.86h0s0-.16,0-.37,0-.39,0-.51v-1.75l.39-.24Z"/><path class="cls-125" d="M451.86,190l-.26-.77-1,.61-.25,1.08-.45.28,1-3.95.46-.28,1,2.75Zm-.37-1.17-.25-.76-.07-.24-.07-.25q0,.31-.14.7l-.24,1Z"/><path class="cls-125" d="M454.15,185.29l.44-.27-.91,3.9-.45.28-.91-2.78.44-.27.54,1.74a3.33,3.33,0,0,1,.09.33c0,.14.05.24.06.31,0-.12,0-.27.07-.45s.06-.3.08-.39Z"/><polygon class="cls-165" points="440.49 257.06 502.59 219.13 502.8 219.25 440.7 257.19 440.49 257.06"/><polygon class="cls-166" points="440.7 257.19 502.8 219.25 502.8 225.32 440.7 263.26 440.7 257.19"/><polygon class="cls-167" points="440.7 257.19 440.49 257.06 440.49 263.13 440.7 263.26 440.7 257.19"/><polygon class="cls-168" points="502.8 191.94 480.44 205.6 480.44 229.88 502.8 216.22 502.8 191.94"/><polygon class="cls-169" points="480.44 205.6 480.24 205.47 480.24 229.76 480.44 229.89 480.44 205.6"/><polygon class="cls-170" points="480.24 205.47 502.59 191.81 502.8 191.94 480.44 205.6 480.24 205.47"/><path class="cls-171" d="M494.06,249.51c0,.84.75,3.47-1.5,3.42-1.74.22-5.36-2.82-6.39-3.45s.71-2.35,5.05-1.23C492,248.61,494.06,249.51,494.06,249.51Z"/><path class="cls-172" d="M501.41,244.73c0,.84.75,3.47-1.5,3.42-1.74.22-5.36-2.82-6.39-3.45s.71-2.35,5.05-1.23C499.3,243.84,501.41,244.73,501.41,244.73Z"/><path class="cls-173" d="M489.66,176.43l5.85,15.43,1.64-2.49-5-14.43a9,9,0,0,0-1.43-2.93c-.45-.41-3.29-.59-2.93,1,0,.93,1.91,1.81,1.47,2.35-.13.16-.75,0-1.31.36s.2.69.52.56A2,2,0,0,1,489.66,176.43Z"/><path class="cls-174" d="M498.59,187.11c2.56-.47,4.06,1.67,2.87,5.51S498.59,187.11,498.59,187.11Z"/><path class="cls-173" d="M472.84,188.85l9.93,10.51,1.47-1.66s4.44.82,2.9,2.69a6.88,6.88,0,0,1-4.85,2.83c-1.49.15-11.31-12.6-11.31-12.6a6,6,0,0,1-2.37-4.18c.16-.78,1.14-2.4,2.23-2.58.76,0,1.34,1.87,1.54,2.53s.47.15.91-.32.93-.15.18,1.19C473.19,187.75,473.43,188.44,472.84,188.85Z"/><path class="cls-175" d="M500.85,210.91l-2.67-.31-.26,1.37-3.07.64-5,1.24-.76,17.87,1.73,18.75a2.59,2.59,0,0,0,3.3,0s1.63-13.86-.43-18.31a33.57,33.57,0,0,1,2.52-5.76v4.49l1.91,15.94c3.33.87,3.3-1.24,3.3-1.24a65.2,65.2,0,0,0-.76-15.57C500.65,225.53,504.05,215.06,500.85,210.91Z"/><path class="cls-176" d="M493.61,188.67c.82.79,4.1.17,4-1.12a2.91,2.91,0,0,1,2.06-.37c1.84.5,1.54,3.55,1.72,5.12.4,3.7.13,13,.34,18.84,0,1.82-3,3.78-6.51,4.45-2.39.47-6.15-.46-6.13-1.27s-.18-11.16-.75-13.41-.62-7.92.26-9.06C489.75,190.41,493.61,188.67,493.61,188.67Z"/><path class="cls-173" d="M490,178.29c-.58,1.36,0,2.07-.06,3.07s-.63,4.57,1,5a5.14,5.14,0,0,0,1.94.13l.84,2.54c.47,1,4.32.54,4-1.49l-.19-1.78c.88-.43,2.49-2,2.49-5s-3.05-5.36-5.81-5.36A5,5,0,0,0,490,178.29Z"/><path class="cls-177" d="M492.38,182.13c.45-.28,1.53,1.14.14,2.42a1.89,1.89,0,0,0,.51,1.3c.35.41-.29.45.64,1s2.58.15,2.9.29c0-.35.56-.16,1-1.16.64-.9,1.54-.9,2.29-2.74a5,5,0,0,0,.53-2.08,2.62,2.62,0,0,1,.23,1.33,4.71,4.71,0,0,0-1.3-4.83,2.2,2.2,0,0,1,1.38.7,3.45,3.45,0,0,0-2.34-1.59c-.89-.43-.72-1.14-2.58-1.44s-1.76-1.65-1.47-2.2c0,0-1.12.93-1,1.72a2.85,2.85,0,0,1,.3-2.85,3.53,3.53,0,0,0-1.64,3.42,4.2,4.2,0,0,1-.14-2c-.42.15-2.78,3.38-2,5.39s2.47,1.92,2.43,2.59S492.38,182.13,492.38,182.13Z"/><path class="cls-178" d="M489.92,190.79c-2.25.71-3.74,3.3-5.84,6.68a6.57,6.57,0,0,0,3,3.94,41.49,41.49,0,0,0,3.65-4.49C492.29,194.43,492.61,189.94,489.92,190.79Z"/><path class="cls-179" d="M409.62,242.57c-1,1.7-2.57,2.56-3.6,1.92s-1.09-2.55-.13-4.26,2.57-2.56,3.6-1.92S410.58,240.87,409.62,242.57Z"/><path class="cls-180" d="M513.46,179h0a.34.34,0,0,1,.52.32V188a.9.9,0,0,1-.42.77h0a.37.37,0,0,1-.55-.34v-8.61A1,1,0,0,1,513.46,179Z"/><path class="cls-125" d="M444.66,208a1.51,1.51,0,0,0-.58.69,2.49,2.49,0,0,0-.21,1,1.13,1.13,0,0,0,.2.8q.2.19.59,0a2.35,2.35,0,0,0,.32-.24l.32-.31v.47a3.22,3.22,0,0,1-.7.58q-.57.35-.88.1a1.4,1.4,0,0,1-.31-1.08,3.37,3.37,0,0,1,.15-1,2.85,2.85,0,0,1,.43-.86,2.37,2.37,0,0,1,.66-.61,1.38,1.38,0,0,1,.74-.24l-.15.55-.28,0A1,1,0,0,0,444.66,208Z"/><path class="cls-125" d="M448.18,207.09a3.26,3.26,0,0,1-.32,1.46,2.39,2.39,0,0,1-.9,1q-.59.36-.91.11a1.36,1.36,0,0,1-.32-1.08,3.23,3.23,0,0,1,.32-1.46,2.41,2.41,0,0,1,.91-1q.58-.36.9-.1A1.35,1.35,0,0,1,448.18,207.09Zm-2,1.22a1.21,1.21,0,0,0,.19.82q.19.2.58,0a1.45,1.45,0,0,0,.57-.67,2.58,2.58,0,0,0,.19-1.06,1.22,1.22,0,0,0-.19-.81q-.19-.2-.57,0a1.47,1.47,0,0,0-.58.67A2.56,2.56,0,0,0,446.19,208.31Z"/><path class="cls-125" d="M450.92,207.09l-.52.32-1.28-1.87h0v.14q0,.41,0,.76v1.73l-.39.24v-3.34l.52-.32,1.28,1.86h0s0-.16,0-.37,0-.39,0-.51V204l.39-.24Z"/><path class="cls-125" d="M452.51,206.11l-.43.26v-2.87l-.77.47v-.47l2-1.2v.47l-.77.47Z"/><path class="cls-125" d="M455.16,204.49l-1.48.91v-3.34l1.48-.91v.46l-1.05.64v.91l1-.6V203l-1,.6v1l1.05-.64Z"/><path class="cls-125" d="M457.9,202.81l-.52.32-1.28-1.87h0v.14q0,.41,0,.76v1.73l-.39.24v-3.34l.52-.32,1.28,1.86h0s0-.16,0-.37,0-.39,0-.51v-1.75l.39-.24Z"/><path class="cls-125" d="M459.49,201.84l-.43.26v-2.87l-.77.47v-.47l2-1.2v.47l-.77.47Z"/><path class="cls-125" d="M443.69,259.22l-.27.17v-2.14l.95-.58v.3l-.67.41V258l.63-.39v.3l-.63.39Z"/><path class="cls-125" d="M446.16,256.64a2.1,2.1,0,0,1-.2.94,1.53,1.53,0,0,1-.58.64q-.38.23-.58.07a.88.88,0,0,1-.2-.69,2.08,2.08,0,0,1,.2-.94,1.55,1.55,0,0,1,.58-.64c.25-.15.44-.17.58-.07A.87.87,0,0,1,446.16,256.64Zm-1.28.78a.78.78,0,0,0,.13.52q.13.13.37,0a.93.93,0,0,0,.37-.43,1.66,1.66,0,0,0,.12-.68.78.78,0,0,0-.12-.52q-.12-.13-.37,0a.94.94,0,0,0-.37.43A1.64,1.64,0,0,0,444.88,257.42Z"/><path class="cls-125" d="M448,255.51a2.1,2.1,0,0,1-.2.94,1.53,1.53,0,0,1-.58.65q-.38.23-.58.07a.88.88,0,0,1-.2-.69,2.08,2.08,0,0,1,.2-.94,1.55,1.55,0,0,1,.58-.64q.37-.23.58-.07A.87.87,0,0,1,448,255.51Zm-1.28.78a.78.78,0,0,0,.13.52c.08.09.21.08.37,0a.94.94,0,0,0,.37-.43,1.65,1.65,0,0,0,.12-.68.78.78,0,0,0-.12-.52c-.08-.09-.21-.08-.37,0a.94.94,0,0,0-.37.43A1.64,1.64,0,0,0,446.73,256.29Z"/><path class="cls-125" d="M448.95,256l-.27.17v-1.84l-.49.3v-.3l1.26-.77v.3l-.49.3Z"/><path class="cls-125" d="M450.65,255l-.95.58V253.4l.95-.58v.3l-.67.41v.58l.63-.39V254l-.63.39v.67l.67-.41Z"/><path class="cls-125" d="M451.28,253.72v.86l-.27.17V252.6l.47-.29q.32-.2.48-.14t.16.37a1.16,1.16,0,0,1-.33.77l.47.66-.31.19-.4-.61Zm0-.29.19-.12a.8.8,0,0,0,.28-.26.61.61,0,0,0,.09-.32c0-.12,0-.19-.09-.2a.42.42,0,0,0-.28.09l-.18.11Z"/><path class="cls-125" d="M428.64,192.94l.78-.47a1.27,1.27,0,0,1,.78-.28q.24.05.24.49a1.36,1.36,0,0,1-.12.56,1.23,1.23,0,0,1-.34.45v0c.18-.07.32-.06.4,0a.6.6,0,0,1,.13.45,1.62,1.62,0,0,1-.25.85,2,2,0,0,1-.68.67l-.94.58Zm.43,1.12.41-.25a1.24,1.24,0,0,0,.39-.35A.78.78,0,0,0,430,193c0-.16,0-.24-.13-.26a.72.72,0,0,0-.42.15l-.37.23Zm0,.44v1.06l.45-.28a1.22,1.22,0,0,0,.4-.38.91.91,0,0,0,.14-.5q0-.26-.14-.3a.6.6,0,0,0-.42.13Z"/><path class="cls-125" d="M433.37,191.7a3.27,3.27,0,0,1-.32,1.46,2.39,2.39,0,0,1-.9,1q-.59.36-.91.11a1.37,1.37,0,0,1-.32-1.08,3.23,3.23,0,0,1,.32-1.46,2.41,2.41,0,0,1,.91-1q.58-.36.9-.1A1.35,1.35,0,0,1,433.37,191.7Zm-2,1.22a1.21,1.21,0,0,0,.2.82q.19.2.58,0a1.46,1.46,0,0,0,.57-.67,2.59,2.59,0,0,0,.19-1.06,1.22,1.22,0,0,0-.19-.81q-.19-.2-.57,0a1.47,1.47,0,0,0-.58.67A2.56,2.56,0,0,0,431.38,192.92Z"/><path class="cls-125" d="M436.06,190a3,3,0,0,1-.36,1.48,2.84,2.84,0,0,1-1,1.07l-.73.45V189.7l.81-.5q.62-.38,1-.17T436.06,190Zm-.45.29q0-1.2-.88-.66l-.37.23v2.42l.3-.19A2,2,0,0,0,435.61,190.32Z"/><path class="cls-125" d="M437.36,189.12l.62-1.9.46-.28-.87,2.58v1.29l-.43.26v-1.28l-.87-1.53.46-.28Z"/><polygon class="cls-181" points="544.46 145.48 570.06 160.88 570.06 182.93 543.94 166.99 544.46 145.48"/><polygon class="cls-182" points="543.94 146.55 526.84 136.24 526.84 156.68 543.94 166.99 543.94 146.55"/><polygon class="cls-183" points="543.94 166.99 545.08 166.31 545.08 145.86 543.94 146.55 543.94 166.99"/><polygon class="cls-184" points="545.8 168.12 546.94 167.44 546.94 146.99 545.8 147.68 545.8 168.12"/><polygon class="cls-184" points="548.3 169.62 549.43 168.93 549.43 148.49 548.3 149.17 548.3 169.62"/><polygon class="cls-185" points="550.79 171.11 551.93 170.43 551.93 149.99 550.79 150.67 550.79 171.11"/><polygon class="cls-186" points="553.29 172.61 554.43 171.92 554.43 151.48 553.29 152.17 553.29 172.61"/><polygon class="cls-187" points="555.79 174.11 556.93 173.42 556.93 152.98 555.79 153.66 555.79 174.11"/><polygon class="cls-188" points="558.29 175.6 559.42 174.92 559.42 154.47 558.29 155.16 558.29 175.6"/><polygon class="cls-189" points="560.78 177.1 561.92 176.41 561.92 155.97 560.78 156.66 560.78 177.1"/><polygon class="cls-190" points="545.08 145.86 527.98 135.56 526.84 136.24 543.94 146.55 545.08 145.86"/><polygon class="cls-191" points="544.46 173.93 570.06 189.33 570.06 211.38 543.94 195.44 544.46 173.93"/><polygon class="cls-192" points="543.94 175 526.84 164.69 526.84 185.13 543.94 195.44 543.94 175"/><polygon class="cls-193" points="543.94 195.44 545.08 194.75 545.08 174.31 543.94 175 543.94 195.44"/><polygon class="cls-184" points="545.8 196.57 546.94 195.88 546.94 175.44 545.8 176.13 545.8 196.57"/><polygon class="cls-184" points="548.3 198.06 549.43 197.38 549.43 176.94 548.3 177.62 548.3 198.06"/><polygon class="cls-185" points="550.79 199.56 551.93 198.88 551.93 178.43 550.79 179.12 550.79 199.56"/><polygon class="cls-186" points="553.29 201.06 554.43 200.37 554.43 179.93 553.29 180.61 553.29 201.06"/><polygon class="cls-187" points="555.79 202.55 556.93 201.87 556.93 181.43 555.79 182.11 555.79 202.55"/><polygon class="cls-188" points="558.29 204.05 559.42 203.37 559.42 182.92 558.29 183.61 558.29 204.05"/><polygon class="cls-189" points="560.78 205.55 561.92 204.86 561.92 184.42 560.78 185.1 560.78 205.55"/><polygon class="cls-194" points="545.08 174.31 527.98 164 526.84 164.69 543.94 175 545.08 174.31"/><polygon class="cls-195" points="573.41 162.98 599.01 178.38 599.01 200.43 572.89 184.49 573.41 162.98"/><polygon class="cls-196" points="572.89 164.04 555.79 153.74 555.79 174.18 572.89 184.49 572.89 164.04"/><polygon class="cls-197" points="572.89 184.49 574.03 183.8 574.03 163.36 572.89 164.04 572.89 184.49"/><polygon class="cls-184" points="574.75 185.62 575.89 184.93 575.89 164.49 574.75 165.17 574.75 185.62"/><polygon class="cls-184" points="577.25 187.11 578.38 186.43 578.38 165.99 577.25 166.67 577.25 187.11"/><polygon class="cls-185" points="579.74 188.61 580.88 187.92 580.88 167.48 579.74 168.17 579.74 188.61"/><polygon class="cls-186" points="582.24 190.11 583.38 189.42 583.38 168.98 582.24 169.66 582.24 190.11"/><polygon class="cls-187" points="584.74 191.6 585.88 190.92 585.88 170.47 584.74 171.16 584.74 191.6"/><polygon class="cls-188" points="587.24 193.1 588.38 192.41 588.38 171.97 587.24 172.66 587.24 193.1"/><polygon class="cls-189" points="589.73 194.6 590.87 193.91 590.87 173.47 589.73 174.15 589.73 194.6"/><polygon class="cls-198" points="574.03 163.36 556.93 153.05 555.79 153.74 572.89 164.04 574.03 163.36"/><polygon class="cls-199" points="573.41 191.43 599.01 206.83 599.01 228.88 572.89 212.93 573.41 191.43"/><polygon class="cls-200" points="572.89 192.49 555.79 182.18 555.79 202.63 572.89 212.93 572.89 192.49"/><polygon class="cls-201" points="572.89 212.93 574.03 212.25 574.03 191.81 572.89 192.49 572.89 212.93"/><polygon class="cls-184" points="574.75 214.06 575.89 213.38 575.89 192.94 574.75 193.62 574.75 214.06"/><polygon class="cls-184" points="577.25 215.56 578.38 214.88 578.38 194.43 577.25 195.12 577.25 215.56"/><polygon class="cls-185" points="579.74 217.06 580.88 216.37 580.88 195.93 579.74 196.61 579.74 217.06"/><polygon class="cls-186" points="582.24 218.55 583.38 217.87 583.38 197.43 582.24 198.11 582.24 218.55"/><polygon class="cls-187" points="584.74 220.05 585.88 219.37 585.88 198.92 584.74 199.61 584.74 220.05"/><polygon class="cls-188" points="587.24 221.55 588.38 220.86 588.38 200.42 587.24 201.1 587.24 221.55"/><polygon class="cls-189" points="589.73 223.04 590.87 222.36 590.87 201.91 589.73 202.6 589.73 223.04"/><polygon class="cls-202" points="574.03 191.81 556.93 181.5 555.79 182.18 572.89 192.49 574.03 191.81"/><polygon class="cls-203" points="544.46 201.17 570.06 216.57 570.06 238.62 543.94 222.68 544.46 201.17"/><polygon class="cls-204" points="543.94 202.24 526.84 191.93 526.84 212.37 543.94 222.68 543.94 202.24"/><polygon class="cls-205" points="543.94 222.68 545.08 221.99 545.08 201.55 543.94 202.24 543.94 222.68"/><polygon class="cls-184" points="545.8 223.81 546.94 223.12 546.94 202.68 545.8 203.37 545.8 223.81"/><polygon class="cls-184" points="548.3 225.31 549.43 224.62 549.43 204.18 548.3 204.86 548.3 225.31"/><polygon class="cls-185" points="550.79 226.8 551.93 226.12 551.93 205.67 550.79 206.36 550.79 226.8"/><polygon class="cls-186" points="553.29 228.3 554.43 227.61 554.43 207.17 553.29 207.86 553.29 228.3"/><polygon class="cls-187" points="555.79 229.79 556.93 229.11 556.93 208.67 555.79 209.35 555.79 229.79"/><polygon class="cls-188" points="558.29 231.29 559.42 230.61 559.42 210.16 558.29 210.85 558.29 231.29"/><polygon class="cls-189" points="560.78 232.79 561.92 232.1 561.92 211.66 560.78 212.34 560.78 232.79"/><polygon class="cls-206" points="545.08 201.55 527.98 191.25 526.84 191.93 543.94 202.24 545.08 201.55"/><path class="cls-125" d="M560.36,193.16a.51.51,0,0,0-.81.15,3.25,3.25,0,0,0-.29,1.61q0,2.36,1.17,3.08a1.89,1.89,0,0,0,.69.27,3.78,3.78,0,0,0,.67,0v1.87a2.64,2.64,0,0,1-1.52-.47,4.73,4.73,0,0,1-1.86-2.21,8.66,8.66,0,0,1-.65-3.5,5.54,5.54,0,0,1,.31-2,1.41,1.41,0,0,1,.9-.93,1.79,1.79,0,0,1,1.38.33,6.08,6.08,0,0,1,1.66,1.59l-.44,1.47q-.3-.39-.59-.72A2.91,2.91,0,0,0,560.36,193.16Z"/><path class="cls-125" d="M566.34,200.82a2.4,2.4,0,0,1-.25,1.2.88.88,0,0,1-.73.47,1.93,1.93,0,0,1-1.12-.35,5.64,5.64,0,0,1-.9-.66,6.4,6.4,0,0,1-.75-.86v-2a8.7,8.7,0,0,0,.86,1,4.45,4.45,0,0,0,.82.68q.32.2.47.12t.15-.35a1,1,0,0,0-.06-.33,2,2,0,0,0-.19-.37q-.13-.21-.71-1a8.51,8.51,0,0,1-.79-1.19,4.51,4.51,0,0,1-.39-1,4.76,4.76,0,0,1-.13-1.12q0-1.13.54-1.44t1.48.27a6.61,6.61,0,0,1,1.69,1.62L565.9,197a5.39,5.39,0,0,0-1.3-1.32q-.28-.17-.41-.1a.31.31,0,0,0-.13.3,1.1,1.1,0,0,0,.16.53,14.63,14.63,0,0,0,.88,1.23,6.57,6.57,0,0,1,1,1.61A4.31,4.31,0,0,1,566.34,200.82Z"/><path class="cls-125" d="M570.67,203.46a2.4,2.4,0,0,1-.25,1.2.88.88,0,0,1-.73.47,1.93,1.93,0,0,1-1.12-.35,5.65,5.65,0,0,1-.9-.66,6.38,6.38,0,0,1-.75-.86v-2a8.68,8.68,0,0,0,.86,1,4.45,4.45,0,0,0,.82.68q.32.2.47.12t.15-.35a1,1,0,0,0-.06-.33,2,2,0,0,0-.19-.37q-.13-.21-.71-1a8.51,8.51,0,0,1-.79-1.19,4.51,4.51,0,0,1-.39-1,4.76,4.76,0,0,1-.13-1.12q0-1.13.54-1.44t1.48.27a6.6,6.6,0,0,1,1.69,1.62l-.44,1.44a5.39,5.39,0,0,0-1.3-1.32q-.28-.17-.41-.1a.31.31,0,0,0-.13.3,1.1,1.1,0,0,0,.16.53,14.66,14.66,0,0,0,.88,1.23,6.56,6.56,0,0,1,1,1.61A4.31,4.31,0,0,1,570.67,203.46Z"/><path class="cls-125" d="M560.39,170.47l-1-.61v-2.26l-1.17-.71v2.26l-1-.61V163l1,.61v2.06l1.17.71v-2.06l1,.61Z"/><path class="cls-125" d="M562.83,172l-1-.61V167l-.91-.55v-1.23l2.82,1.72v1.23l-.9-.55Z"/><path class="cls-125" d="M565.89,173.82l-.76-4.46h0q.05,1.05.05,1.62v2.41l-.89-.54v-5.55l1.34.81.78,4.41h0l.76-3.48,1.34.82v5.55l-.92-.56v-2.43q0-.19,0-.42t0-1.11h0l-.75,3.53Z"/><path class="cls-125" d="M569.3,175.9v-5.55l1,.61v4.34l1.43.87v1.21Z"/><path class="cls-125" d="M530.83,156.63A5.7,5.7,0,0,1,530,156v-1.86l.29.26a2.24,2.24,0,0,0,.33.25q.42.26.6,0a2.18,2.18,0,0,0,.18-1.11v-8.18l1.7,1v8a3.57,3.57,0,0,1-.56,2.38Q531.95,157.31,530.83,156.63Z"/><path id="Ruby" class="cls-125" d="M538.52,155.87a2.34,2.34,0,0,1-.3,1.28,1,1,0,0,1-.85.47,2.5,2.5,0,0,1-1.31-.45,7.08,7.08,0,0,1-1.05-.77,7.64,7.64,0,0,1-.88-1v-2.13a10.34,10.34,0,0,0,1,1.16,5.52,5.52,0,0,0,1,.78q.38.23.55.15t.18-.37a1,1,0,0,0-.07-.36,2.29,2.29,0,0,0-.23-.41q-.16-.23-.83-1.08a9.82,9.82,0,0,1-.92-1.32,4.65,4.65,0,0,1-.6-2.35q0-1.22.63-1.52a1.9,1.9,0,0,1,1.73.38,8.08,8.08,0,0,1,2,1.85l-.52,1.53a6.55,6.55,0,0,0-1.52-1.5q-.33-.2-.48-.13a.31.31,0,0,0-.15.31,1.17,1.17,0,0,0,.19.58,17,17,0,0,0,1,1.38,7.45,7.45,0,0,1,1.13,1.79A4.44,4.44,0,0,1,538.52,155.87Z"/><path class="cls-125" d="M532.35,206.23q0,1.16-.49,1.5t-1.38-.21l-.37-.23v2.3l-1.33-.81v-6.95l1.71,1a3.82,3.82,0,0,1,1.4,1.43A4,4,0,0,1,532.35,206.23Zm-2.25-.47.24.15q.3.18.48.05a.65.65,0,0,0,.18-.55,1.14,1.14,0,0,0-.55-1l-.34-.21Z"/><path class="cls-125" d="M537.36,214l-1.34-.82v-2.83l-1.55-.95v2.83l-1.34-.82V204.5l1.34.82v2.58l1.55.95v-2.58l1.34.82Z"/><path class="cls-125" d="M542,212.14q0,1.16-.49,1.5t-1.38-.21l-.37-.23v2.3l-1.33-.81v-6.95l1.71,1a3.82,3.82,0,0,1,1.4,1.43A4,4,0,0,1,542,212.14Zm-2.25-.47.24.15q.3.18.48.05a.65.65,0,0,0,.18-.55,1.14,1.14,0,0,0-.55-1l-.34-.21Z"/><path class="cls-125" d="M529.28,176.64q0,.59-.24.75t-.7-.11l-.19-.12v1.16l-.67-.41v-3.49l.86.52a1.92,1.92,0,0,1,.71.72A2,2,0,0,1,529.28,176.64Zm-1.13-.24.12.07q.15.09.24,0a.33.33,0,0,0,.09-.28.57.57,0,0,0-.28-.52l-.17-.11Z"/><path class="cls-125" d="M530.56,177.61l.43-1,.73.44-.82,1.63V180l-.67-.41v-1.34l-.82-2.66.73.45Z"/><path class="cls-125" d="M533.07,181.34l-.67-.41v-2.72l-.61-.37v-.77l1.88,1.15V179l-.6-.37Z"/><path class="cls-125" d="M536.15,183.23l-.67-.41v-1.42l-.78-.48v1.42l-.67-.41v-3.49l.67.41v1.29l.78.48v-1.29l.67.41Z"/><path class="cls-125" d="M539,183.22a1.56,1.56,0,0,1-.31,1.15q-.31.27-.9-.09a2.32,2.32,0,0,1-.89-1,3.52,3.52,0,0,1-.31-1.53,1.53,1.53,0,0,1,.31-1.14q.31-.27.9.09a2.31,2.31,0,0,1,.9,1A3.53,3.53,0,0,1,539,183.22Zm-1.71-1q0,1,.5,1.32.25.16.38,0a1.31,1.31,0,0,0,.12-.69,2.42,2.42,0,0,0-.12-.85.92.92,0,0,0-.37-.48Q537.3,181.16,537.3,182.18Z"/><path class="cls-125" d="M541.82,186.69l-.88-.54-.91-3h0q0,.6,0,.91v1.57l-.59-.36v-3.49l.87.53.9,3h0q0-.54,0-.86v-1.58l.6.36Z"/></g></g></g></svg>