<svg xmlns="http://www.w3.org/2000/svg" viewBox="0 0 1439.71 1577.68"><defs><style>.cls-1{fill:#2965f1;}.cls-2{fill:#fff;}.cls-3{fill:#ebebeb;}</style></defs><title>css-card-logo_1</title><g id="Layer_2" data-name="Layer 2"><g id="Layer_1-2" data-name="Layer 1"><rect class="cls-1" width="1439.71" height="1577.68"/><path class="cls-2" d="M497.55,375.56H628.32v54.68H552.24v54.68h76.08v54.68H497.55Zm156.92,0H785.24v47.55H709.16v9.51h76.08V542H654.47V492.05h76.08v-9.51H654.47v-107Zm156.92,0H942.16v47.55H866.08v9.51h76.08V542H811.39V492.05h76.08v-9.51H811.4v-107Z"/><path class="cls-3" d="M488.34,839.71l8.93,99.6H720.15v-99.6ZM470.4,638.12l9.05,99.6h240.7v-99.6H470.4Zm249.75,460.26-.44.12-110.92-30-7.09-79.43h-100l14,156.39,204,56.63.46-.12Z"/><path class="cls-2" d="M951.33,839.71l18-201.59H719.81v99.6H860.16l-9.06,102H719.81v99.6H842.46l-11.56,129.17-111.09,30v103.62L924,1145.5l1.5-16.83L948.9,866.45l2.43-26.75Z"/></g></g></svg>