<svg xmlns="http://www.w3.org/2000/svg" viewBox="0 0 1439.71 1577.68"><defs><style>.cls-1{fill:#2965f1;}.cls-2{fill:#fff;}.cls-3{fill:#ebebeb;}</style></defs><title>css3_1</title><g id="Layer_2" data-name="Layer 2"><g id="Layer_1-2" data-name="Layer 1"><rect class="cls-1" width="1439.71" height="1577.68"/><path class="cls-2" d="M556.78,485.66H652.7v40.12H596.89v40.12h55.81V606H556.78Zm115.11,0h95.93v34.88H712v7h55.81v80.23H671.89V571.12h55.81v-7H671.89V485.66Zm115.12,0h95.93v34.88H827.12v7h55.81v80.23H787V571.12h55.81v-7H787V485.66Z"/><path class="cls-3" d="M550,826.16l6.55,73.07H720.07V826.16ZM536.86,678.27l6.64,73.07H720.07V678.27H536.86Zm183.21,337.64-.32.08-81.37-22-5.2-58.27H559.83l10.24,114.72L719.74,1092l.34-.09Z"/><path class="cls-2" d="M889.66,826.16l13.19-147.88h-183v73.07h103l-6.65,74.82H719.82v73.07h90L801.31,994l-81.49,22v76l149.79-41.51,1.1-12.34,17.17-192.36,1.78-19.62Z"/></g></g></svg>