<svg xmlns="http://www.w3.org/2000/svg" viewBox="0 0 222.18 222.18"><defs><style>.cls-1{fill:#f5de19;}</style></defs><title>js-card-logo_2</title><g id="Layer_2" data-name="Layer 2"><g id="layer_1-2" data-name="layer 1"><g id="bubbles"><rect class="cls-1" width="222.18" height="222.18"/><path d="M123.21,125.44c3.09,5,7.12,8.76,14.23,8.76,6,0,9.8-3,9.8-7.12,0-4.95-3.92-6.7-10.5-9.58L133.13,116c-10.41-4.44-17.33-10-17.33-21.74,0-10.82,8.25-19.06,21.13-19.06,9.17,0,15.77,3.19,20.52,11.55l-11.24,7.21c-2.47-4.44-5.14-6.18-9.29-6.18s-6.9,2.68-6.9,6.18c0,4.33,2.68,6.08,8.87,8.76l3.61,1.55c12.26,5.26,19.18,10.62,19.18,22.67,0,13-10.2,20.11-23.91,20.11-13.4,0-22.06-6.39-26.29-14.76Zm-51,1.25c2.27,4,4.33,7.42,9.29,7.42,4.74,0,7.73-1.85,7.73-9.07V76h14.43v49.26c0,14.94-8.76,21.74-21.55,21.74-11.55,0-18.24-6-21.65-13.18Z"/></g></g></g></svg>