<svg xmlns="http://www.w3.org/2000/svg" viewBox="0 0 141.13 141.13"><defs><style>.cls-1{fill:#8a93be;}.cls-1,.cls-2,.cls-3{fill-rule:evenodd;}.cls-2{fill:#fff;}.cls-3{fill:#1d1d1b;}</style></defs><title>php-card-logo</title><g id="Layer_2" data-name="Layer 2"><g id="Layer_1-2" data-name="Layer 1"><polygon class="cls-1" points="0 0 141.13 0 141.13 141.13 0 141.13 0 0 0 0"/><path class="cls-2" d="M85.35,85.49,89,66.86c.82-4.2.14-7.34-2-9.32s-5.63-2.85-10.84-2.85H69.85l1.79-9.23A1.19,1.19,0,0,0,70.48,44H61.82a1.19,1.19,0,0,0-1.17,1L56.81,64.78a11.13,11.13,0,0,0-2.59-5.72c-2.54-2.91-6.55-4.38-11.93-4.38H25.52a1.19,1.19,0,0,0-1.16,1l-7.78,40a1.19,1.19,0,0,0,1.16,1.41h8.72a1.19,1.19,0,0,0,1.17-1l1.88-9.68H36a28,28,0,0,0,8.5-1.1,16.64,16.64,0,0,0,6.24-3.74A19.18,19.18,0,0,0,54.43,77l-1.55,8A1.19,1.19,0,0,0,54,86.45h8.65a1.19,1.19,0,0,0,1.16-1l4.27-22h5.94c2.53,0,3.27.5,3.47.72s.56.89.14,3.09L74.23,85a1.19,1.19,0,0,0,1.16,1.41h8.79a1.19,1.19,0,0,0,1.16-1ZM45.24,70.09c-.54,2.79-1.57,4.78-3,5.92s-3.9,1.74-7.13,1.74H31.2L34,63.37h5c3.67,0,5.15.78,5.74,1.44.82.91,1,2.74.51,5.28Z"/><path class="cls-2" d="M121.8,59.06c-2.54-2.91-6.55-4.38-11.93-4.38H93.1a1.19,1.19,0,0,0-1.17,1l-7.78,40a1.19,1.19,0,0,0,1.16,1.41H94a1.19,1.19,0,0,0,1.17-1l1.88-9.68h6.49a28,28,0,0,0,8.5-1.1,16.65,16.65,0,0,0,6.24-3.74,18.59,18.59,0,0,0,5.84-10.45c1-5.1.2-9.17-2.36-12.1Zm-8.49,11c-.54,2.79-1.57,4.78-3,5.92s-3.9,1.74-7.13,1.74H99.27l2.8-14.38h5c3.67,0,5.15.78,5.74,1.44.82.91,1,2.74.5,5.28Z"/><path class="cls-3" d="M39,62.19q5,0,6.63,1.83t.79,6.3Q45.5,75,42.92,77t-7.86,2H29.76L33,62.19ZM17.74,95.91h8.72l2.07-10.64H36a26.73,26.73,0,0,0,8.14-1,15.4,15.4,0,0,0,5.81-3.48,17.4,17.4,0,0,0,5.48-9.81q1.38-7.12-2.09-11.09t-11-4H25.52l-7.78,40Z"/><path class="cls-3" d="M61.82,45.22h8.65L68.41,55.87h7.71q7.28,0,10,2.54t1.66,8.22L84.19,85.26H75.4l3.44-17.71q.59-3-.43-4.12t-4.34-1.1H67.15L62.69,85.26H54l7.78-40Z"/><path class="cls-3" d="M107.06,62.19q5,0,6.63,1.83t.79,6.3Q113.57,75,111,77t-7.86,2H97.83l3.26-16.76ZM85.81,95.91h8.72L96.6,85.26h7.47a26.73,26.73,0,0,0,8.14-1A15.39,15.39,0,0,0,118,80.74a17.39,17.39,0,0,0,5.48-9.81q1.38-7.12-2.09-11.09t-11-4H93.59l-7.78,40Z"/></g></g></svg>