<svg xmlns="http://www.w3.org/2000/svg" xmlns:xlink="http://www.w3.org/1999/xlink" viewBox="0 0 1285.6 324.72"><defs><style>.cls-1{isolation:isolate;}.cls-2{fill:url(#linear-gradient);}.cls-16,.cls-3,.cls-72,.cls-76{fill:none;stroke-miterlimit:10;}.cls-3{stroke:#6ea8e3;}.cls-4{fill:url(#linear-gradient-2);}.cls-5{fill:#4a88ff;}.cls-6{fill:#fff;}.cls-7{fill:#241033;opacity:0.25;}.cls-12,.cls-7{mix-blend-mode:multiply;}.cls-8{fill:#13041f;}.cls-9{fill:#fcd3b7;}.cls-10{fill:#ed1e79;}.cls-11{fill:#251404;}.cls-12{opacity:0.4;fill:url(#Degradado_sin_nombre_64);}.cls-13{fill:url(#Degradado_sin_nombre_28);}.cls-14{fill:url(#Degradado_sin_nombre_20);}.cls-15{fill:url(#Degradado_sin_nombre_19);}.cls-16{stroke:#3fdcda;stroke-width:0.26px;}.cls-17{fill:url(#Degradado_sin_nombre_70);}.cls-18{fill:url(#Degradado_sin_nombre_71);}.cls-19{fill:url(#Degradado_sin_nombre_3);}.cls-20{fill:url(#Degradado_sin_nombre_19-2);}.cls-21{fill:url(#Degradado_sin_nombre_18);}.cls-22{fill:url(#Degradado_sin_nombre_17);}.cls-23{fill:#e1e1e1;}.cls-24{fill:url(#Degradado_sin_nombre_15);}.cls-25{fill:url(#Degradado_sin_nombre_15-2);}.cls-26{fill:url(#Degradado_sin_nombre_59);}.cls-27{fill:url(#Degradado_sin_nombre_16);}.cls-28{fill:url(#Degradado_sin_nombre_59-2);}.cls-29{fill:url(#Degradado_sin_nombre_16-2);}.cls-30{fill:url(#Degradado_sin_nombre_59-3);}.cls-31{fill:url(#Degradado_sin_nombre_59-4);}.cls-32{fill:url(#Degradado_sin_nombre_59-5);}.cls-33{fill:url(#Degradado_sin_nombre_16-3);}.cls-34{fill:url(#Degradado_sin_nombre_59-6);}.cls-35{fill:url(#Degradado_sin_nombre_15-3);}.cls-36{fill:url(#Degradado_sin_nombre_15-4);}.cls-37{fill:url(#Degradado_sin_nombre_15-5);}.cls-38{fill:url(#Degradado_sin_nombre_85);}.cls-39{fill:url(#Degradado_sin_nombre_85-2);}.cls-40{fill:#fbc39d;}.cls-41{fill:url(#Degradado_sin_nombre_14);}.cls-42{fill:url(#Degradado_sin_nombre_14-2);}.cls-43{fill:url(#Degradado_sin_nombre_53);}.cls-44{fill:url(#Degradado_sin_nombre_88);}.cls-45{fill:url(#Degradado_sin_nombre_14-3);}.cls-46{fill:url(#Degradado_sin_nombre_3-2);}.cls-47{fill:url(#Degradado_sin_nombre_3-3);}.cls-48{fill:url(#Degradado_sin_nombre_89);}.cls-49{fill:url(#Degradado_sin_nombre_12);}.cls-50{fill:url(#Degradado_sin_nombre_11);}.cls-51{fill:url(#Degradado_sin_nombre_89-2);}.cls-52{fill:url(#Degradado_sin_nombre_10);}.cls-53{fill:url(#Degradado_sin_nombre_9);}.cls-54{fill:url(#Degradado_sin_nombre_89-3);}.cls-55{fill:url(#Degradado_sin_nombre_8);}.cls-56{fill:url(#Degradado_sin_nombre_7);}.cls-57{fill:url(#Degradado_sin_nombre_89-4);}.cls-58{fill:url(#Degradado_sin_nombre_8-2);}.cls-59{fill:url(#Degradado_sin_nombre_7-2);}.cls-60{fill:url(#Degradado_sin_nombre_89-5);}.cls-61{fill:url(#Degradado_sin_nombre_10-2);}.cls-62{fill:url(#Degradado_sin_nombre_9-2);}.cls-63{fill:#8cc63f;}.cls-64{fill:#689c23;}.cls-65{fill:#eee;}.cls-66{fill:#afafaf;}.cls-67{fill:gray;}.cls-68{fill:#666;}.cls-69{fill:#eda36f;}.cls-70{fill:#241404;}.cls-71{fill:#f15a24;}.cls-72,.cls-76{stroke:#ff1d25;}.cls-72{stroke-width:0.09px;}.cls-73{fill:#333;}.cls-74{fill:#e2e2e2;opacity:0.23;}.cls-75{fill:#d94611;}.cls-76{stroke-width:0.17px;}</style><linearGradient id="linear-gradient" x1="642.8" y1="-79.16" x2="642.8" y2="278.74" gradientUnits="userSpaceOnUse"><stop offset="0.11" stop-color="#563886"/><stop offset="0.26" stop-color="#4a3178"/><stop offset="0.74" stop-color="#271e4f"/><stop offset="0.98" stop-color="#1a163f"/></linearGradient><linearGradient id="linear-gradient-2" x1="442.27" y1="121.86" x2="441.81" y2="68.69" gradientUnits="userSpaceOnUse"><stop offset="0.11" stop-color="#1ca0e8"/><stop offset="0.64" stop-color="#1787c3"/><stop offset="0.93" stop-color="#157db3"/></linearGradient><linearGradient id="Degradado_sin_nombre_64" x1="358.14" y1="235.49" x2="425.61" y2="235.49" gradientUnits="userSpaceOnUse"><stop offset="0" stop-color="#4941d7"/><stop offset="1" stop-color="#241e55"/></linearGradient><linearGradient id="Degradado_sin_nombre_28" x1="352.1" y1="220.48" x2="383.39" y2="274.66" gradientUnits="userSpaceOnUse"><stop offset="0" stop-color="#3fdcda"/><stop offset="0.06" stop-color="#3fdcda" stop-opacity="0.82"/><stop offset="0.13" stop-color="#3fdcda" stop-opacity="0.63"/><stop offset="0.21" stop-color="#3fdcda" stop-opacity="0.46"/><stop offset="0.29" stop-color="#3fdcda" stop-opacity="0.32"/><stop offset="0.38" stop-color="#3fdcda" stop-opacity="0.2"/><stop offset="0.48" stop-color="#3fdcda" stop-opacity="0.11"/><stop offset="0.6" stop-color="#3fdcda" stop-opacity="0.05"/><stop offset="0.74" stop-color="#3fdcda" stop-opacity="0.01"/><stop offset="1" stop-color="#3fdcda" stop-opacity="0"/></linearGradient><linearGradient id="Degradado_sin_nombre_20" x1="276.39" y1="271.63" x2="376.78" y2="97.75" gradientUnits="userSpaceOnUse"><stop offset="0" stop-color="#4a43d1"/><stop offset="1" stop-color="#3c32d4"/></linearGradient><linearGradient id="Degradado_sin_nombre_19" x1="271.65" y1="185.99" x2="385.92" y2="185.99" gradientUnits="userSpaceOnUse"><stop offset="0" stop-color="#373391"/><stop offset="1" stop-color="#23205f"/></linearGradient><linearGradient id="Degradado_sin_nombre_70" x1="2757.86" y1="227.01" x2="2760.11" y2="230.9" gradientTransform="translate(1856.51 -2063.79) rotate(119.92)" gradientUnits="userSpaceOnUse"><stop offset="0" stop-color="#3fdcda"/><stop offset="0.01" stop-color="#3fdcda" stop-opacity="0.9"/><stop offset="0.03" stop-color="#3fdcda" stop-opacity="0.71"/><stop offset="0.06" stop-color="#3fdcda" stop-opacity="0.54"/><stop offset="0.09" stop-color="#3fdcda" stop-opacity="0.39"/><stop offset="0.12" stop-color="#3fdcda" stop-opacity="0.27"/><stop offset="0.16" stop-color="#3fdcda" stop-opacity="0.17"/><stop offset="0.2" stop-color="#3fdcda" stop-opacity="0.09"/><stop offset="0.25" stop-color="#3fdcda" stop-opacity="0.04"/><stop offset="0.33" stop-color="#3fdcda" stop-opacity="0.01"/><stop offset="0.53" stop-color="#3fdcda" stop-opacity="0"/></linearGradient><linearGradient id="Degradado_sin_nombre_71" x1="2652.29" y1="169.1" x2="2654.53" y2="172.99" gradientTransform="translate(1856.51 -2063.79) rotate(119.92)" gradientUnits="userSpaceOnUse"><stop offset="0.47" stop-color="#3fdcda" stop-opacity="0"/><stop offset="0.67" stop-color="#3fdcda" stop-opacity="0.01"/><stop offset="0.75" stop-color="#3fdcda" stop-opacity="0.04"/><stop offset="0.8" stop-color="#3fdcda" stop-opacity="0.09"/><stop offset="0.84" stop-color="#3fdcda" stop-opacity="0.17"/><stop offset="0.88" stop-color="#3fdcda" stop-opacity="0.27"/><stop offset="0.91" stop-color="#3fdcda" stop-opacity="0.39"/><stop offset="0.94" stop-color="#3fdcda" stop-opacity="0.54"/><stop offset="0.97" stop-color="#3fdcda" stop-opacity="0.71"/><stop offset="0.99" stop-color="#3fdcda" stop-opacity="0.9"/><stop offset="1" stop-color="#3fdcda"/></linearGradient><linearGradient id="Degradado_sin_nombre_3" x1="284.07" y1="182.13" x2="382" y2="182.13" gradientUnits="userSpaceOnUse"><stop offset="0" stop-color="#4941d7"/><stop offset="1" stop-color="#3fdcda"/></linearGradient><linearGradient id="Degradado_sin_nombre_19-2" x1="296.49" y1="180.53" x2="371.02" y2="180.53" xlink:href="#Degradado_sin_nombre_19"/><linearGradient id="Degradado_sin_nombre_18" x1="295.98" y1="242.74" x2="295.98" y2="163.21" gradientUnits="userSpaceOnUse"><stop offset="0" stop-color="#3f33ed"/><stop offset="1" stop-color="#6f68ff"/></linearGradient><linearGradient id="Degradado_sin_nombre_17" x1="295.47" y1="140.77" x2="371.02" y2="140.77" gradientUnits="userSpaceOnUse"><stop offset="0" stop-color="#625aff"/><stop offset="1" stop-color="#6698ff"/></linearGradient><linearGradient id="Degradado_sin_nombre_15" x1="351.14" y1="158.53" x2="373.5" y2="158.53" gradientUnits="userSpaceOnUse"><stop offset="0" stop-color="#9a04ff"/><stop offset="1" stop-color="#ed2c88"/></linearGradient><linearGradient id="Degradado_sin_nombre_15-2" x1="351.04" y1="175.98" x2="351.04" y2="154.6" xlink:href="#Degradado_sin_nombre_15"/><linearGradient id="Degradado_sin_nombre_59" x1="311.19" y1="168.33" x2="346.18" y2="168.33" gradientUnits="userSpaceOnUse"><stop offset="0" stop-color="#fb7439"/><stop offset="1" stop-color="#fdde98"/></linearGradient><linearGradient id="Degradado_sin_nombre_16" x1="311.4" y1="192.67" x2="346.18" y2="192.67" gradientUnits="userSpaceOnUse"><stop offset="0" stop-color="#fdb92a"/><stop offset="1" stop-color="#fb7439"/></linearGradient><linearGradient id="Degradado_sin_nombre_59-2" x1="311.29" y1="227.57" x2="311.29" y2="178.88" xlink:href="#Degradado_sin_nombre_59"/><linearGradient id="Degradado_sin_nombre_16-2" x1="315.23" y1="150.6" x2="377.33" y2="150.6" xlink:href="#Degradado_sin_nombre_16"/><linearGradient id="Degradado_sin_nombre_59-3" x1="315.12" y1="177.16" x2="315.12" y2="161.86" xlink:href="#Degradado_sin_nombre_59"/><linearGradient id="Degradado_sin_nombre_59-4" x1="315.02" y1="142.95" x2="377.33" y2="142.95" xlink:href="#Degradado_sin_nombre_59"/><linearGradient id="Degradado_sin_nombre_59-5" x1="311.19" y1="211.57" x2="373.5" y2="211.57" xlink:href="#Degradado_sin_nombre_59"/><linearGradient id="Degradado_sin_nombre_16-3" x1="311.4" y1="214.67" x2="373.5" y2="214.67" xlink:href="#Degradado_sin_nombre_16"/><linearGradient id="Degradado_sin_nombre_59-6" x1="311.29" y1="236.67" x2="311.29" y2="230.47" xlink:href="#Degradado_sin_nombre_59"/><linearGradient id="Degradado_sin_nombre_15-3" x1="351.14" y1="184.32" x2="373.5" y2="184.32" xlink:href="#Degradado_sin_nombre_15"/><linearGradient id="Degradado_sin_nombre_15-4" x1="351.04" y1="203.3" x2="351.04" y2="178.88" xlink:href="#Degradado_sin_nombre_15"/><linearGradient id="Degradado_sin_nombre_15-5" x1="350.93" y1="172.12" x2="373.5" y2="172.12" xlink:href="#Degradado_sin_nombre_15"/><linearGradient id="Degradado_sin_nombre_85" x1="356.59" y1="223.82" x2="364.87" y2="223.82" gradientUnits="userSpaceOnUse"><stop offset="0" stop-color="#c3531b"/><stop offset="0.1" stop-color="#a14622"/><stop offset="0.23" stop-color="#7a382b"/><stop offset="0.37" stop-color="#592b32"/><stop offset="0.52" stop-color="#3f2237"/><stop offset="0.67" stop-color="#2d1b3b"/><stop offset="0.82" stop-color="#22173d"/><stop offset="1" stop-color="#1f163e"/></linearGradient><linearGradient id="Degradado_sin_nombre_85-2" x1="363.93" y1="219.05" x2="372.22" y2="219.05" xlink:href="#Degradado_sin_nombre_85"/><linearGradient id="Degradado_sin_nombre_14" x1="369.29" y1="163.7" x2="372.57" y2="163.7" gradientUnits="userSpaceOnUse"><stop offset="0" stop-color="#463eda"/><stop offset="1" stop-color="#271d2c"/></linearGradient><linearGradient id="Degradado_sin_nombre_14-2" x1="359.85" y1="204.24" x2="372.92" y2="204.24" xlink:href="#Degradado_sin_nombre_14"/><linearGradient id="Degradado_sin_nombre_53" x1="358.65" y1="174.83" x2="372.46" y2="174.83" gradientUnits="userSpaceOnUse"><stop offset="0" stop-color="#fb7896"/><stop offset="1" stop-color="#ab2553"/></linearGradient><linearGradient id="Degradado_sin_nombre_88" x1="360.36" y1="152.93" x2="371.55" y2="152.93" gradientUnits="userSpaceOnUse"><stop offset="0" stop-color="#fc8130"/><stop offset="0.09" stop-color="#dc722c"/><stop offset="0.27" stop-color="#a55724"/><stop offset="0.44" stop-color="#77401d"/><stop offset="0.6" stop-color="#532f18"/><stop offset="0.75" stop-color="#392215"/><stop offset="0.89" stop-color="#291b13"/><stop offset="1" stop-color="#241812"/></linearGradient><linearGradient id="Degradado_sin_nombre_14-3" x1="354.78" y1="169.46" x2="362.63" y2="169.46" xlink:href="#Degradado_sin_nombre_14"/><linearGradient id="Degradado_sin_nombre_3-2" x1="275.91" y1="214.81" x2="281" y2="214.81" xlink:href="#Degradado_sin_nombre_3"/><linearGradient id="Degradado_sin_nombre_3-3" x1="384.19" y1="162.22" x2="384.19" y2="152.33" xlink:href="#Degradado_sin_nombre_3"/><linearGradient id="Degradado_sin_nombre_89" x1="2803.82" y1="233.13" x2="2838.2" y2="173.59" gradientTransform="matrix(-1, 0, 0, 1, 3462.55, 0)" gradientUnits="userSpaceOnUse"><stop offset="0" stop-color="#fff" stop-opacity="0"/><stop offset="0.22" stop-color="#fff" stop-opacity="0.01"/><stop offset="0.35" stop-color="#fff" stop-opacity="0.04"/><stop offset="0.47" stop-color="#fff" stop-opacity="0.1"/><stop offset="0.57" stop-color="#fff" stop-opacity="0.18"/><stop offset="0.66" stop-color="#fff" stop-opacity="0.29"/><stop offset="0.75" stop-color="#fff" stop-opacity="0.42"/><stop offset="0.83" stop-color="#fff" stop-opacity="0.57"/><stop offset="0.91" stop-color="#fff" stop-opacity="0.75"/><stop offset="0.98" stop-color="#fff" stop-opacity="0.94"/><stop offset="1" stop-color="#fff"/></linearGradient><linearGradient id="Degradado_sin_nombre_12" x1="626.78" y1="171.64" x2="653.84" y2="171.64" gradientUnits="userSpaceOnUse"><stop offset="0" stop-color="#cf6319"/><stop offset="1" stop-color="#df5817"/></linearGradient><linearGradient id="Degradado_sin_nombre_11" x1="629.44" y1="172.91" x2="656.06" y2="172.91" gradientUnits="userSpaceOnUse"><stop offset="0" stop-color="#df8031"/><stop offset="1" stop-color="#e16923"/></linearGradient><linearGradient id="Degradado_sin_nombre_89-2" x1="2740.43" y1="271.69" x2="2774.8" y2="212.16" gradientTransform="matrix(-1, 0, 0, 1, 3267.28, 0)" xlink:href="#Degradado_sin_nombre_89"/><linearGradient id="Degradado_sin_nombre_10" x1="494.9" y1="205.27" x2="521.97" y2="205.27" gradientUnits="userSpaceOnUse"><stop offset="0" stop-color="#d130f6"/><stop offset="1" stop-color="#572399"/></linearGradient><linearGradient id="Degradado_sin_nombre_9" x1="497.56" y1="206.53" x2="524.18" y2="206.53" gradientUnits="userSpaceOnUse"><stop offset="0" stop-color="#e97fff"/><stop offset="1" stop-color="#7347a2"/></linearGradient><linearGradient id="Degradado_sin_nombre_89-3" x1="2275.96" y1="276.56" x2="2310.33" y2="217.02" gradientTransform="matrix(-1, 0, 0, 1, 3267.28, 0)" xlink:href="#Degradado_sin_nombre_89"/><linearGradient id="Degradado_sin_nombre_8" x1="959.05" y1="214.09" x2="986.11" y2="214.09" gradientUnits="userSpaceOnUse"><stop offset="0" stop-color="#ec9c2e"/><stop offset="1" stop-color="#d25a18"/></linearGradient><linearGradient id="Degradado_sin_nombre_7" x1="961.71" y1="215.35" x2="988.33" y2="215.35" gradientUnits="userSpaceOnUse"><stop offset="0" stop-color="#fad943"/><stop offset="1" stop-color="#fc8130"/></linearGradient><linearGradient id="Degradado_sin_nombre_89-4" x1="717.07" y1="280.55" x2="751.45" y2="221.01" gradientTransform="matrix(1, 0, 0, 1, 0, 0)" xlink:href="#Degradado_sin_nombre_89"/><linearGradient id="Degradado_sin_nombre_8-2" x1="721.96" y1="212.54" x2="749.02" y2="212.54" xlink:href="#Degradado_sin_nombre_8"/><linearGradient id="Degradado_sin_nombre_7-2" x1="719.74" y1="213.8" x2="746.36" y2="213.8" xlink:href="#Degradado_sin_nombre_7"/><linearGradient id="Degradado_sin_nombre_89-5" x1="841.88" y1="270.49" x2="874.46" y2="214.07" gradientTransform="matrix(1, 0, 0, 1, 0, 0)" xlink:href="#Degradado_sin_nombre_89"/><linearGradient id="Degradado_sin_nombre_10-2" x1="846.61" y1="207.85" x2="872.05" y2="207.85" xlink:href="#Degradado_sin_nombre_10"/><linearGradient id="Degradado_sin_nombre_9-2" x1="844.52" y1="209.04" x2="869.55" y2="209.04" xlink:href="#Degradado_sin_nombre_9"/></defs><title>textBanner_1</title><g class="cls-1"><g id="Layer_2" data-name="Layer 2"><g id="BACKGROUND"><rect class="cls-2" width="1285.6" height="324.72"/></g><g id="OBJECTS"><polyline class="cls-3" points="382.52 159.29 442.12 149.32 442.12 115.84"/><polygon class="cls-4" points="410.1 59.64 465.87 94.55 474.13 106.83 474.13 134.63 424.04 103.27 419.07 106.38 410.1 101.36 410.1 59.64"/><polygon class="cls-5" points="410.1 59.64 413.23 57.65 469.01 92.56 465.87 94.55 410.1 59.64"/><path class="cls-6" d="M422.43,89.51,421,84.09l-1.62,3.4-2-1.32-2.42-8.22,2,1.27L418.43,85l1.63-3.79,2,1.28,1.47,5.85,1.75-3.8,2.12,1.34-2.92,5Z"/><path class="cls-6" d="M435.42,98.07l-1.51-5.68-1.85,3.46-2.2-1.45-2.55-8.61,2.22,1.39,1.54,6,1.87-3.87,2.22,1.41,1.54,6.12,2-3.88L441,94.47l-3.32,5.1Z"/><path class="cls-6" d="M449.71,107.47l-1.59-6L446,105l-2.42-1.59-2.69-9,2.44,1.53,1.61,6.32,2.14-3.94,2.45,1.55,1.61,6.42,2.3-3.95L456,104l-3.79,5.16Z"/><path class="cls-6" d="M458.32,112.13c0,.62-.63.72-1.4.22a2.5,2.5,0,0,1-1.23-1.94c0-.64.64-.7,1.39-.21A2.43,2.43,0,0,1,458.32,112.13Z"/><ellipse class="cls-7" cx="775.23" cy="273.16" rx="14.07" ry="4.84"/><path class="cls-8" d="M787.3,219.2s.32,5.35.17,6.94-3.75,10.49-3.67,14.56-.5,26.07-.5,26.07a6,6,0,0,1-3.54,0s-3.24-20.26-3.18-20.6,0-9.28,0-9.28L774,250.28s-2.15,13-1.84,16.23a7.86,7.86,0,0,1-3.35.22s-2.12-25-1.81-28.41,1.25-18.7,1.25-18.7l18.57-1.6Z"/><path class="cls-9" d="M757.51,196.28l-2-2.47s-.21-3.71-1-3.64-.59,1.13-.86,1.63-1.14-.15-1.8-.87-2.06-2.14-2.53-2.11-.05,1.68.36,2.75,4.83,7.25,4.83,7.25l3.57-1.1Z"/><polygon class="cls-9" points="773.17 170.5 771.85 171.88 770.85 172.99 770.23 178.51 771.85 183.2 773.87 184.68 775.12 174.47 773.17 170.5"/><path class="cls-10" d="M772.7,185.9a8.87,8.87,0,0,0-7,7.51c-1.17,6.64-1.91,10.53-1.91,10.53l-6.29-7.65a3.51,3.51,0,0,0-3.36,1.83l8.4,13s2.39,1.43,4.25-1.81a29.41,29.41,0,0,1,2.46-3.91l-.89,15.34s7.81,3.45,18.91-1.53l-.43-25.14s.17-8.9-4.63-9.31A27.37,27.37,0,0,0,772.7,185.9Z"/><path class="cls-11" d="M779.6,169.85s-1.68-2-3.92-1.7a4.52,4.52,0,0,0-4.19,4.2c-.18,2.46-1,6,0,7.34a6.8,6.8,0,0,1,1.42,4.4c-.16,1.25-2.78,8.17-1,10.7s5.25,5.54,10.15,4,6.09-8.93,4.46-11.78-4.13-4-3.89-7S782.65,169,779.6,169.85Z"/><polygon class="cls-8" points="783.29 266.77 783.36 270.13 783.16 271.96 782.94 275.57 782.08 275.57 781.78 270.98 781.19 270.47 779.21 273.68 777.26 273.94 774.57 272.7 774.03 270.98 774.03 270.47 776.74 269.96 779.76 266.51 782.42 266.37 783.29 266.77"/><polygon class="cls-8" points="772.2 266.45 772.27 269.81 772.07 271.64 771.85 275.26 770.99 275.26 770.69 270.66 770.1 270.15 768.12 273.37 766.17 273.63 763.48 272.38 762.94 270.66 762.94 270.15 765.65 269.64 768.85 266.73 771.33 266.05 772.2 266.45"/><path class="cls-12" d="M425.61,246.83c-3.07-6-14.51-14.45-29.29-21.15-18.73-8.49-35.71-10.92-37.94-5.42s11.15,16.83,29.87,25.32c9.83,4.46,19.17,7.24,26.16,8.08Z"/><polygon class="cls-13" points="322.23 309.97 284.07 263.09 382 203.22 451 231.32 322.23 309.97"/><path class="cls-14" d="M384.84,102.5l-2-1.22h0a1.67,1.67,0,0,0-1.78,0L271.88,168a5.12,5.12,0,0,0-2.39,4.38v94.15a1.77,1.77,0,0,0,1,1.62h0l2.13,1.31.25-.86-.34-.85,108.84-66.48a5.14,5.14,0,0,0,2.4-4.4v-94a2.06,2.06,0,0,0,0-.25h.77Z"/><path class="cls-15" d="M271.65,267.85V173.7a5.12,5.12,0,0,1,2.39-4.38L383.26,102.6a1.77,1.77,0,0,1,2.66,1.62v94a5.14,5.14,0,0,1-2.4,4.4L274.17,269.39A1.68,1.68,0,0,1,271.65,267.85Z"/><path class="cls-16" d="M274.66,270.39V176.25a5.12,5.12,0,0,1,2.39-4.38l109.22-66.71a1.77,1.77,0,0,1,2.66,1.62v94a5.14,5.14,0,0,1-2.4,4.4L277.18,271.93A1.68,1.68,0,0,1,274.66,270.39Z"/><path class="cls-16" d="M278,272.54V178.4A5.12,5.12,0,0,1,280.4,174L389.63,107.3a1.77,1.77,0,0,1,2.66,1.62v94a5.14,5.14,0,0,1-2.4,4.4L280.53,274.08A1.68,1.68,0,0,1,278,272.54Z"/><path class="cls-16" d="M281.36,274.69V180.54a5.12,5.12,0,0,1,2.39-4.38L393,109.45a1.77,1.77,0,0,1,2.66,1.62v94a5.14,5.14,0,0,1-2.4,4.4L283.88,276.23A1.68,1.68,0,0,1,281.36,274.69Z"/><polygon class="cls-17" points="284.07 166.03 284.07 258.06 279.73 260.41 279.58 168.76 284.07 166.03"/><polygon class="cls-18" points="386.93 103.27 386.93 195.58 382.59 197.93 382.44 106 386.93 103.27"/><polygon class="cls-19" points="284.07 258.06 284.07 166.03 382 106.2 382 198.23 284.07 258.06"/><polygon class="cls-20" points="296.49 163.84 371.02 118.32 371.02 197.22 296.49 242.74 296.49 163.84"/><polygon class="cls-21" points="296.49 242.74 295.47 242.11 295.47 163.21 296.49 163.84 296.49 242.74"/><polygon class="cls-22" points="296.49 163.84 371.02 118.32 370 117.69 295.47 163.21 296.49 163.84"/><polygon class="cls-23" points="350.94 154.6 373.29 140.95 373.5 141.08 351.14 154.73 350.94 154.6"/><polygon class="cls-24" points="373.5 141.08 351.14 154.73 351.14 175.98 373.5 162.32 373.5 141.08"/><polygon class="cls-25" points="351.14 154.73 350.94 154.6 350.94 175.85 351.14 175.98 351.14 154.73"/><path class="cls-6" d="M353.68,159.36a1.1,1.1,0,0,1-.17.59,1.42,1.42,0,0,1-.48.47,1,1,0,0,1-.5.18v-.35a1,1,0,0,0,.26,0,1.13,1.13,0,0,0,.26-.12.76.76,0,0,0,.26-.24.53.53,0,0,0,.08-.28.18.18,0,0,0-.08-.17.61.61,0,0,0-.31,0,.42.42,0,0,1-.35-.08.45.45,0,0,1-.1-.33,1,1,0,0,1,.16-.55,1.27,1.27,0,0,1,.43-.43,1.07,1.07,0,0,1,.51-.17l-.09.36a.93.93,0,0,0-.43.13.62.62,0,0,0-.22.21.49.49,0,0,0-.07.25.26.26,0,0,0,0,.13.15.15,0,0,0,.1.06,1,1,0,0,0,.24,0,.72.72,0,0,1,.29,0,.24.24,0,0,1,.13.12A.57.57,0,0,1,353.68,159.36Z"/><path class="cls-6" d="M354,159.76v-2.29l.29-.18v2.29Z"/><path class="cls-6" d="M356.25,157.24a2.09,2.09,0,0,1-.25,1,2,2,0,0,1-.71.73l-.5.31V157l.55-.34q.43-.26.67-.11T356.25,157.24Zm-.31.2q0-.82-.6-.45l-.25.16v1.66l.21-.13A1.35,1.35,0,0,0,355.94,157.44Z"/><path class="cls-6" d="M357.64,157.54l-1,.62v-2.29l1-.62v.32l-.72.44v.62l.68-.41v.31l-.68.41v.72l.72-.44Z"/><path class="cls-6" d="M358,155l.53-.33a.86.86,0,0,1,.53-.19c.11,0,.16.14.16.33a.94.94,0,0,1-.08.38.84.84,0,0,1-.23.31v0c.13,0,.22,0,.28,0a.41.41,0,0,1,.09.31,1.11,1.11,0,0,1-.17.59,1.38,1.38,0,0,1-.47.46l-.65.4Zm.29.77.28-.17a.84.84,0,0,0,.27-.24.53.53,0,0,0,.09-.3c0-.11,0-.17-.09-.18a.5.5,0,0,0-.29.11l-.25.16Zm0,.3v.73l.31-.19a.84.84,0,0,0,.28-.26A.63.63,0,0,0,359,156c0-.12,0-.19-.1-.21a.41.41,0,0,0-.29.09Z"/><path class="cls-6" d="M360.8,155.61l-.18-.53-.68.42-.18.74-.31.19.67-2.71.32-.2.67,1.89Zm-.26-.8-.17-.52-.05-.17,0-.17c0,.14-.05.3-.1.48l-.16.7Z"/><path class="cls-6" d="M361.64,154.18v.91l-.29.18V153l.51-.31c.23-.14.4-.19.51-.15s.17.18.17.4a1.24,1.24,0,0,1-.35.82l.51.7-.33.2-.43-.65Zm0-.31.2-.12a.86.86,0,0,0,.3-.28.66.66,0,0,0,.09-.34c0-.13,0-.2-.1-.22a.45.45,0,0,0-.3.1l-.19.12Z"/><polygon class="cls-26" points="311.19 178.88 345.97 157.64 346.18 157.77 311.4 179.01 311.19 178.88"/><polygon class="cls-27" points="311.4 179.01 346.18 157.77 346.18 206.32 311.4 227.57 311.4 179.01"/><polygon class="cls-28" points="311.4 179.01 311.19 178.88 311.19 227.44 311.4 227.57 311.4 179.01"/><polygon class="cls-29" points="315.23 161.98 377.33 124.05 377.33 139.22 315.23 177.16 315.23 161.98"/><polygon class="cls-30" points="315.23 177.16 315.02 177.03 315.02 161.86 315.23 161.98 315.23 177.16"/><polygon class="cls-31" points="315.02 161.86 377.12 123.92 377.33 124.05 315.23 161.98 315.02 161.86"/><path class="cls-6" d="M320.25,164.85l-.52.32-1.28-1.87h0v.14c0,.27,0,.53,0,.76v1.73l-.39.24v-3.34l.52-.32,1.28,1.86h0s0-.16,0-.37,0-.39,0-.51v-1.75l.39-.24Z"/><path class="cls-6" d="M322.56,163.44l-.26-.77-1,.61-.25,1.08-.45.28,1-3.95.46-.28,1,2.75Zm-.37-1.17-.25-.76-.07-.24-.07-.25q0,.31-.14.7l-.24,1Z"/><path class="cls-6" d="M324.85,158.7l.44-.27-.91,3.9-.45.28-.91-2.78.44-.27.54,1.74a3.33,3.33,0,0,1,.09.33c0,.14.05.24.06.31,0-.12,0-.27.07-.45s.06-.3.08-.39Z"/><polygon class="cls-32" points="311.19 230.47 373.29 192.54 373.5 192.66 311.4 230.6 311.19 230.47"/><polygon class="cls-33" points="311.4 230.6 373.5 192.66 373.5 198.74 311.4 236.67 311.4 230.6"/><polygon class="cls-34" points="311.4 230.6 311.19 230.47 311.19 236.54 311.4 236.67 311.4 230.6"/><polygon class="cls-35" points="373.5 165.35 351.14 179.01 351.14 203.29 373.5 189.63 373.5 165.35"/><polygon class="cls-36" points="351.14 179.01 350.94 178.88 350.94 203.17 351.14 203.3 351.14 179.01"/><polygon class="cls-37" points="350.94 178.88 373.29 165.22 373.5 165.35 351.14 179.01 350.94 178.88"/><path class="cls-38" d="M364.77,222.92c0,.84.75,3.47-1.5,3.42-1.74.22-5.36-2.82-6.39-3.45s.71-2.35,5.05-1.23C362.66,222,364.77,222.92,364.77,222.92Z"/><path class="cls-39" d="M372.11,218.14c0,.84.75,3.47-1.5,3.42-1.74.22-5.36-2.82-6.39-3.45s.71-2.35,5.05-1.23C370,217.25,372.11,218.14,372.11,218.14Z"/><path class="cls-40" d="M360.36,149.84l5.85,15.43,1.64-2.49-5-14.43a9,9,0,0,0-1.43-2.93c-.45-.41-3.29-.59-2.93,1,0,.93,1.91,1.81,1.47,2.35-.13.16-.75,0-1.31.36s.2.69.52.56A2,2,0,0,1,360.36,149.84Z"/><path class="cls-41" d="M369.29,160.52c2.56-.47,4.06,1.67,2.87,5.51S369.29,160.52,369.29,160.52Z"/><path class="cls-40" d="M343.54,162.26l9.93,10.51,1.47-1.66s4.44.82,2.9,2.69a6.88,6.88,0,0,1-4.85,2.83c-1.49.15-11.31-12.6-11.31-12.6a6,6,0,0,1-2.37-4.18c.16-.78,1.14-2.4,2.23-2.58.76,0,1.34,1.87,1.54,2.53s.47.15.91-.32.93-.15.18,1.19C343.89,161.16,344.13,161.85,343.54,162.26Z"/><path class="cls-42" d="M371.55,184.32l-2.67-.31-.26,1.37-3.07.64-5,1.24-.76,17.87,1.73,18.75a2.59,2.59,0,0,0,3.3,0s1.63-13.86-.43-18.31a33.57,33.57,0,0,1,2.52-5.76v4.49l1.91,15.94c3.33.87,3.3-1.24,3.3-1.24a65.2,65.2,0,0,0-.76-15.57C371.35,198.94,374.75,188.47,371.55,184.32Z"/><path class="cls-43" d="M364.31,162.08c.82.79,4.1.17,4-1.12a2.91,2.91,0,0,1,2.06-.37c1.84.5,1.54,3.55,1.72,5.12.4,3.7.13,13,.34,18.84,0,1.82-3,3.78-6.51,4.45-2.39.47-6.15-.46-6.13-1.27s-.18-11.16-.75-13.41-.62-7.92.26-9.06C360.45,163.82,364.31,162.08,364.31,162.08Z"/><path class="cls-40" d="M360.67,151.7c-.58,1.36,0,2.07-.06,3.07s-.63,4.57,1,5a5.14,5.14,0,0,0,1.94.13l.84,2.54c.47,1,4.32.54,4-1.49l-.19-1.78c.88-.43,2.49-2,2.49-5s-3.05-5.36-5.81-5.36A5,5,0,0,0,360.67,151.7Z"/><path class="cls-44" d="M363.08,155.54c.45-.28,1.53,1.14.14,2.42a1.89,1.89,0,0,0,.51,1.3c.35.41-.29.45.64,1s2.58.15,2.9.29c0-.35.56-.16,1-1.16.64-.9,1.54-.9,2.29-2.74a5,5,0,0,0,.53-2.08,2.62,2.62,0,0,1,.23,1.33A4.71,4.71,0,0,0,370,151a2.2,2.2,0,0,1,1.38.7,3.45,3.45,0,0,0-2.34-1.59c-.89-.43-.72-1.14-2.58-1.44s-1.76-1.65-1.47-2.2c0,0-1.12.93-1,1.72a2.85,2.85,0,0,1,.3-2.85,3.53,3.53,0,0,0-1.64,3.42,4.2,4.2,0,0,1-.14-2c-.42.15-2.78,3.38-2,5.39s2.47,1.92,2.43,2.59S363.08,155.54,363.08,155.54Z"/><path class="cls-45" d="M360.62,164.2c-2.25.71-3.74,3.3-5.84,6.68a6.57,6.57,0,0,0,3,3.94,41.49,41.49,0,0,0,3.65-4.49C363,167.84,363.31,163.35,360.62,164.2Z"/><path class="cls-46" d="M280.32,216c-1,1.7-2.57,2.56-3.6,1.92s-1.09-2.55-.13-4.26,2.57-2.56,3.6-1.92S281.28,214.28,280.32,216Z"/><path class="cls-47" d="M384.16,152.38h0a.34.34,0,0,1,.52.32v8.69a.9.9,0,0,1-.42.77h0a.37.37,0,0,1-.55-.34v-8.61A1,1,0,0,1,384.16,152.38Z"/><path class="cls-6" d="M315.36,181.42a1.51,1.51,0,0,0-.58.69,2.49,2.49,0,0,0-.21,1,1.13,1.13,0,0,0,.2.8q.2.19.59,0a2.35,2.35,0,0,0,.32-.24l.32-.31v.47a3.22,3.22,0,0,1-.7.58q-.57.35-.88.1a1.4,1.4,0,0,1-.31-1.08,3.37,3.37,0,0,1,.15-1,2.85,2.85,0,0,1,.43-.86,2.37,2.37,0,0,1,.66-.61,1.38,1.38,0,0,1,.74-.24l-.15.55-.28,0A1,1,0,0,0,315.36,181.42Z"/><path class="cls-6" d="M318.88,180.5a3.26,3.26,0,0,1-.32,1.46,2.39,2.39,0,0,1-.9,1q-.59.36-.91.11a1.36,1.36,0,0,1-.32-1.08,3.23,3.23,0,0,1,.32-1.46,2.41,2.41,0,0,1,.91-1q.58-.36.9-.1A1.35,1.35,0,0,1,318.88,180.5Zm-2,1.22a1.21,1.21,0,0,0,.19.82q.19.2.58,0a1.45,1.45,0,0,0,.57-.67,2.58,2.58,0,0,0,.19-1.06,1.22,1.22,0,0,0-.19-.81q-.19-.2-.57,0a1.47,1.47,0,0,0-.58.67A2.56,2.56,0,0,0,316.89,181.72Z"/><path class="cls-6" d="M321.62,180.5l-.52.32-1.28-1.87h0v.14q0,.41,0,.76v1.73l-.39.24V178.5l.52-.32,1.28,1.86h0s0-.16,0-.37,0-.39,0-.51V177.4l.39-.24Z"/><path class="cls-6" d="M323.21,179.52l-.43.26v-2.87l-.77.47v-.47l2-1.2v.47l-.77.47Z"/><path class="cls-6" d="M325.86,177.9l-1.48.91v-3.34l1.48-.91V175l-1.05.64v.91l1-.6v.46l-1,.6v1l1.05-.64Z"/><path class="cls-6" d="M328.6,176.22l-.52.32-1.28-1.87h0v.14q0,.41,0,.76v1.73l-.39.24v-3.34l.52-.32,1.28,1.86h0s0-.16,0-.37,0-.39,0-.51v-1.75l.39-.24Z"/><path class="cls-6" d="M330.19,175.25l-.43.26v-2.87l-.77.47v-.47l2-1.2v.47l-.77.47Z"/><path class="cls-6" d="M314.39,232.63l-.27.17v-2.14l.95-.58v.3l-.67.41v.67l.63-.39v.3l-.63.39Z"/><path class="cls-6" d="M316.86,230a2.1,2.1,0,0,1-.2.94,1.53,1.53,0,0,1-.58.64q-.38.23-.58.07a.88.88,0,0,1-.2-.69,2.08,2.08,0,0,1,.2-.94,1.55,1.55,0,0,1,.58-.64c.25-.15.44-.17.58-.07A.87.87,0,0,1,316.86,230Zm-1.28.78a.78.78,0,0,0,.13.52q.13.13.37,0a.93.93,0,0,0,.37-.43,1.66,1.66,0,0,0,.12-.68.78.78,0,0,0-.12-.52q-.12-.13-.37,0a.94.94,0,0,0-.37.43A1.64,1.64,0,0,0,315.58,230.83Z"/><path class="cls-6" d="M318.71,228.92a2.1,2.1,0,0,1-.2.94,1.53,1.53,0,0,1-.58.65q-.38.23-.58.07a.88.88,0,0,1-.2-.69,2.08,2.08,0,0,1,.2-.94,1.55,1.55,0,0,1,.58-.64q.37-.23.58-.07A.87.87,0,0,1,318.71,228.92Zm-1.28.78a.78.78,0,0,0,.13.52c.08.09.21.08.37,0a.94.94,0,0,0,.37-.43,1.65,1.65,0,0,0,.12-.68.78.78,0,0,0-.12-.52c-.08-.09-.2-.08-.37,0a.94.94,0,0,0-.37.43A1.64,1.64,0,0,0,317.43,229.7Z"/><path class="cls-6" d="M319.65,229.41l-.27.17v-1.84l-.49.3v-.3l1.26-.77v.3l-.49.3Z"/><path class="cls-6" d="M321.35,228.37l-.95.58v-2.14l.95-.58v.3l-.67.41v.58l.63-.39v.29l-.63.39v.67l.67-.41Z"/><path class="cls-6" d="M322,227.13V228l-.27.17V226l.47-.29q.32-.2.48-.14t.16.37a1.16,1.16,0,0,1-.33.77l.47.66-.31.19-.4-.61Zm0-.29.19-.12a.8.8,0,0,0,.28-.26.61.61,0,0,0,.09-.32c0-.12,0-.19-.09-.2a.42.42,0,0,0-.28.09l-.18.11Z"/><path class="cls-6" d="M299.34,166.35l.78-.47a1.27,1.27,0,0,1,.78-.28q.24.05.24.49a1.36,1.36,0,0,1-.12.56,1.23,1.23,0,0,1-.34.45v0c.18-.07.32-.06.4,0a.6.6,0,0,1,.13.45,1.62,1.62,0,0,1-.25.85,2,2,0,0,1-.68.67l-.94.58Zm.43,1.12.41-.25a1.24,1.24,0,0,0,.39-.35.78.78,0,0,0,.12-.44c0-.16,0-.24-.13-.26a.72.72,0,0,0-.42.15l-.37.23Zm0,.44V169l.45-.28a1.22,1.22,0,0,0,.4-.38.91.91,0,0,0,.14-.5q0-.26-.14-.3a.6.6,0,0,0-.42.13Z"/><path class="cls-6" d="M304.07,165.11a3.27,3.27,0,0,1-.32,1.46,2.39,2.39,0,0,1-.9,1q-.59.36-.91.11a1.37,1.37,0,0,1-.32-1.08,3.23,3.23,0,0,1,.32-1.46,2.41,2.41,0,0,1,.91-1q.58-.36.9-.1A1.35,1.35,0,0,1,304.07,165.11Zm-2,1.22a1.21,1.21,0,0,0,.2.82q.19.2.58,0a1.46,1.46,0,0,0,.57-.67,2.59,2.59,0,0,0,.19-1.06,1.22,1.22,0,0,0-.19-.81q-.19-.2-.57,0a1.47,1.47,0,0,0-.58.67A2.56,2.56,0,0,0,302.08,166.33Z"/><path class="cls-6" d="M306.76,163.44a3,3,0,0,1-.36,1.48,2.84,2.84,0,0,1-1,1.07l-.73.45v-3.34l.81-.5q.62-.38,1-.17T306.76,163.44Zm-.45.29q0-1.2-.88-.66l-.37.23v2.42l.3-.19A2,2,0,0,0,306.31,163.73Z"/><path class="cls-6" d="M308.06,162.53l.62-1.9.46-.28-.87,2.58v1.29l-.43.26V163.2l-.87-1.53.46-.28Z"/><path class="cls-48" d="M633.12,169.76l13.82-9.2a3.78,3.78,0,0,1,4.23,0l2.68,1.79h0a5.07,5.07,0,0,1,2.22,4.34V224.5a15.11,15.11,0,0,1-6.32,12.63L636.45,246a4.1,4.1,0,0,1-4.69,0h0l-2.63-1.77h0a5.52,5.52,0,0,1-2.33-4.66v-57.1A15.16,15.16,0,0,1,633.12,169.76Z"/><path class="cls-49" d="M653.84,150.73l-2.68-1.79a3.78,3.78,0,0,0-4.23,0l-13.82,9.2a15.16,15.16,0,0,0-6.34,12.67v17.67a5.52,5.52,0,0,0,2.33,4.66h0l2.64,1.77s.41-1.09.4-1.13a5.1,5.1,0,0,0-.4-.43,4.31,4.31,0,0,0,1.42-.61l13.29-8.85a15.11,15.11,0,0,0,6.32-12.63V152.89a5.72,5.72,0,0,0-.19-1.45l.75.21Z"/><path class="cls-50" d="M635.78,160l13.82-9.2c2.87-1.91,6.46.48,6.46,4.3V173.5a15.11,15.11,0,0,1-6.32,12.63L636.45,195c-3.11,2.07-7-.52-7-4.67V172.64A15.16,15.16,0,0,1,635.78,160Z"/><path class="cls-6" d="M637.26,187.76a7.92,7.92,0,0,1-1.52.81v-2.92l.5-.21a3.2,3.2,0,0,0,.58-.31,2.69,2.69,0,0,0,1-1.25,5.84,5.84,0,0,0,.31-2.13V168.88l2.93-2v12.55a11.67,11.67,0,0,1-1,4.91A8,8,0,0,1,637.26,187.76Z"/><path class="cls-6" d="M649.75,170.87a7.39,7.39,0,0,1-.51,2.64,9.33,9.33,0,0,1-1.47,2.54,9.93,9.93,0,0,1-2.26,2.06,10.44,10.44,0,0,1-1.81,1,4.73,4.73,0,0,1-1.52.33v-3.35a5.75,5.75,0,0,0,1.74-.29,6.68,6.68,0,0,0,1.66-.79,3.12,3.12,0,0,0,1-.92,1.81,1.81,0,0,0,.3-.95.61.61,0,0,0-.12-.42.65.65,0,0,0-.39-.17,9.23,9.23,0,0,0-1.44.06,3.48,3.48,0,0,1-1.59-.14,1.49,1.49,0,0,1-.78-.81,4.1,4.1,0,0,1-.25-1.61,7.09,7.09,0,0,1,1.09-3.72,9.69,9.69,0,0,1,3-3.06,7.38,7.38,0,0,1,3.42-1.28l-.89,3.5a5.36,5.36,0,0,0-2.62.85,2.66,2.66,0,0,0-.83.81,1.58,1.58,0,0,0-.26.81.47.47,0,0,0,.33.51,6.74,6.74,0,0,0,1.78,0,2.35,2.35,0,0,1,1.94.45A2.83,2.83,0,0,1,649.75,170.87Z"/><path class="cls-51" d="M501.25,208.32l13.82-9.2a3.78,3.78,0,0,1,4.23,0l2.68,1.79h0a5.07,5.07,0,0,1,2.22,4.34v57.85a15.11,15.11,0,0,1-6.32,12.63l-13.29,8.85a4.1,4.1,0,0,1-4.69,0h0l-2.63-1.77h0a5.52,5.52,0,0,1-2.33-4.66V221A15.16,15.16,0,0,1,501.25,208.32Z"/><path class="cls-52" d="M522,184.36l-2.68-1.79a3.78,3.78,0,0,0-4.23,0l-13.82,9.2a15.16,15.16,0,0,0-6.34,12.67v17.67a5.52,5.52,0,0,0,2.33,4.66h0l2.64,1.77s.41-1.09.4-1.13a5.07,5.07,0,0,0-.4-.43,4.31,4.31,0,0,0,1.42-.61l13.29-8.85a15.11,15.11,0,0,0,6.32-12.63V186.51a5.72,5.72,0,0,0-.19-1.45l.75.21Z"/><path class="cls-53" d="M503.9,193.6l13.82-9.2c2.87-1.91,6.46.48,6.46,4.3v18.42a15.11,15.11,0,0,1-6.32,12.63l-13.29,8.85c-3.11,2.07-7-.52-7-4.67V206.27A15.16,15.16,0,0,1,503.9,193.6Z"/><path class="cls-6" d="M506.63,207.87a6.42,6.42,0,0,1-.77,3.1,6.54,6.54,0,0,1-2.18,2.36l-.59.39V217l-2.1,1.4v-10l2.69-1.79q1.47-1,2.21-.64T506.63,207.87Zm-3.54,3.65.38-.25a2.26,2.26,0,0,0,.75-.84,2.38,2.38,0,0,0,.28-1.13q0-1-.87-.43l-.54.36Z"/><path class="cls-6" d="M514,209.8l-2.11,1.4v-4.08l-2.44,1.62v4.08l-2.11,1.4v-10l2.11-1.4v3.71l2.44-1.62v-3.71l2.11-1.4Z"/><path class="cls-6" d="M520.76,198.48a6.42,6.42,0,0,1-.77,3.1,6.54,6.54,0,0,1-2.18,2.36l-.59.39v3.32l-2.1,1.4v-10l2.69-1.79q1.47-1,2.21-.64T520.76,198.48Zm-3.54,3.65.38-.25a2.26,2.26,0,0,0,.75-.84,2.38,2.38,0,0,0,.28-1.13q0-1-.87-.43l-.54.36Z"/><path class="cls-54" d="M965.72,213.19l13.82-9.2a3.78,3.78,0,0,1,4.23,0l2.68,1.79h0a5.07,5.07,0,0,1,2.22,4.34v57.85a15.11,15.11,0,0,1-6.32,12.63L969,289.41a4.1,4.1,0,0,1-4.69,0h0l-2.63-1.77h0a5.52,5.52,0,0,1-2.33-4.66v-57.1A15.16,15.16,0,0,1,965.72,213.19Z"/><path class="cls-55" d="M986.11,193.18l-2.68-1.79a3.78,3.78,0,0,0-4.23,0l-13.82,9.2a15.16,15.16,0,0,0-6.34,12.67V231a5.52,5.52,0,0,0,2.33,4.66h0l2.64,1.77s.41-1.09.4-1.13a5.11,5.11,0,0,0-.4-.43,4.31,4.31,0,0,0,1.42-.61l13.29-8.85a15.11,15.11,0,0,0,6.32-12.63V195.34a5.72,5.72,0,0,0-.19-1.45l.75.21Z"/><path class="cls-56" d="M968.05,202.42l13.82-9.2c2.87-1.91,6.46.48,6.46,4.3V216A15.11,15.11,0,0,1,982,228.58l-13.29,8.85c-3.11,2.07-7-.52-7-4.67V215.09A15.16,15.16,0,0,1,968.05,202.42Z"/><path class="cls-6" d="M966.42,219.92a3.31,3.31,0,0,1-.4,1.6,3.37,3.37,0,0,1-1.12,1.22l-.3.2v1.71l-1.08.72v-5.15l1.39-.92q.76-.5,1.14-.33T966.42,219.92Zm-1.82,1.88.2-.13a1.16,1.16,0,0,0,.39-.43,1.23,1.23,0,0,0,.14-.58q0-.52-.45-.22l-.28.19Z"/><path class="cls-6" d="M968.46,218.83l.69-2.37,1.17-.78-1.32,4v2l-1.09.72v-2l-1.32-2.31,1.18-.78Z"/><path class="cls-6" d="M972.49,219.4l-1.08.72v-4l-1,.65v-1.14l3-2v1.14l-1,.65Z"/><path class="cls-6" d="M977.44,216.1l-1.09.72v-2.1l-1.26.84v2.1l-1.09.72v-5.15l1.09-.72v1.91l1.26-.84v-1.91l1.09-.72Z"/><path class="cls-6" d="M982,210.47a5.15,5.15,0,0,1-.5,2.31,4.14,4.14,0,0,1-1.45,1.64q-.94.63-1.44.28t-.5-1.65a5.11,5.11,0,0,1,.5-2.3,4.16,4.16,0,0,1,1.45-1.64q1-.64,1.45-.29T982,210.47Zm-2.76,1.83q0,1.49.81,1a1.62,1.62,0,0,0,.61-.77,3.43,3.43,0,0,0,.2-1.26,1.68,1.68,0,0,0-.2-1q-.2-.23-.6,0A2.29,2.29,0,0,0,979.27,212.31Z"/><path class="cls-6" d="M986.54,210.06l-1.42.94-1.46-2.66,0,0q.05.82.05,1.27V212l-1,.64v-5.15l1.41-.94,1.46,2.61h0q0-.75,0-1.23v-2.33l1-.64Z"/><path class="cls-57" d="M742.68,217.18,728.86,208a3.78,3.78,0,0,0-4.23,0L722,209.72h0a5.07,5.07,0,0,0-2.22,4.34v57.85a15.11,15.11,0,0,0,6.32,12.63l13.29,8.85a4.1,4.1,0,0,0,4.69,0h0l2.63-1.77h0a5.52,5.52,0,0,0,2.33-4.66v-57.1A15.16,15.16,0,0,0,742.68,217.18Z"/><path class="cls-58" d="M722,191.63l2.68-1.79a3.78,3.78,0,0,1,4.23,0l13.82,9.2A15.16,15.16,0,0,1,749,211.76v17.67a5.52,5.52,0,0,1-2.33,4.66h0L744,235.87s-.41-1.09-.4-1.13a5.1,5.1,0,0,1,.4-.43,4.31,4.31,0,0,1-1.42-.61l-13.29-8.85A15.11,15.11,0,0,1,723,212.21V193.79a5.72,5.72,0,0,1,.19-1.45l-.75.21Z"/><path class="cls-59" d="M740,200.87l-13.82-9.2c-2.87-1.91-6.46.48-6.46,4.3V214.4A15.11,15.11,0,0,0,726.06,227l13.29,8.85c3.11,2.07,7-.52,7-4.67V213.54A15.16,15.16,0,0,0,740,200.87Z"/><path class="cls-6" d="M726.14,205.39a.81.81,0,0,0-1.33.28,6.3,6.3,0,0,0-.48,2.89q0,4.25,1.94,5.54a3,3,0,0,0,1.14.48,5.72,5.72,0,0,0,1.11.08V218a4.1,4.1,0,0,1-2.5-.85,8.36,8.36,0,0,1-3.07-4,16.82,16.82,0,0,1-1.07-6.3,10.78,10.78,0,0,1,.52-3.68,2.45,2.45,0,0,1,1.49-1.67,2.76,2.76,0,0,1,2.28.59A10.47,10.47,0,0,1,728.9,205l-.73,2.65q-.49-.71-1-1.3A4.94,4.94,0,0,0,726.14,205.39Z"/><path class="cls-6" d="M736,219.17a4.64,4.64,0,0,1-.42,2.16,1.46,1.46,0,0,1-1.2.85,3,3,0,0,1-1.84-.64,9.4,9.4,0,0,1-1.48-1.19,11.26,11.26,0,0,1-1.24-1.55v-3.55a15.42,15.42,0,0,0,1.42,1.86,7.52,7.52,0,0,0,1.35,1.23q.53.35.78.21t.25-.63a1.84,1.84,0,0,0-.1-.6,3.8,3.8,0,0,0-.32-.67q-.22-.38-1.17-1.73a15.55,15.55,0,0,1-1.3-2.13,8.58,8.58,0,0,1-.64-1.84,9.3,9.3,0,0,1-.21-2q0-2,.89-2.58t2.44.49a11.37,11.37,0,0,1,2.8,2.92l-.73,2.59a9.34,9.34,0,0,0-2.14-2.37q-.47-.31-.68-.18a.58.58,0,0,0-.21.53,2.11,2.11,0,0,0,.27,1A26.39,26.39,0,0,0,734,213.5a12.08,12.08,0,0,1,1.59,2.9A8.38,8.38,0,0,1,736,219.17Z"/><path class="cls-6" d="M743.15,223.92a4.64,4.64,0,0,1-.42,2.16,1.46,1.46,0,0,1-1.2.85,3,3,0,0,1-1.84-.64,9.41,9.41,0,0,1-1.48-1.19,11.25,11.25,0,0,1-1.24-1.55V220a15.4,15.4,0,0,0,1.42,1.86,7.52,7.52,0,0,0,1.35,1.23q.53.35.78.21t.25-.63a1.84,1.84,0,0,0-.1-.6,3.81,3.81,0,0,0-.32-.67q-.22-.38-1.17-1.73a15.53,15.53,0,0,1-1.3-2.13,8.58,8.58,0,0,1-.64-1.84,9.3,9.3,0,0,1-.21-2q0-2,.89-2.58t2.44.49a11.37,11.37,0,0,1,2.8,2.92l-.73,2.59a9.34,9.34,0,0,0-2.14-2.37q-.47-.31-.68-.18a.58.58,0,0,0-.21.53,2.11,2.11,0,0,0,.27,1,26.41,26.41,0,0,0,1.46,2.22,12.08,12.08,0,0,1,1.59,2.9A8.38,8.38,0,0,1,743.15,223.92Z"/><path class="cls-60" d="M866.08,210.45l-13-8.71a3.53,3.53,0,0,0-4,0l-2.52,1.7h0a4.82,4.82,0,0,0-2.09,4.11v54.8a14.35,14.35,0,0,0,5.94,12l12.5,8.38a3.84,3.84,0,0,0,4.41,0h0l2.48-1.68h0a5.24,5.24,0,0,0,2.19-4.41V222.45A14.4,14.4,0,0,0,866.08,210.45Z"/><path class="cls-61" d="M846.61,188l2.52-1.7a3.53,3.53,0,0,1,4,0l13,8.71a14.4,14.4,0,0,1,6,12v16.74a5.24,5.24,0,0,1-2.19,4.41h0l-2.48,1.68s-.38-1-.38-1.07a4.81,4.81,0,0,1,.38-.4,4,4,0,0,1-1.34-.58l-12.5-8.38a14.35,14.35,0,0,1-5.94-12V190.09a5.46,5.46,0,0,1,.18-1.37l-.7.19Z"/><path class="cls-62" d="M863.59,196.8l-13-8.71c-2.7-1.81-6.08.45-6.08,4.08v17.45a14.35,14.35,0,0,0,5.94,12L863,230c2.93,2,6.59-.49,6.59-4.42V208.8A14.4,14.4,0,0,0,863.59,196.8Z"/><path class="cls-6" d="M851.06,209.51l-1.48-1v-3.64l-1.71-1.14v3.64l-1.48-1v-8.93l1.48,1v3.31l1.71,1.14V199.6l1.48,1Z"/><path class="cls-6" d="M854.64,211.9l-1.47-1v-7l-1.33-.89v-2l4.12,2.76v2l-1.32-.89Z"/><path class="cls-6" d="M859.11,214.89,858,207.72l0,0q.08,1.69.08,2.6v3.88l-1.3-.87v-8.93l2,1.31,1.13,7.1,0,0,1.11-5.59,2,1.31v8.93l-1.35-.9v-3.91q0-.31,0-.67t.05-1.79l0,0-1.1,5.68Z"/><path class="cls-6" d="M864.11,218.24v-8.93l1.47,1v7l2.09,1.4v1.95Z"/><path class="cls-8" d="M970.76,197.7s1.31,8.11-5.84,12.51S954.2,238.06,953.23,245c0,0-4.35,1.62-5.61-.22s1.07-30.27,2.75-36.3c0,0-4.28,4.25-6.35,14.13L941.45,240s-4.07,2-6.16-1c0,0,1.44-32.95,3.37-35.84s12.46-12.46,12.46-12.46l19.64,4.91Z"/><path class="cls-8" d="M935.29,239a9.45,9.45,0,0,1-3,2.83c-1.43.6-5.28,3.68-5.19,5.2s4.84.9,6.78-.29,2.81-2,3.53-2.14l.22.52s2.58.43,3.36,0a22.67,22.67,0,0,0,.43-5.12l-1.86-.34Z"/><path class="cls-8" d="M947.62,244.81s-.89,4.83-2,6.06-2.61,3.9-2,4.65,2.1,1.91,4.1-.38a22.57,22.57,0,0,0,3.93-5.43l.18.93,1.6-1.27a21.11,21.11,0,0,0-.18-4.35l-3.05-1.78Z"/><path class="cls-63" d="M954,160.08s-2.72.81-6.3,16.42l-1.32,5.67-13-1a11.29,11.29,0,0,0-.07,3.52l14.05,5.15S955.7,173,954,160.08Z"/><path class="cls-64" d="M954.53,164.22s-9.43,12.71-6.49,23.54l.75,1.67,5-15Z"/><path class="cls-63" d="M971.87,173.86s.07-6.91-3.91-10-9.07-4.53-12.3-4.2c-1.85.19-3.72.9-5.06,5.85s-1.9,27.42-1.9,27.42,9.14,4.62,15.85,5.25a8.39,8.39,0,0,0,6.31-1.08Z"/><path class="cls-64" d="M966.78,168.94s-1.11,1.85-1.51,7.72-1,15.52-1,15.52l4.6,2Z"/><polygon class="cls-65" points="949.57 200.86 960.07 193.48 960.1 192.58 949.57 185.22 949.57 200.86"/><polygon class="cls-66" points="948.96 200.43 960.1 192.58 960.07 193.48 949 201.23 948.96 200.43"/><path class="cls-66" d="M949.57,195.27l2,1.47L950,197.83c-.24.16-.43,0-.43-.3Z"/><polygon class="cls-66" points="952.84 195.9 951.98 196.48 949.57 194.75 949.57 193.54 952.84 195.9"/><polygon class="cls-66" points="953.81 195.24 953.21 195.65 949.57 193.03 949.57 192.18 953.81 195.24"/><polygon class="cls-66" points="954.78 194.58 954.18 194.99 949.57 191.66 949.57 190.83 954.78 194.58"/><polygon class="cls-66" points="956.02 193.75 955.15 194.33 955.15 194.33 949.57 190.3 949.57 189.09 956.02 193.75"/><path class="cls-66" d="M956.94,193.11l-.55.37-6.82-4.92v-.45c0-.33.19-.46.43-.3l6.94,4.71A.33.33,0,0,1,956.94,193.11Z"/><polygon class="cls-67" points="933.28 190.28 933.28 173.81 948.96 184.79 948.96 201.25 933.28 190.28"/><polygon class="cls-66" points="948.96 201.25 949.57 200.86 949.57 184.39 948.96 184.79 948.96 201.25"/><polygon class="cls-65" points="933.28 173.81 948.96 184.79 949.57 184.39 933.89 173.41 933.28 173.81"/><ellipse class="cls-68" cx="941.12" cy="187.53" rx="1.47" ry="2.77"/><path class="cls-9" d="M964.85,162.94c-5.54,2.34-7.2.75-7.2.75l0-.63-.27-4.87,3.31-.35,2.67-.28.19.68.22.76Z"/><path class="cls-9" d="M953.91,194.13l-5,.58a3.13,3.13,0,0,0-1.92,1.7c-.53,1.32,2.52,2.11,3.09,2.69s4.88-.6,4.88-.6Z"/><path class="cls-9" d="M954.08,194.13s-2-2.07-2.37-2.07-.1,2.8.83,2.91Z"/><path class="cls-9" d="M933.28,184.39a3.72,3.72,0,0,0-.47,2.28,4.48,4.48,0,0,0,1.08,3.14c.54.49,1.14-1.18.55-2.71S933.28,184.39,933.28,184.39Z"/><path class="cls-63" d="M967.64,166.89s-1.77,2.94-1.87,8.6,0,15.6,0,15.6l-11.69,3a37,37,0,0,0,.29,4.35l14,.62s2.63-.27,3.5-1.65,2.07-23.78-1-30C970.85,167.46,969.26,164.64,967.64,166.89Z"/><polygon class="cls-69" points="964.26 158.33 963.71 159 961.5 161.7 957.6 163.06 957.33 158.18 960.64 157.84 963.49 158.23 964.26 158.33"/><polygon class="cls-9" points="954.94 143.12 954.94 151.66 956.88 161 959.17 161.45 963.22 160.17 965.64 155.89 965.94 144.39 958.74 140.79 954.94 143.12"/><path class="cls-70" d="M954.94,143.12l-2-1.59-1-2.12s4.08-.62,4.36-1.23S963,134.8,963,134.8l4.65,6.44.63,10.84-2.67,3.82-1.41.53v-3.71a5.26,5.26,0,0,0,1.13-1.7c.44-1.07.23-4-.81-3.74s-2.06-3.16-2.06-3.16l-4.86-1.4Z"/><path class="cls-7" d="M968.87,210.53c-.74,1-2.29,2.82-4,5.43a38,38,0,0,0-5.54,14l-7.84-4.9h0c.35-5.78,1.08-12.44,2.54-14.5l-1.9-1.79s-4.71,3.55-6.66,12.54l-4.42-2.77,2.18-15.35,1-.14,13.07-1.8,13.24-.37S970.88,207.71,968.87,210.53Z"/><ellipse class="cls-7" cx="548.01" cy="283.99" rx="16.1" ry="5.91"/><polygon class="cls-9" points="551.88 179.35 546.02 182.39 545.56 180.57 544.92 178 544.72 177.2 546.2 176.42 548.22 175.36 550.08 174.38 551.88 179.35"/><polygon class="cls-69" points="548.22 175.36 545.56 180.57 544.92 178 545.09 177.41 546.2 176.42 548.22 175.36"/><path class="cls-9" d="M536.07,187.11,533,183.5l-1.79-4.73s-1.06-1-1.41-.59,1.27,7.59,1.27,7.59l-2.45,1.05s0,.51.23.64,2.84,1.17,2.84,1.17l2.2,1Z"/><path class="cls-71" d="M543.51,192.12l-1.94,7.94-3.84-4.94-4.36-5.62a4.59,4.59,0,0,1,2.46-2.66l3.86,3.11Z"/><polygon class="cls-72" points="527.32 174.93 527.32 159.78 511.14 169.91 511.14 185 527.32 174.93"/><polygon class="cls-65" points="528.01 175.32 528.01 160.17 511.84 170.3 511.84 185.4 528.01 175.32"/><polygon class="cls-73" points="527 174.69 527 162.07 512.85 170.93 512.85 183.51 527 174.69"/><polygon class="cls-65" points="511.84 185.4 511.14 185 511.14 169.91 511.84 170.3 511.84 185.4"/><polygon class="cls-66" points="511.84 170.3 511.14 169.91 527.32 159.78 528.01 160.17 511.84 170.3"/><polygon class="cls-65" points="528.01 175.32 540.12 182.9 523.98 193 511.84 185.4 528.01 175.32"/><path class="cls-66" d="M534.36,180.55l-14.3,8.72.46.29a.91.91,0,0,0,.87,0l13.25-8.29a.3.3,0,0,0,0-.55Z"/><polygon class="cls-66" points="519.61 188.97 533.85 180.24 533.35 179.93 519.05 188.65 519.61 188.97"/><polygon class="cls-66" points="518.04 188.02 518.54 188.33 532.84 179.61 532.35 179.3 518.04 188.02"/><polygon class="cls-66" points="517.04 187.39 517.54 187.7 531.84 178.98 531.34 178.67 517.04 187.39"/><polygon class="cls-66" points="516.04 186.76 516.53 187.07 530.83 178.35 530.34 178.04 516.04 186.76"/><polygon class="cls-66" points="515.03 186.13 515.53 186.45 529.83 177.72 529.33 177.41 515.03 186.13"/><path class="cls-66" d="M514.29,185.67l.23.14,14.29-8.72-.37-.23a.91.91,0,0,0-.87,0l-13.28,8.27A.29.29,0,0,0,514.29,185.67Z"/><polygon class="cls-66" points="540.12 182.9 540.12 183.68 523.98 193.83 523.98 193 540.12 182.9"/><polygon class="cls-65" points="523.98 193.83 511.14 185.88 511.14 185 523.98 193 523.98 193.83"/><path class="cls-66" d="M528.43,187.66a.23.23,0,0,0,.12,0l3.2-1.89a.29.29,0,0,0,.1-.37.24.24,0,0,0-.34-.11l-3.2,1.89a.29.29,0,0,0-.1.37A.25.25,0,0,0,528.43,187.66Z"/><polygon class="cls-74" points="520.95 165.85 517.56 180.57 512.98 183.43 512.85 170.93 520.95 165.85"/><polygon class="cls-8" points="545.86 216.58 547.5 248.01 550.75 281.68 554.73 281.85 554.53 243.57 556.95 224.96 556.87 213.87 545.93 214.48 545.86 216.58"/><path class="cls-8" d="M551.31,280.78s.19.79-2,.87-5.5.2-4.14,2.11,6.82,1,8.14.74l0,.76,1.68-.08a10.25,10.25,0,0,0-.39-4.17Z"/><path class="cls-9" d="M522.24,197.46,520,192.7l-5.39-5.48s-.15-.95.41-1.16,7.85,5.38,7.85,5.38l1.93-2.29s.49.14.51.5,0,3.58,0,3.58l.27,1.82Z"/><polygon class="cls-75" points="543.51 192.12 541.57 200.05 537.73 195.11 539.69 189.94 543.51 192.12"/><path class="cls-8" d="M540.11,218.86l1.64,31.43L545,284l4,.17.65-38.42s7.29-13.76,8.24-18.88c.49-2.62-.43-10.68-.43-10.68l-17.26.61Z"/><path class="cls-9" d="M540.61,162.48s-.77,8.21-.64,9.61,2.37,6.43,3.8,6.68,7.25-5.25,7.25-5.25l-1.09-12.58L543,160Z"/><path class="cls-70" d="M535.59,156.76l2.5,4.18,2.52,1.54,5.86-2,.29.78,1.08,5.17s.7-1.1,1.61-.78,1.09,4.1.48,4.59a3.46,3.46,0,0,1-1.7.54l.88,2.74,2.28,1.46,3.44-8.29L554,160l-4.3-5.07-7.35,1.1L539,157Z"/><path class="cls-71" d="M539.36,220.66l19.08-1c-.13-3.93-1.18-35.37-1.62-37-.53-2-3.64-3.5-4.94-3.33l-5.41,1.53s-4.62,1-6.07,7.23c-1.59,6.85-2.87,16-2.87,16l-12.15-9.69a7.91,7.91,0,0,0-3.15,3c-.23.52,0,.6,0,.6l14.45,16.32,2.66,1.5Z"/><path class="cls-8" d="M545.25,283s.25.78-1.92,1-5.47.64-4,2.43,6.87.4,8.17.08l.08.75,1.67-.22a10.21,10.21,0,0,0-.67-4.12Z"/><path class="cls-75" d="M540.95,215a19.88,19.88,0,0,0,3.88-6.66c.89-3.32,2.35-15.09,2.35-15.09L546.89,205A21.85,21.85,0,0,1,540.95,215Z"/><polygon class="cls-76" points="746.07 179.93 746.07 158.61 721.77 172.86 721.77 194.11 746.07 179.93"/><polygon class="cls-65" points="747.12 180.49 747.12 159.16 722.81 173.41 722.81 194.66 747.12 180.49"/><polygon class="cls-73" points="745.6 179.59 745.6 161.82 724.33 174.3 724.33 192 745.6 179.59"/><polygon class="cls-65" points="722.81 194.66 721.77 194.11 721.77 172.86 722.81 173.41 722.81 194.66"/><polygon class="cls-66" points="722.81 173.41 721.77 172.86 746.07 158.61 747.12 159.16 722.81 173.41"/><polygon class="cls-65" points="747.12 180.49 765.29 191.15 741.06 205.36 722.81 194.66 747.12 180.49"/><path class="cls-66" d="M756.64,187.85l-21.49,12.28.7.41a1.46,1.46,0,0,0,1.31,0l19.9-11.67a.41.41,0,0,0,0-.77Z"/><polygon class="cls-66" points="734.49 199.69 755.88 187.4 755.14 186.96 733.65 199.24 734.49 199.69"/><polygon class="cls-66" points="732.14 198.36 732.89 198.8 754.36 186.52 753.62 186.08 732.14 198.36"/><polygon class="cls-66" points="730.63 197.47 731.38 197.91 752.86 185.63 752.11 185.19 730.63 197.47"/><polygon class="cls-66" points="729.13 196.59 729.87 197.03 751.34 184.75 750.61 184.31 729.13 196.59"/><polygon class="cls-66" points="727.61 195.7 728.36 196.14 749.84 183.86 749.09 183.42 727.61 195.7"/><path class="cls-66" d="M726.5,195l.35.2L748.33,183l-.56-.33a1.45,1.45,0,0,0-1.31,0l-20,11.64A.4.4,0,0,0,726.5,195Z"/><polygon class="cls-66" points="765.29 191.15 765.29 192.25 741.06 206.53 741.06 205.36 765.29 191.15"/><polygon class="cls-65" points="741.06 206.53 721.77 195.35 721.77 194.11 741.06 205.36 741.06 206.53"/><path class="cls-66" d="M747.74,197.86a.37.37,0,0,0,.18,0l4.8-2.66a.39.39,0,0,0,.15-.52.38.38,0,0,0-.51-.15l-4.8,2.66a.39.39,0,0,0-.15.52A.38.38,0,0,0,747.74,197.86Z"/><polygon class="cls-74" points="736.51 167.16 731.41 187.87 724.53 191.89 724.33 174.3 736.51 167.16"/></g></g></g></svg>