<svg xmlns="http://www.w3.org/2000/svg" viewBox="0 0 689 217"><defs><style>.cls-1{fill:#4c4c4c;}.cls-2{fill:none;}</style></defs><title>textBook</title><g id="Layer_2" data-name="Layer 2"><g id="Layer_1-2" data-name="Layer 1"><polygon class="cls-1" points="0 216 77.5 66.5 43 0 412.36 0 529 217 0 216"/><polygon class="cls-1" points="689 0 689 217 573.64 217 457 0 689 0"/><line class="cls-2" x1="529" y1="217" x2="412.36"/><path class="cls-1" d="M58.2,74.79,42.94,101.21a21.18,21.18,0,0,1-3.33,4.38,2.3,2.3,0,0,1-3.93-1.6V24a2.3,2.3,0,0,1,3.93-1.6,21.18,21.18,0,0,1,3.33,4.38L58.2,53.21A21.6,21.6,0,0,1,58.2,74.79Z"/></g></g></svg>